<!-- Generated by IcoMoon.io -->
<svg version="1.1" xmlns="http://www.w3.org/2000/svg" width="25" height="32" viewBox="0 0 25 32">
<title>aux10</title>
<path d="M12.491 31.723c-0.036-0.152-0.105-1.326-0.154-2.609l-0.088-2.332-0.827-0.78v-6.679h0.862v-3.938h1.477v3.938h0.873l-0.073 6.797-0.4 0.334c-0.369 0.308-0.4 0.39-0.399 1.063 0.001 0.401-0.064 1.574-0.143 2.606l-0.143 1.877h-0.459c-0.375 0-0.472-0.051-0.525-0.277zM12.284 13.908v-0.738h1.477v1.477h-1.477v-0.738zM12.284 12.195c0-0.13 0.060-0.256 0.133-0.28 0.095-0.032 0.093-0.27-0.009-0.832-0.183-1.007-0.034-1.36 0.571-1.36 0.639 0 0.813 0.368 0.64 1.354-0.104 0.589-0.103 0.8 0.002 0.835 0.077 0.026 0.141 0.153 0.141 0.283 0 0.206-0.093 0.236-0.738 0.236s-0.738-0.030-0.738-0.236zM11.595 8.012c-0.508-0.231-0.897-0.665-1.182-1.319-0.105-0.24-0.175-1.38-0.218-3.524l-0.064-3.169 0.904 0 0.040 2.985c0.037 2.742 0.061 3.025 0.297 3.477 0.385 0.738 0.958 1.081 1.691 1.013 0.679-0.063 1.144-0.363 1.498-0.964 0.225-0.382 0.249-0.68 0.285-3.464l0.039-3.046h0.969v2.682c0 3-0.133 3.841-0.725 4.58-0.566 0.707-1.171 0.981-2.168 0.98-0.576-0.001-1.029-0.077-1.366-0.23zM0.007 7.969c0.069-0.186 0.4-1.212 1.632-5.046l0.939-2.923h1.194l0.386 1.2c1.108 3.448 2.138 6.633 2.188 6.769 0.040 0.107-0.094 0.154-0.438 0.154h-0.495l-0.841-2.523-1.427-0.035c-1.28-0.031-1.433-0.012-1.49 0.185-0.035 0.121-0.212 0.704-0.393 1.296l-0.33 1.077h-0.491c-0.341 0-0.474-0.047-0.434-0.154zM3.838 3.112c-0.296-0.928-0.539-1.784-0.539-1.9 0-0.392-0.225-0.356-0.312 0.049-0.047 0.221-0.301 1.082-0.564 1.915s-0.478 1.539-0.478 1.569c0 0.031 0.547 0.056 1.216 0.056h1.216l-0.539-1.688zM20.662 6.215c0.609-1.050 1.138-1.987 1.174-2.083 0.051-0.133-0.948-2.029-2.128-4.039-0.030-0.051 0.195-0.092 0.499-0.092h0.553l1.771 3.352 1.753-3.349 0.523-0.001c0.288-0.001 0.523 0.027 0.523 0.062s-0.498 0.898-1.108 1.92c-0.609 1.021-1.108 1.901-1.108 1.956 0 0.087 1.445 2.67 2.117 3.784l0.241 0.4h-1.098l-1.911-3.473-1.829 3.473h-1.081l1.108-1.909z"></path>
</svg>
