<!-- Generated by IcoMoon.io -->
<svg version="1.1" xmlns="http://www.w3.org/2000/svg" width="23" height="32" viewBox="0 0 23 32">
<title>charg66</title>
<path d="M2.056 31.845c-0.86-0.316-1.579-1.047-1.886-1.917-0.233-0.662-0.223-7.814 0.012-8.505 0.225-0.66 0.945-1.434 1.616-1.737l0.546-0.247h18.82l0.587 0.288c0.637 0.313 1.088 0.762 1.454 1.446 0.228 0.427 0.234 0.518 0.264 4.297 0.037 4.623 0.027 4.681-0.891 5.598-1 0.999-0.237 0.934-10.868 0.926-7.633-0.006-9.331-0.033-9.653-0.151zM21.74 30.357l0.302-0.302v-8.69l-0.499-0.58-9.651-0.028c-7.274-0.021-9.725 0.003-9.948 0.095-0.559 0.231-0.582 0.419-0.582 4.834 0 2.564 0.040 4.135 0.109 4.32 0.060 0.16 0.211 0.372 0.336 0.47 0.212 0.166 0.896 0.179 9.929 0.181l9.702 0.002 0.302-0.302zM6.118 27.712v-0.569h3.412v1.137h-3.412v-0.569zM13.977 27.712v-0.569h3.309v1.137h-3.309v-0.569zM3.636 24.523c0-0.905 0.029-1.096 0.189-1.241 0.172-0.156 0.873-0.171 7.946-0.171 7.383 0 7.765 0.009 7.928 0.189 0.136 0.15 0.171 0.407 0.171 1.241v1.052h-16.234v-1.070zM1.982 12.383c-0.291-0.103-0.681-0.38-1.042-0.742-0.922-0.923-0.923-0.931-0.923-5.43l0-3.833 0.294-0.62c0.348-0.735 0.929-1.293 1.629-1.562 0.484-0.187 0.934-0.196 9.865-0.196 9.297 0 9.361 0.001 9.829 0.218 0.66 0.305 1.202 0.812 1.527 1.427l0.278 0.526 0.031 3.861c0.037 4.623 0.027 4.681-0.891 5.598-1 0.999-0.236 0.934-10.868 0.925-8.178-0.007-9.316-0.027-9.727-0.172zM21.558 11.099c0.482-0.257 0.478-0.214 0.481-4.825l0.003-4.377-0.608-0.608-19.448 0.055-0.554 0.554 0.005 4.286c0.003 2.358 0.037 4.385 0.075 4.506 0.17 0.534-0.107 0.52 10.222 0.525 7.105 0.003 9.656-0.027 9.823-0.116zM6.156 8.272l-0.013-0.569h3.388v1.137l-3.361-0-0.013-0.569zM13.977 8.27v-0.571l3.361 0.057 0.063 1.086h-3.423v-0.571zM3.636 5.083c0-0.905 0.029-1.096 0.189-1.241 0.172-0.156 0.873-0.171 7.946-0.171 7.383 0 7.765 0.009 7.928 0.189 0.136 0.15 0.171 0.407 0.171 1.241v1.052h-16.234v-1.070z"></path>
</svg>
