<?xml version="1.0" encoding="UTF-8" standalone="no"?>
<svg
        xmlns:dc="http://purl.org/dc/elements/1.1/"
        xmlns:cc="http://creativecommons.org/ns#"
        xmlns:rdf="http://www.w3.org/1999/02/22-rdf-syntax-ns#"
        xmlns="http://www.w3.org/2000/svg"
        viewBox="0 0 40.225525 47.522144"
        height="47.522144"
        width="40.225525"
        version="1.1"
        id="svg3390">
  <metadata
     id="metadata3396">
    <rdf:RDF>
      <cc:Work
         rdf:about="">
        <dc:format>image/svg+xml</dc:format>
        <dc:type
           rdf:resource="http://purl.org/dc/dcmitype/StillImage" />
        <dc:title></dc:title>
      </cc:Work>
    </rdf:RDF>
  </metadata>
  <defs
     id="defs3394" />
  <path
     id="path3600"
     d="M 9.003846,44.419231 C 5.0409141,40.12382 4.478232,39.551734 2.1,37.4 0.3,35.771429 0,34.357143 0,27.5 c 0,-7.28416 0.1757197,-8 1.963788,-8 1.7978712,0 1.9879696,-0.823759 2.25,-9.75 C 4.4972703,0.09298986 4.5238436,0 7,0 c 2.476156,0 2.50273,0.0929899 2.786212,9.75 0.26203,8.926241 0.452129,9.75 2.25,9.75 C 13.819599,19.5 14,20.214472 14,27.277494 c 0,5.639558 -0.458003,8.431384 -1.666148,10.156252 -1.589048,2.268685 -1.560784,2.464077 0.610784,4.222507 2.958358,2.395532 3.659354,2.330666 6.600819,-0.610798 C 21.897994,38.692915 22,38.054433 22,25.681818 22,13.067398 22.06018,12.712548 24.636364,10.136364 28.264971,6.5077564 33.356224,6.8865614 36.984831,10.515169 41.452569,15.933247 40,23.641344 40,30.136364 40,46.833333 39.92321,47.5 38,47.5 c -1.916667,0 -2,-0.666667 -2,-16 0,-14.666667 -0.166667,-16.166667 -2,-18 -2.506434,-2.506434 -3.493566,-2.506434 -6,0 -1.796078,1.796078 -2,3.333333 -2,15.076923 0.530003,7.615173 0.434233,11.633518 -3.193652,15.404735 -3.81597,4.554354 -9.841913,4.730444 -13.802502,0.437573 z M 8.8,34.3 c 0.66,-0.66 1.2,-3.81 1.2,-7 0,-5.777778 -0.01149,-5.8 -3,-5.8 -2.9885057,0 -3,0.02222 -3,5.8 0,5.110727 1.1302218,8.2 3,8.2 0.33,0 1.14,-0.54 1.8,-1.2 z M 8,13.5 c 0,-3.333333 -0.444444,-6 -1,-6 -0.555556,0 -1,2.666667 -1,6 0,3.333333 0.444444,6 1,6 0.555556,0 1,-2.666667 1,-6 z M 8,4 C 8,3.175 7.55,2.5 7,2.5 6.45,2.5 6,3.175 6,4 6,4.825 6.45,5.5 7,5.5 7.55,5.5 8,4.825 8,4 Z"
     style="fill:#000000" />
</svg>
