<?xml version="1.0" encoding="UTF-8" standalone="no"?>
<svg
        xmlns:dc="http://purl.org/dc/elements/1.1/"
        xmlns:cc="http://creativecommons.org/ns#"
        xmlns:rdf="http://www.w3.org/1999/02/22-rdf-syntax-ns#"
        xmlns="http://www.w3.org/2000/svg"
        viewBox="0 0 299 299.50067"
        height="299.50067"
        width="299"
        version="1.1"
        id="svg2">
  <metadata
     id="metadata8">
    <rdf:RDF>
      <cc:Work
         rdf:about="">
        <dc:format>image/svg+xml</dc:format>
        <dc:type
           rdf:resource="http://purl.org/dc/dcmitype/StillImage" />
        <dc:title></dc:title>
      </cc:Work>
    </rdf:RDF>
  </metadata>
  <defs
     id="defs6" />
  <path
     id="path3338"
     d="M 21.49353,298.56566 C 14.23495,296.3577 6.53733,289.49395 2.35458,281.5 L 0,277 0,149.5 0,22 2.35458,17.5 C 5.35613,11.763521 11.86363,4.9507236 17,2.1674783 L 21,0 149.5,0 278,0 282,2.1674783 C 287.13638,4.9507236 293.64387,11.763521 296.64542,17.5 L 299,22 l 0,127.5 0,127.5 -2.35338,4.5 c -3.62903,6.93924 -10.79399,13.72437 -16.90843,16.01207 -5.08778,1.90358 -7.88437,1.98793 -65.91163,1.98793 l -60.59841,0 0.63593,-4.63957 c 0.34975,-2.55177 0.63592,-7.71177 0.63592,-11.46667 0,-6.44504 0.19231,-7.01941 3.43653,-10.26362 1.95065,-1.95065 3.69787,-4.88361 4.04097,-6.78333 0.33244,-1.84075 0.4735,-14.37181 0.31347,-27.84681 L 162,214 l -3.25,0.01 -3.25,0.01 0,-15.75966 0,-15.75967 -7,0 -7,0 0,15.43664 0,15.43664 -3.25,0.31336 -3.25,0.31336 -0.2993,25 c -0.32231,26.9223 0.24602,31.43615 4.29183,34.08706 2.63268,1.725 3.09404,3.89034 3.86989,18.16294 l 0.44846,8.25 -59.65544,-0.086 C 50.84495,299.36677 22.87209,298.985 21.49353,298.56566 Z M 155.5,171 l 0,-6.5 -7,0 -7,0 0,6.5 0,6.5 7,0 7,0 0,-6.5 z m 0,-13.89301 c 0,-1.31616 -0.62608,-2.63326 -1.3913,-2.9269 -1.17745,-0.45184 -1.18982,-1.49937 -0.0804,-6.81558 1.22007,-5.84659 1.1732,-6.47502 -0.6768,-9.07309 -2.77058,-3.89094 -7.76787,-3.91159 -10.02185,-0.0414 -1.34888,2.31609 -1.43511,3.76672 -0.54648,9.19363 0.7917,4.83497 0.76324,6.54091 -0.11402,6.83333 -0.64301,0.21434 -1.16912,1.47721 -1.16912,2.80637 0,2.3254 0.26437,2.41667 7,2.41667 6.71654,0 7,-0.0969 7,-2.39301 z m 2.34879,-55.82964 c 2.24445,-0.67245 5.96309,-3.03495 8.26364,-5.249995 6.6119,-6.36616 7.38757,-10.43044 7.38757,-38.708856 l 0,-23.818499 -3.89743,0 -3.89743,0 -0.40328,24.25 c -0.44527,26.77464 -0.91418,29.142388 -6.74261,34.046691 -4.25251,3.578251 -12.34651,3.838387 -16.55002,0.531908 -5.8529,-4.60389 -6.46307,-7.856222 -6.48727,-34.578599 l -0.022,-24.25 -4.5,0 -4.5,0 0,23.818499 c 0,27.43475 0.79606,31.907578 6.82371,38.340381 5.88123,6.27655 15.20178,8.4118 24.52508,5.61847 z M 55.73334,91.00021 59,80.500419 70.16667,80.50021 81.33334,80.5 l 3.4115,10.25 3.4115,10.25 4.67183,0.30479 c 2.56951,0.16764 4.6644,0.16764 4.6553,0 C 97.47447,101.13716 92.59354,85.925 86.63715,67.5 L 75.80736,34 l -5.30689,0 -5.3069,0 -10.82339,33.5 c -5.95287,18.425 -10.83392,33.6125 -10.84679,33.75 -0.0129,0.1375 1.99411,0.25 4.45995,0.25 l 4.48334,0 3.26666,-10.49979 z M 61.5,71.88457 c 0,-0.338487 1.8,-6.245814 4,-13.127393 2.2,-6.881579 4,-13.204636 4,-14.051236 0,-2.940837 0.94044,-0.54455 5.33167,13.585372 L 79.24737,72.5 l -8.87368,0 C 65.49316,72.5 61.5,72.223056 61.5,71.88457 Z m 158.42126,15.376662 7.22803,-13.738767 7.75097,13.988767 7.75098,13.988768 4.95956,0 c 4.41593,0 4.85621,-0.19183 4.01668,-1.75 -0.51859,-0.9625 -4.99999,-8.8226 -9.95867,-17.466889 l -9.01579,-15.716888 8.95009,-15.020631 c 4.92254,-8.261347 9.22164,-15.728293 9.55354,-16.593214 0.50665,-1.32032 -0.17347,-1.522839 -4.2398,-1.262481 -5.37868,0.344385 -5.06872,-0.04896 -15.41912,19.566936 L 227.66864,60.513665 220.53998,47.006833 213.41133,33.5 l -5.02571,0 -5.02571,0 4.26913,7.75 c 2.34802,4.2625 6.49146,11.575 9.20764,16.25 2.71618,4.675 4.93702,8.95 4.9352,9.5 -0.003,0.850496 -11.07914,20.655441 -17.50869,31.306295 l -1.99589,3.306295 5.21297,-0.3063 5.21297,-0.30629 7.22802,-13.738768 z"
     style="fill:#000000" />
</svg>
