<?xml version="1.0" encoding="UTF-8" standalone="no"?>
<svg
        xmlns:dc="http://purl.org/dc/elements/1.1/"
        xmlns:cc="http://creativecommons.org/ns#"
        xmlns:rdf="http://www.w3.org/1999/02/22-rdf-syntax-ns#"
        xmlns="http://www.w3.org/2000/svg"
        viewBox="0 0 358.80716 472.25949"
        height="472.25949"
        width="358.80716"
        version="1.1"
        id="svg2">
  <metadata
     id="metadata8">
    <rdf:RDF>
      <cc:Work
         rdf:about="">
        <dc:format>image/svg+xml</dc:format>
        <dc:type
           rdf:resource="http://purl.org/dc/dcmitype/StillImage" />
        <dc:title></dc:title>
      </cc:Work>
    </rdf:RDF>
  </metadata>
  <defs
     id="defs6" />
  <path
     id="path3338"
     d="M 167.38622,472.00394 C 115.18719,466.32808 71.547466,436.47547 39.258526,384.35564 1.5789455,323.53442 -9.9801947,239.04055 8.9509355,162.8162 27.050236,89.941163 71.842736,32.362108 127.68527,10.187744 c 83.05229,-32.97902 171.58174,16.186325 211.48163,117.447546 21.75055,55.20034 25.63566,121.49929 10.65459,181.81909 -21.19843,85.35341 -79.15916,148.94309 -146.43527,160.65657 -9.30708,1.62046 -28.9886,2.65537 -36,1.89299 z m 105.26538,-95.3647 c 2.32113,-2.16246 3.59344,-6.97404 3.06628,-11.59602 l -0.33166,-2.90793 -8.25,-0.29044 -8.25,-0.29044 0,5.0901 c 0,5.19408 1.94563,10.4028 4.22896,11.32149 2.95764,1.18999 7.51567,0.55586 9.53642,-1.32676 z m -131.26538,-9.05118 c 18.17016,-2.61548 33.59663,-15.71315 39.53907,-33.57018 l 2.21293,-6.64987 0.124,-92.63518 0.124,-92.63518 3.31869,-6.74343 c 10.30732,-20.944 33.84192,-28.98875 54.78631,-18.72741 11.01109,5.39469 20.39211,18.44305 21.94566,30.52491 l 0.64503,5.01642 -4.47037,1.19564 c -6.38897,1.70879 -12.6569,6.88362 -15.93258,13.15398 l -2.79274,5.34591 0,41.38581 0,41.38581 26.5,0 26.5,0 -0.0439,-40.75 c -0.0334,-31.00638 -0.35769,-41.62862 -1.35623,-44.42457 -2.16245,-6.05488 -7.1941,-11.48494 -13.39197,-14.45232 -3.13935,-1.50305 -5.79587,-2.77734 -5.90338,-2.83177 -0.10752,-0.0544 -0.69485,-3.23599 -1.3052,-7.07015 -3.85757,-24.23311 -24.01699,-41.47119 -48.49932,-41.47119 -21.50268,0 -38.94764,12.2474 -46.85335,32.89385 l -2.14665,5.60615 0.31676,90 c 0.22426,63.71901 -0.009,91.44674 -0.80004,94.95441 -4.72008,20.93937 -25.33449,35.29548 -45.67813,31.81077 -17.62944,-3.0198 -32.029494,-17.41621 -33.991584,-33.98301 l -0.59071,-4.98759 3.99652,-0.63906 c 5.703594,-0.91204 13.161574,-6.29901 16.718044,-12.07559 l 3.02914,-4.92006 0.28118,-42.32994 0.28118,-42.32993 -26.531184,0 -26.53118,0 0.0439,40.75 c 0.0334,31.00638 0.35768,41.62862 1.35623,44.42457 2.07908,5.82147 7.21354,11.48932 12.95098,14.29638 l 5.26693,2.57687 1.24881,7.43209 c 3.46216,20.60445 19.929424,36.98756 40.661444,40.45365 6.88535,1.15113 7.10614,1.15142 14.97172,0.0192 z m 134.5,-19.95277 0,-10 -8.5,0 -8.5,0 0,10 0,10 8.5,0 8.5,0 0,-10 z m 0,-45 0,-28 9,0 9,0 0,-6.5 0,-6.5 -26.5,0 -26.5,0 0,6.5 0,6.5 9,0 9,0 0,28 0,28 8.5,0 8.5,0 0,-28 z m -158,-98.5 0,-6.5 -9,0 -9.000004,0 0,-28 0,-28 -8.5,0 -8.5,0 0,28 0,28 -9,0 -9,0 0,6.5 0,6.5 26.5,0 26.500004,0 0,-6.5 z m -18.000004,-79.5 0,-10 -8.5,0 -8.5,0 0,10 0,10 8.5,0 8.5,0 0,-10 z m 0,-19.04966 c 0,-5.45772 -1.95703,-10.33613 -4.54481,-11.329155 -6.12188,-2.349189 -11.36772,1.423121 -12.19583,8.770095 -0.81998,7.27489 -0.43787,7.60872 8.70925,7.60872 l 8.03139,0 0,-5.04966 z"
     style="fill:#161616" />
</svg>
