<?xml version="1.0" encoding="UTF-8" standalone="no"?>
<svg
        xmlns:dc="http://purl.org/dc/elements/1.1/"
        xmlns:cc="http://creativecommons.org/ns#"
        xmlns:rdf="http://www.w3.org/1999/02/22-rdf-syntax-ns#"
        xmlns="http://www.w3.org/2000/svg"
        viewBox="0 0 178.28741 210.53284"
        height="210.53284"
        width="178.28741"
        version="1.1"
        id="svg2">
  <metadata
     id="metadata8">
    <rdf:RDF>
      <cc:Work
         rdf:about="">
        <dc:format>image/svg+xml</dc:format>
        <dc:type
           rdf:resource="http://purl.org/dc/dcmitype/StillImage" />
        <dc:title></dc:title>
      </cc:Work>
    </rdf:RDF>
  </metadata>
  <defs
     id="defs6" />
  <path
     id="path3338"
     d="M 13.214455,206.82665 C 4.5492653,201.33135 0.55860525,194.51945 0.07490525,184.39798 -0.62635475,169.72404 2.5980653,165.41195 53.754395,112.61133 71.595382,94.196878 73.287922,92.065448 72.646802,88.819848 c -0.64326,-3.25644 0.94572,-5.2175 18.35903,-22.658039 14.629958,-14.652841 19.631608,-18.944425 21.507248,-18.453936 1.68134,0.439679 3.97964,-0.860391 7.36505,-4.166157 l 4.92105,-4.805278 6.86679,6.781496 c 3.77674,3.729824 6.8668,7.398599 6.8668,8.152834 0,0.754235 -1.6875,2.988064 -3.75,4.964064 -2.28741,2.191475 -3.75,4.862664 -3.75,6.848766 0,4.519769 -37.514528,42.017802 -40.781908,40.763982 -1.6301,-0.62552 -7.08745,4.06988 -22.33578,19.21724 -11.098237,11.02476 -20.994377,20.04501 -21.991417,20.04501 -2.22476,0 -24.6949,22.53264 -29.15583,29.23694 -4.663,7.00797 -4.30879,12.06133 1.18344,16.88357 2.43017,2.13371 5.72825,3.87949 7.32906,3.87949 1.60081,0 7.90936,-3.29289 14.019,-7.31751 6.10964,-4.02464 13.0205,-7.96214 15.35747,-8.75 5.715137,-1.92677 13.084697,-1.80647 17.978617,0.29346 3.90214,1.67436 13.14993,10.26315 12.06191,11.20236 -0.29676,0.25618 -3.0047,2.2262 -6.01765,4.37783 l -5.4781,3.91205 -4.34566,-3.81554 c -2.45933,-2.15931 -5.14479,-3.5089 -6.18664,-3.1091 -1.01254,0.38855 -2.28642,0.70645 -2.830857,0.70645 -0.54443,0 -5.5972,3.13761 -11.22838,6.97246 -5.63117,3.83486 -12.1529,7.77236 -14.49273,8.75 -7.02389,2.93478 -14.31903,2.2697 -20.90286,-1.90564 z M 133.17328,44.529396 c -3.23979,-3.28924 -5.89051,-6.553896 -5.89051,-7.254792 0,-1.613043 7.82717,-9.264772 9.47721,-9.264772 0.67825,0 4.21514,3.01946 7.85975,6.70991 l 6.62657,6.709911 -3.98625,4.540089 c -2.19244,2.49705 -4.93351,4.54009 -6.09125,4.54009 -1.15775,0 -4.75574,-2.691196 -7.99552,-5.980436 z m 12.5,-11.25 c -3.23979,-3.28924 -5.89051,-6.88722 -5.89051,-7.99551 0,-1.10829 2.04304,-3.808887 4.54009,-6.001325 l 4.54008,-3.986252 6.70992,6.626562 c 3.69045,3.644609 6.70991,7.29063 6.70991,8.102271 0,1.543076 -8.14413,9.23469 -9.77799,9.23469 -0.51755,0 -3.59172,-2.691196 -6.8315,-5.980436 z m 11.25,-12.5 c -6.50721,-6.606547 -7.03077,-7.769564 -3.49772,-7.769564 1.52525,0 3.78706,-2.266014 6.23843,-6.25 3.52582,-5.730164 4.2625,-6.26559503 8.85723,-6.43750003 2.75635,-0.103125 5.65337,-0.24375 6.43781,-0.3125 2.67609,-0.234535 3.93283,3.74831903 3.04689,9.65615903 -0.78231,5.216843 -1.45465,6.167142 -6.42346,9.07906 -3.48589,2.042871 -5.54969,4.137855 -5.54969,5.633558 0,3.881994 -2.84983,2.75601 -9.10949,-3.599213 z"
     style="fill:#050505" />
</svg>
