<?xml version="1.0" encoding="UTF-8" standalone="no"?>
<svg
        xmlns:dc="http://purl.org/dc/elements/1.1/"
        xmlns:cc="http://creativecommons.org/ns#"
        xmlns:rdf="http://www.w3.org/1999/02/22-rdf-syntax-ns#"
        xmlns="http://www.w3.org/2000/svg"
        viewBox="0 0 187.55997 207.31145"
        height="207.31145"
        width="187.55997"
        version="1.1"
        id="svg2">
  <metadata
     id="metadata8">
    <rdf:RDF>
      <cc:Work
         rdf:about="">
        <dc:format>image/svg+xml</dc:format>
        <dc:type
           rdf:resource="http://purl.org/dc/dcmitype/StillImage" />
        <dc:title></dc:title>
      </cc:Work>
    </rdf:RDF>
  </metadata>
  <defs
     id="defs6" />
  <path
     id="path3338"
     d="M 67.803387,205.9876 C 60.766,204.41838 52.08533,196.20873 50.19753,189.33704 c -0.93219,-3.39321 -1.37736,-31.11037 -1.38526,-86.25 -0.0112,-78.322214 -0.0994,-81.393932 -2.44719,-85.244408 -3.44602,-5.651631 -10.54859,-7.700035 -16.65369,-4.802978 -6.14529,2.916131 -8.40142,8.243879 -8.40142,19.839566 0,8.312882 0.29216,9.507083 2.4971,10.206901 3.08622,0.979528 4.58167,6.246157 2.48943,8.767155 -2.17244,2.617628 -19.0506202,2.617628 -21.2230602,0 -2.09224,-2.520998 -0.59678,-7.787627 2.48944,-8.767155 2.25968,-0.717195 2.4970902,-1.894864 2.4970902,-12.386707 0,-9.725123 0.46886,-12.482256 2.90847,-17.103265 9.55214,-18.0932997 35.36778,-17.9641607 44.64635,0.223336 2.35221,4.61072 2.44545,7.872364 2.45215,85.780257 0.005,52.988838 0.46323,82.630308 1.32671,85.739818 1.49554,5.3856 7.113947,9.61023 12.790897,9.6178 4.38127,0.006 10.22751,-2.94527 11.66144,-5.88658 0.59894,-1.22857 1.37023,-40.20249 1.71398,-86.60874 0.68638,-92.6615997 0.241,-87.566555 8.3259,-95.2461857 12.635163,-12.001791 32.043623,-8.597206 39.807543,6.9829357 l 3.11656,6.254115 0,82.336745 c 0,58.17965 0.40966,83.1378 1.3963,85.06706 4.07616,7.97052 14.45955,9.656 21.38196,3.47083 3.846,-3.43639 4.09244,-4.17906 4.52143,-13.62555 0.42021,-9.25311 0.25992,-10.05256 -2.17008,-10.82381 -3.19191,-1.01308 -4.74514,-6.24209 -2.61613,-8.80738 1.10584,-1.33246 4.11042,-1.85876 10.61152,-1.85876 6.5011,0 9.50567,0.5263 10.61152,1.85876 2.09225,2.521 0.59679,7.78764 -2.48942,8.76716 -2.22594,0.70649 -2.4971,1.89431 -2.4971,10.93866 0,7.81866 -0.61481,11.41613 -2.68014,15.68253 -3.00016,6.19752 -11.14186,12.18411 -18.42957,13.55129 -9.19437,1.72487 -21.56398,-4.16869 -26.0791,-12.42551 -2.00218,-3.66139 -2.23879,-11.11835 -2.81119,-88.59475 -0.61585,-83.358477 -0.66324,-84.648512 -3.23741,-88.125 -4.05478,-5.476059 -8.63514,-7.236845 -14.36199,-5.521039 -2.62156,0.78544 -5.92166,2.896643 -7.33354,4.691562 -2.52955,3.215801 -2.56716,4.452818 -2.57403,84.657407 -0.004,50.67019 -0.481103,83.10087 -1.263073,85.91597 -3.81629,13.7389 -16.9252,21.51396 -30.98654,18.37852 z M 12.24747,193.61191 c -4.4495702,-2.59163 -1.91196,-9.89987 3.4375,-9.89987 5.49091,0 7.89065,7.4495 3.20718,9.95602 -2.95415,1.58102 -3.8468,1.57347 -6.64468,-0.0561 z m -0.6875,-16.39987 c -4.4678902,-4.46789 0.91068,-11.33106 6.78312,-8.6554 5.26543,2.39909 3.23526,10.1554 -2.65812,10.1554 -1.44375,0 -3.3,-0.675 -4.125,-1.5 z m 0.6875,-14.85013 c -1.7513,-1.02003 -2.1875,-3.00651 -2.1875,-9.96198 0,-8.68198 -0.002,-8.68789 -3.5000002,-8.68789 -1.925,0 -4.175,-0.675 -5,-1.5 -1.94625002,-1.94625 -2.13496002,-62.477908 -0.20602,-66.082176 1.14546,-2.14031 2.71341,-2.41782 13.6607202,-2.41782 9.57582,0 12.81003,0.4433 14.33102,1.96429 1.6819,1.6819 1.96428,6.497828 1.96428,33.499996 0,33.91955 -0.11597,34.53571 -6.5,34.53571 -3.49831,0 -3.5,0.004 -3.5,8.70602 0,7.32807 -0.38268,8.91083 -2.41782,10 -2.95415,1.58102 -3.8468,1.57347 -6.64468,-0.0561 z m 145.5625,-12.64987 c -2.07609,-2.07609 -1.87511,-5.44631 0.46429,-7.78571 1.50581,-1.50581 4.69426,-1.96429 13.66071,-1.96429 12.25555,0 15.625,1.31313 15.625,6.08929 0,4.27973 -2.66733,5.16071 -15.625,5.16071 -8.15278,0 -13.15635,-0.53135 -14.125,-1.5 z m 0.46429,-15.46429 c -1.6819,-1.6819 -1.96429,-6.49784 -1.96429,-33.5 0,-33.919538 0.11597,-34.535706 6.5,-34.535706 l 3.5,0 0,-8.776799 c 0,-8.02416 0.25442,-8.89272 2.96689,-10.128601 2.15362,-0.981261 3.69548,-0.96186 5.625,0.07077 2.32021,1.241749 2.65811,2.52928 2.65811,10.128605 0,8.701831 0.002,8.70602 3.5,8.70602 6.38403,0 6.5,0.616168 6.5,34.535701 0,27.00216 -0.28239,31.8181 -1.96429,33.5 -1.50581,1.50581 -4.69426,1.96429 -13.66071,1.96429 -8.96645,0 -12.1549,-0.45848 -13.66071,-1.96429 z M 2.0242598,67.997758 c -2.77304002,-2.773036 -2.43770002,-6.31236 0.81384,-8.589834 1.95623,-1.370193 5.75697,-1.94588 12.8468702,-1.94588 10.83836,0 15.625,1.90902 15.625,6.231594 0,4.963261 -3.25328,6.268406 -15.625,6.268406 -8.9664502,0 -12.1549002,-0.45847 -13.6607102,-1.964286 z M 168.49747,41.11192 c -4.44958,-2.59164 -1.91196,-9.899876 3.4375,-9.899876 5.49091,0 7.89065,7.449503 3.20717,9.95602 -2.95414,1.581014 -3.8468,1.573471 -6.64467,-0.05614 z m -0.8804,-16.706073 c -3.90549,-4.705829 1.10921,-11.022295 6.72082,-8.465475 5.54972,2.52862 3.66525,10.271672 -2.49987,10.271672 -1.49706,0 -3.39649,-0.812789 -4.22095,-1.806197 z"
     style="fill:#050505" />
</svg>
