<?xml version="1.0" encoding="utf-8"?><!DOCTYPE svg PUBLIC "-//W3C//DTD SVG 1.1//EN" "http://www.w3.org/Graphics/SVG/1.1/DTD/svg11.dtd">
<svg version="1.1" xmlns="http://www.w3.org/2000/svg"
     width="24" height="24" viewBox="0 0 24 24" data-tags="bluetooth"><g fill="#444" transform="scale(0.0234375 0.0234375)"><path d="M571.733 512l204.8-204.8c17.067-17.067 17.067-42.667 0-59.733l-234.667-234.667c-12.8-12.8-29.867-17.067-46.933-8.533-17.067 4.267-25.6 21.333-25.6 38.4v366.933l-162.133-162.133c-17.067-17.067-42.667-17.067-59.733 0s-17.067 42.667 0 59.733l204.8 204.8-204.8 204.8c-17.067 17.067-17.067 42.667 0 59.733s42.667 17.067 59.733 0l162.133-162.133v366.933c0 17.067 8.533 34.133 25.6 38.4 4.267 4.267 12.8 4.267 17.067 4.267 12.8 0 21.333-4.267 29.867-12.8l234.667-234.667c17.067-17.067 17.067-42.667 0-59.733l-204.8-204.8zM554.667 145.067l132.267 132.267-132.267 132.267v-264.533zM554.667 878.933v-264.533l132.267 132.267-132.267 132.267z" /></g></svg>