<?xml version="1.0" encoding="utf-8"?><!DOCTYPE svg PUBLIC "-//W3C//DTD SVG 1.1//EN" "http://www.w3.org/Graphics/SVG/1.1/DTD/svg11.dtd">
<svg version="1.1" xmlns="http://www.w3.org/2000/svg"
     width="24" height="28" viewBox="0 0 24 28" data-code="62099" data-tags="bluetooth"><g fill="#444" transform="scale(0.02734375 0.02734375)"><path d="M480.571 601.714l84.571 84.571-85.143 85.143zM480 252.571l85.143 85.143-84.571 84.571-0.571-169.714zM405.714 952l265.143-265.143-174.857-174.857 174.857-174.857-265.143-265.143v349.143l-145.714-145.714-53.143 53.143 182.857 183.429-182.857 183.429 53.143 53.143 145.714-145.714v349.143zM816.571 512c0 405.714-154.286 512-377.714 512v0c-223.429 0-377.714-106.286-377.714-512s154.286-512 377.714-512 377.714 106.286 377.714 512z" /></g></svg>