<?xml version="1.0" encoding="UTF-8" standalone="no"?>
<svg
        xmlns:dc="http://purl.org/dc/elements/1.1/"
        xmlns:cc="http://creativecommons.org/ns#"
        xmlns:rdf="http://www.w3.org/1999/02/22-rdf-syntax-ns#"
        xmlns="http://www.w3.org/2000/svg"
        viewBox="0 0 358.72906 472.03159"
        height="472.03159"
        width="358.72906"
        version="1.1"
        id="svg2">
  <metadata
     id="metadata8">
    <rdf:RDF>
      <cc:Work
         rdf:about="">
        <dc:format>image/svg+xml</dc:format>
        <dc:type
           rdf:resource="http://purl.org/dc/dcmitype/StillImage" />
        <dc:title></dc:title>
      </cc:Work>
    </rdf:RDF>
  </metadata>
  <defs
     id="defs6" />
  <path
     id="path3338"
     d="M 163.75014,471.3365 C 78.439829,461.50648 11.036009,375.4743 0.82585926,263.38493 c -1.66333003,-18.26041 -0.70852,-53.386 1.91758004,-70.54351 6.7570396,-44.14697 20.1841597,-80.06405 42.2435297,-113 C 73.637869,37.063914 112.7709,9.5413866 156.15576,1.6556421 c 12.29676,-2.23509068 35.05082,-2.20230448 47.72356,0.068765 32.9193,5.8994325 65.57547,24.9330239 90.86119,52.9582839 48.56113,53.822379 71.83585,136.356419 61.6224,218.517749 -11.52449,92.70771 -64.30486,168.4126 -133.55527,191.5634 -18.08565,6.04613 -41.25178,8.62435 -59.0575,6.57266 z M 175.632,318.37058 202.68998,289.89973 183.97087,270.37058 c -10.29552,-10.74104 -22.12522,-23.12916 -26.28824,-27.52916 l -7.56911,-8 25.8389,-27 c 14.21139,-14.85 25.8587,-27.29143 25.8829,-27.64762 0.0242,-0.3562 -16.4935,-17.85285 -36.706,-38.88146 l -36.75,-38.23384 -0.25866,54.23772 -0.25867,54.23771 -13.71971,-14.35625 c -7.54585,-7.89594 -17.199741,-17.95626 -21.453091,-22.35626 l -7.73338,-8 -6.03824,5.9687 c -3.32104,3.28278 -6.03825,6.60048 -6.03825,7.37267 0,0.77218 9.53927,11.36127 21.19838,23.5313 11.659121,12.17003 23.146651,24.18051 25.527861,26.68996 l 4.32947,4.56263 -26.014051,27.27363 -26.01405,27.27364 6.22814,6.95632 6.22814,6.95631 9.52861,-9.79258 c 5.240738,-5.38592 15.031871,-15.54746 21.758061,-22.58121 l 12.22944,-12.78862 0,55.1728 0,55.17281 10.34735,-10.88418 c 5.69104,-5.9863 22.52344,-23.69606 37.40533,-39.35502 z m -29.57346,-13.02916 c 0.047,-9.075 0.36342,-23.3883 0.70313,-31.80734 l 0.61765,-15.30733 14.25,15.51068 c 7.8375,8.53088 14.23882,15.86918 14.22515,16.30734 -0.0137,0.43816 -6.74258,7.77165 -14.95314,16.29665 l -14.92828,15.5 0.0855,-16.5 z m -0.15437,-124.83333 c -0.0137,-17.23334 0.31516,-31.18334 0.73073,-31 1.25661,0.55436 29.248,29.95854 29.19755,30.67122 -0.0258,0.36416 -6.76459,7.63711 -14.97514,16.16211 l -14.92828,15.5 -0.0249,-31.33333 z m 136.74425,137.08333 c 18.44683,-20.83928 29.45434,-43.38344 33.76247,-69.14793 2.29351,-13.71623 1.60553,-38.78164 -1.39155,-50.69812 -5.96216,-23.70568 -16.6526,-44.0424 -31.68982,-60.28439 -3.11609,-3.36576 -6.20083,-6.11956 -6.85497,-6.11956 -0.65413,0 -2.92044,1.77281 -5.03623,3.93958 l -3.84691,3.93959 6.24404,6.81041 c 14.92236,16.27593 24.92052,35.90333 29.70322,58.31042 2.47212,11.58194 2.43519,34.23175 -0.075,46 -4.65559,21.82629 -15.28189,42.30142 -29.9932,57.79198 l -6.92515,7.29198 4.37521,4.45802 c 2.40637,2.45191 4.68518,4.45802 5.06402,4.45802 0.37885,0 3.37759,-3.0375 6.66388,-6.75 z m -17.64799,-33.02254 c 6.44753,-9.32251 12.11922,-21.46083 15.05844,-32.22746 2.03,-7.43607 2.31328,-10.69044 2.26315,-26 -0.0527,-16.10543 -0.27493,-18.2172 -2.78818,-26.5 -1.50198,-4.95 -4.72703,-13.05 -7.16678,-18 -4.23684,-8.59611 -16.12654,-25.04043 -18.8646,-26.09112 -1.11057,-0.42617 -9.62314,6.92644 -9.62314,8.31184 0,0.26698 2.01243,2.72373 4.47207,5.45944 14.32607,15.93403 21.62818,35.5283 21.60775,57.98161 -0.02,22.03641 -7.01102,40.18138 -22.40323,58.14736 l -4.97694,5.80914 4.36032,4.44283 4.36031,4.44284 4.33554,-4.25197 c 2.38455,-2.33858 6.59893,-7.52461 9.36529,-11.52451 z m -31.63398,-14.97746 c 9.91893,-12.62822 14.47347,-26.07057 14.49809,-42.7899 0.0254,-17.24144 -5.46944,-31.9025 -17.00701,-45.37742 l -2.06977,-2.41732 -4.91425,4.84036 -4.91425,4.84036 3.4307,3.79738 c 10.29995,11.40081 15.01048,31.7571 10.95325,47.33385 -2.22792,8.55359 -4.50946,13.184 -10.18052,20.66158 l -5.035,6.63889 4.11111,4.11111 c 2.26111,2.26111 4.67365,4.11111 5.36119,4.11111 0.68755,0 3.28246,-2.5875 5.76646,-5.75 z"
     style="fill:#151515" />
</svg>
