<?xml version="1.0" encoding="utf-8"?><!DOCTYPE svg PUBLIC "-//W3C//DTD SVG 1.1//EN" "http://www.w3.org/Graphics/SVG/1.1/DTD/svg11.dtd">
<svg version="1.1" xmlns="http://www.w3.org/2000/svg"
     width="48" height="48" viewBox="0 0 48 48" data-tags="phone,cellular"><g fill="#444" transform="scale(0.046875 0.046875)"><path d="M149.334 938.666c0 47.146 38.186 85.334 85.334 85.334h533.334c47.146 0 85.334-38.186 85.334-85.334l-0.002-885.332c0-29.44-23.894-53.334-53.334-53.334s-53.334 23.894-53.334 53.334v53.332h-512c-47.146 0-85.332 38.188-85.332 85.334v746.666zM302.934 213.334h396.8c26.026 0 46.934 20.906 46.934 46.934v226.134c0 26.026-20.906 46.934-46.934 46.934l-396.8-0.002c-26.026 0-46.934-20.906-46.934-46.934v-226.134c0-26.026 20.906-46.932 46.934-46.932zM256 672c0-29.44 23.894-53.334 53.334-53.334s53.334 23.894 53.334 53.334-23.894 53.334-53.334 53.334-53.334-23.894-53.334-53.334zM448 672c0-29.44 23.894-53.334 53.334-53.334s53.334 23.894 53.334 53.334-23.894 53.334-53.334 53.334-53.334-23.894-53.334-53.334zM640 672c0-29.44 23.894-53.334 53.334-53.334s53.334 23.894 53.334 53.334-23.894 53.334-53.334 53.334-53.334-23.894-53.334-53.334zM256 864c0-29.44 23.894-53.334 53.334-53.334s53.334 23.894 53.334 53.334-23.894 53.334-53.334 53.334-53.334-23.894-53.334-53.334zM448 864c0-29.44 23.894-53.334 53.334-53.334s53.334 23.894 53.334 53.334-23.894 53.334-53.334 53.334-53.334-23.894-53.334-53.334zM640 864c0-29.44 23.894-53.334 53.334-53.334s53.334 23.894 53.334 53.334-23.894 53.334-53.334 53.334-53.334-23.894-53.334-53.334z" /></g></svg>