<?xml version="1.0" encoding="utf-8"?><!DOCTYPE svg PUBLIC "-//W3C//DTD SVG 1.1//EN" "http://www.w3.org/Graphics/SVG/1.1/DTD/svg11.dtd">
<svg version="1.1" xmlns="http://www.w3.org/2000/svg"
     width="22" height="28" viewBox="0 0 22 28" data-code="62112" data-tags="volume-control-phone"><g fill="#444" transform="scale(0.02734375 0.02734375)"><path d="M352.571 965.143c0-13.714-30.286-110.857-36.571-133.714-3.429-14.286-4.571-37.714-15.429-48-7.429-6.857-19.429-8-29.143-8-26.857 0-53.714 6.286-80.571 6.286-8 0-20-0.571-26.857-6.286-9.143-7.429-13.714-33.143-17.143-44.571-13.714-47.429-21.143-96-21.143-145.714s7.429-98.286 21.143-145.714c3.429-11.429 8-37.143 17.143-44.571 6.857-5.714 18.857-6.286 26.857-6.286 26.857 0 53.714 6.286 80.571 6.286 9.714 0 21.714-1.143 29.143-8 10.857-10.286 12-33.714 15.429-48 6.286-22.857 36.571-120 36.571-133.714 0-19.429-51.429-48-68-54.286-8.571-3.429-17.143-4.571-25.714-4.571-18.857 0-37.714 5.143-56 10.286-93.714 28-116 85.143-153.143 165.714-40 86.286-49.714 168.571-49.714 262.857s9.714 176.571 49.714 262.857c37.143 80.571 59.429 137.714 153.143 165.714 18.286 5.143 37.143 10.286 56 10.286 8.571 0 17.143-1.143 25.714-4.571 16.571-6.286 68-34.857 68-54.286zM443.429 443.429c-9.714 0-18.857-4-25.714-10.857-14.286-14.286-14.857-37.714 0-52 13.714-13.714 21.143-32 21.143-51.429s-7.429-37.714-21.143-52c-14.857-14.286-14.286-37.143 0-51.429s37.143-14.286 51.429 0c27.429 27.429 42.857 64.571 42.857 103.429s-15.429 76-42.857 103.429c-7.429 6.857-16.571 10.857-25.714 10.857zM546.857 546.857c-9.714 0-18.857-3.429-25.714-10.857-14.286-14.286-14.286-37.143 0-51.429 41.143-41.714 64-96.571 64-155.429s-22.857-113.714-64-155.429c-14.286-14.286-14.286-37.143 0-51.429s37.143-14.286 51.429 0c55.429 55.429 85.714 128.571 85.714 206.857s-30.286 151.429-85.714 206.857c-6.857 7.429-16.571 10.857-25.714 10.857zM650.286 650.286c-9.714 0-18.857-3.429-25.714-10.857-14.286-14.286-14.286-37.143 0-51.429 68.571-69.143 106.857-161.143 106.857-258.857s-38.286-189.714-106.857-258.857c-14.286-14.286-14.286-37.143 0-51.429s37.143-14.286 51.429 0c82.857 82.857 128.571 193.143 128.571 310.286s-45.714 227.429-128.571 310.286c-6.857 7.429-16.571 10.857-25.714 10.857z" /></g></svg>