<?xml version="1.0" encoding="utf-8"?><!DOCTYPE svg PUBLIC "-//W3C//DTD SVG 1.1//EN" "http://www.w3.org/Graphics/SVG/1.1/DTD/svg11.dtd">
<svg version="1.1" xmlns="http://www.w3.org/2000/svg"
     width="24" height="24" viewBox="0 0 24 24" data-tags="phone"><g fill="#444" transform="scale(0.0234375 0.0234375)"><path d="M570.624 302.208l158.336-158.293-18.688-18.517c-24.149-24.149-66.347-24.149-90.496 0l-67.669 67.669c-12.117 12.117-18.773 28.203-18.773 45.269s6.656 33.152 18.688 45.227l18.603 18.645z" /><path d="M283.563 552.064c-24.149-24.149-66.347-24.149-90.496 0l-67.669 67.669c-12.075 12.117-18.731 28.203-18.731 45.269s6.656 33.152 18.816 45.312l18.645 18.432 157.995-157.995-18.56-18.688z" /><path d="M786.645 201.771l-15.104-15.104-158.208 158.208 27.733 27.691c4.053 4.053 6.229 9.387 6.229 15.104s-2.219 11.051-6.229 15.104l-238.336 238.336c-8.064 8.021-22.101 8.064-30.165 0l-27.733-27.733-157.952 158.293 15.104 15.104c11.093 11.093 53.163 47.147 130.389 47.147 68.949 0 181.589-30.379 326.4-175.147 288.981-289.067 134.741-450.133 127.872-457.003z" /></g></svg>