<?xml version="1.0" encoding="UTF-8" standalone="no"?>
<svg
        xmlns:dc="http://purl.org/dc/elements/1.1/"
        xmlns:cc="http://creativecommons.org/ns#"
        xmlns:rdf="http://www.w3.org/1999/02/22-rdf-syntax-ns#"
        xmlns="http://www.w3.org/2000/svg"
        viewBox="0 0 59.847298 59.178219"
        height="59.178219"
        width="59.847298"
        version="1.1"
        id="svg2">
  <metadata
     id="metadata8">
    <rdf:RDF>
      <cc:Work
         rdf:about="">
        <dc:format>image/svg+xml</dc:format>
        <dc:type
           rdf:resource="http://purl.org/dc/dcmitype/StillImage" />
        <dc:title></dc:title>
      </cc:Work>
    </rdf:RDF>
  </metadata>
  <defs
     id="defs6" />
  <path
     id="path3338"
     d="M 11.147384,58.509376 C 10.116134,57.816129 7.7943837,57.240313 5.9879337,57.229785 0.83550373,57.199755 -0.46184628,54.52842 0.13369372,45.175555 c 0.45216,-7.101042 1.01227998,-8.717762 3.87272998,-11.178219 4.75121,-4.08682 13.6094603,-5.160378 22.1409603,-2.683332 16.39275,4.759493 29.53392,9.884403 31.5625,12.309024 2.5339,3.028609 2.90609,10.200899 0.625,12.043961 -1.72994,1.397743 -10.90582,2.962264 -16.25,2.770685 -12.46742,-0.446936 -23.25897,-0.246309 -25.9375,0.482205 -1.71875,0.467471 -3.96875,0.282745 -5,-0.410503 z m 7.45016,-3.113683 c 1.94325,-2.341469 1.2645,-5.670748 -1.51266,-7.419676 -4.33112,-2.727539 -9.2082403,3.418633 -5.88767,7.419676 1.93077,2.326426 5.46957,2.326426 7.40033,0 z m 27.5,0 c 1.94325,-2.341469 1.2645,-5.670748 -1.51266,-7.419676 -4.33112,-2.727539 -9.20824,3.418633 -5.88767,7.419676 1.93077,2.326426 5.46957,2.326426 7.40033,0 z M 8.0228037,49.709318 c 1.8589498,-5.857038 10.7882203,-6.2506 13.3677303,-0.589189 1.21147,2.658888 2.24123,3.090515 7.37326,3.090515 4.86835,0 6.11109,-0.459902 6.75901,-2.501326 1.85895,-5.857038 10.78822,-6.2506 13.36773,-0.589189 1.8362,4.030015 6.34695,4.256068 5.78129,0.289724 -0.65603,-4.599911 -6.42659,-6.301519 -24.77074,-7.304319 -9.28329,-0.507479 -18.36774,-1.499273 -20.1876805,-2.203985 -4.2940198,-1.662726 -4.8160198,-0.983406 -4.8160198,6.267429 0,6.152814 1.68901,8.066055 3.12542,3.54034 z M 31.284984,37.773523 c -2.33056,-1.011598 -6.38195,-2.182198 -9.00308,-2.601333 -4.98923,-0.79781 -14.4258003,0.41384 -13.1510603,1.688586 1.3074503,1.307448 9.9161803,2.55974 18.2665403,2.657192 l 8.125,0.09483 -4.2374,-1.839267 z m 4.8624,-7.684925 c -11.92389,-6.140333 -10.89996,-24.1898735 1.64307,-28.9637859 13.14711,-5.0038263 25.69658,7.5456483 20.69276,20.6927579 -3.34546,8.78989 -13.80611,12.663501 -22.33583,8.271028 z m 13.79091,-2.274113 c 3.95019,-2.042722 7.45909,-7.618995 7.45909,-11.853841 0,-4.234847 -3.5089,-9.8111199 -7.45909,-11.8538419 -4.63492,-2.3968102 -7.94691,-2.3968102 -12.58183,0 -3.95019,2.042722 -7.45908,7.6189949 -7.45908,11.8538419 0,4.108817 3.44959,9.756573 7.20321,11.793265 4.42393,2.400396 8.27782,2.418581 12.8377,0.06058 z m -12.53628,-8.723912 c -3.47506,-3.69903 -2.3992,-5.803213 1.26957,-2.483028 2.48901,2.252523 2.6379,2.202182 7.48471,-2.53061 2.71986,-2.655866 5.34231,-4.4317314 5.82768,-3.946363 0.8432,0.843196 -9.27641,12.080072 -10.87896,12.080072 -0.42452,0 -2.09087,-1.404033 -3.703,-3.120071 z"
     style="fill:#4b4b4b" />
</svg>
