<?xml version="1.0" encoding="UTF-8" standalone="no"?>
<svg
        xmlns:dc="http://purl.org/dc/elements/1.1/"
        xmlns:cc="http://creativecommons.org/ns#"
        xmlns:rdf="http://www.w3.org/1999/02/22-rdf-syntax-ns#"
        xmlns="http://www.w3.org/2000/svg"
        viewBox="0 0 45.188725 60.133629"
        height="60.133629"
        width="45.188725"
        version="1.1"
        id="svg2">
  <metadata
     id="metadata8">
    <rdf:RDF>
      <cc:Work
         rdf:about="">
        <dc:format>image/svg+xml</dc:format>
        <dc:type
           rdf:resource="http://purl.org/dc/dcmitype/StillImage" />
        <dc:title></dc:title>
      </cc:Work>
    </rdf:RDF>
  </metadata>
  <defs
     id="defs6" />
  <path
     id="path3338"
     d="M 1.594976,58.558717 C 0.70822598,57.671966 0.09497598,53.407324 0.09497598,48.127452 c 0,-7.343776 0.44437,-9.333409 2.50000002,-11.193735 1.375,-1.244358 2.4999998,-2.672184 2.4999998,-3.172945 0,-0.500763 -1.1249998,-1.204671 -2.4999998,-1.564241 -3.94762,-1.032328 -3.28103002,-7.17181 1.25,-11.512814 3.2945498,-3.156373 3.7499998,-4.444875 3.7499998,-10.608864 0,-3.8588747 0.675,-7.691136 1.5,-8.516136 2.0782902,-2.07828933 32.4217102,-2.07828933 34.5000002,0 2.125,2.1250018 2.125,54.874999 0,57 -2.09988,2.099884 -39.90011,2.099884 -42,0 z m 38.5,-28.5 0,-25 -13.75,0 -13.75,0 0,6.641136 c 0,5.747323 -0.5047,7.124671 -3.7500002,10.233864 -4.4162298,4.231016 -4.5999798,5.111146 -1.25,5.987186 1.78453,0.466665 2.5000002,1.70502 2.5000002,4.327055 0,2.0858 -1.0804202,4.651064 -2.5000002,5.935759 -1.9568,1.770885 -2.5,3.849959 -2.5,9.568735 l 0,7.306265 17.5000002,0 17.5,0 0,-25 z m -25,-16.25 c 0,-2.0625 0.5625,-3.75 1.25,-3.75 0.6875,0 1.25,1.6875 1.25,3.75 0,2.0625 -0.5625,3.75 -1.25,3.75 -0.6875,0 -1.25,-1.6875 -1.25,-3.75 z m 5,-1.25 c 0,-2.7500002 0.5625,-5 1.25,-5 0.6875,0 1.25,2.2499998 1.25,5 0,2.75 -0.5625,5 -1.25,5 -0.6875,0 -1.25,-2.25 -1.25,-5 z m 5,1.25 c 0,-2.0625 0.5625,-3.75 1.25,-3.75 0.6875,0 1.25,1.6875 1.25,3.75 0,2.0625 -0.5625,3.75 -1.25,3.75 -0.6875,0 -1.25,-1.6875 -1.25,-3.75 z m 5,-1.25 c 0,-2.7500002 0.5625,-5 1.25,-5 0.6875,0 1.25,2.2499998 1.25,5 0,2.75 -0.5625,5 -1.25,5 -0.6875,0 -1.25,-2.25 -1.25,-5 z m 5,1.25 c 0,-2.0625 0.5625,-3.75 1.25,-3.75 0.6875,0 1.25,1.6875 1.25,3.75 0,2.0625 -0.5625,3.75 -1.25,3.75 -0.6875,0 -1.25,-1.6875 -1.25,-3.75 z"
     style="fill:#444444" />
</svg>
