<?xml version="1.0" encoding="UTF-8" standalone="no"?>
<svg
        xmlns:dc="http://purl.org/dc/elements/1.1/"
        xmlns:cc="http://creativecommons.org/ns#"
        xmlns:rdf="http://www.w3.org/1999/02/22-rdf-syntax-ns#"
        xmlns="http://www.w3.org/2000/svg"
        viewBox="0 0 195.02878 91.834526"
        height="91.834526"
        width="195.02878"
        version="1.1"
        id="svg2">
  <metadata
     id="metadata8">
    <rdf:RDF>
      <cc:Work
         rdf:about="">
        <dc:format>image/svg+xml</dc:format>
        <dc:type
           rdf:resource="http://purl.org/dc/dcmitype/StillImage" />
        <dc:title></dc:title>
      </cc:Work>
    </rdf:RDF>
  </metadata>
  <defs
     id="defs6" />
  <path
     id="path3338"
     d="m 64.395476,91.280157 -2.13331,-0.41808 1.95933,-5.19574 c 1.07763,-2.85766 2.26262,-5.4621 2.63331,-5.78765 0.37069,-0.32555 5.62397,-0.20661 11.67397,0.2643 11.04499,0.85971 17.5,0.4553 17.5,-1.09638 0,-0.8221 -0.91264,-1.22743 -10.22087,-4.53943 -6.33244,-2.25317 -10.77913,-6.4951 -10.77913,-10.2828 0,-6.8878 7.46738,-9.27489 31.249994,-9.98969 16.25015,-0.4884 17.75,-0.38979 17.75,1.16696 0,0.93524 -0.46583,2.57085 -1.03518,3.63469 -0.94479,1.76535 -2.27648,1.94296 -15.25,2.03394 -21.039594,0.14754 -24.406074,1.79229 -11.714814,5.72349 15.788734,4.89066 18.999994,7.14575 18.999994,13.34265 0,5.44339 -3.80211,9.19709 -10.84581,10.70769 -4.880217,1.04662 -34.988234,1.37659 -39.787484,0.43605 z m 53.649894,0.0693 c 0.009,-0.48335 1.07928,-3.80382 2.37812,-7.37882 2.59618,-7.1459 1.38029,-6.40014 14.62326,-8.96915 6.85011,-1.32886 11.72398,-4.20046 12.15435,-7.16114 0.28839,-1.98392 1.69516,-2.59646 11.73481,-5.10962 l 11.40714,-2.85547 3.59286,2.90151 c 4.89157,3.95031 6.00431,7.34593 3.76803,11.49846 -3.60546,6.69494 -15.28547,12.41033 -30.84668,15.09425 -10.86942,1.87471 -28.83322,3.10919 -28.81189,1.97998 z M 0.7377363,76.346227 c -1.22385,-1.22386 -0.82189,-54.041474 0.44971,-59.091474 C 4.1883663,5.3370105 19.890746,-0.70055846 29.538246,6.3538635 c 1.71755,1.255902 2.42281,1.177397 5.9691,-0.664445 9.03036,-4.69010596 19.68502,-1.798354 25.02143,6.7909935 l 3,4.828722 0,29.580733 0,29.58073 -6.25,0.29772 -6.25,0.29771 -0.0969,-23.29771 c -0.0533,-12.813743 -0.0262,-24.884534 0.0603,-26.823977 0.35525,-7.968377 -4.43637,-12.859541 -9.40714,-9.602571 l -2.52565,1.65487 -0.26531,28.736978 -0.26532,28.73698 -6.75,0.29569 -6.75,0.29569 0,-29.02264 0,-29.02263 -2.61523,-1.713565 c -2.3457,-1.536967 -2.88677,-1.561244 -5.25,-0.235563 l -2.63477,1.478002 -0.5,28.962506 -0.5,28.96251 -6.0410398,0.29229 c -3.3225699,0.16076 -6.3600699,-0.0267 -6.7499999,-0.41666 z M 144.48661,63.902377 c -0.32153,-0.52025 0.23142,-1.24706 1.22878,-1.61514 0.99736,-0.36808 4.68556,-1.88217 8.196,-3.36464 5.93565,-2.50664 10.11738,-2.86785 10.11738,-0.87391 0,0.46465 -1.70782,1.30469 -3.79517,1.86675 -2.08734,0.56207 -6.35279,1.90189 -9.47878,2.97739 -3.34825,1.15196 -5.92382,1.56678 -6.26821,1.00955 z m -12.20784,-2.65518 c -1.7875,-0.22182 -3.25,-0.53266 -3.25,-0.69074 0,-0.15808 0.49402,-1.70456 1.09783,-3.43664 l 1.09782,-3.14922 8.15218,0.0153 c 10.97681,0.0206 12.03389,0.88955 5.88348,4.83626 -4.74959,3.0478 -6.03221,3.28741 -12.98131,2.42503 z m 27.40519,-15.682486 c -7.64358,-2.830198 -11.9409,-8.991223 -11.9409,-17.119516 0,-20.2072755 27.60559,-24.9146305 34.85098,-5.942852 5.43313,14.226448 -8.6059,28.358804 -22.91008,23.062368 z m 10.15625,-12.633065 c 4.137,-3.854206 1.47548,-10.211045 -4.27523,-10.211045 -3.63146,0 -5.53621,2.000921 -5.53621,5.815741 0,5.701579 5.67872,8.245517 9.81144,4.395304 z M 70.278776,45.331201 c -1.56718,-0.661061 -1.74822,-19.561136 -0.21481,-22.426341 0.78428,-1.465439 2.10882,-1.934259 5.46481,-1.934259 5.96936,0 6.63896,1.518161 6.28499,14.249633 l -0.28499,10.250367 -5,0.19393 c -2.75,0.10666 -5.5625,-0.0433 -6.25,-0.33333 z m 27.663567,-0.26358 C 93.776676,43.720266 90.200856,40.99193 88.177566,37.61713 80.807006,25.323176 89.284976,10.970601 103.9175,10.970601 c 5.75581,0 8.11127,1.742359 8.11127,6 0,4.067584 -2.38861,6 -7.41644,6 -2.87019,0 -4.817057,0.600538 -5.928567,1.828741 -3.769077,4.164783 -0.63596,9.171259 5.739487,9.171259 5.48157,0 7.60833,1.480893 7.59021,5.285184 -0.008,1.768149 -0.41046,3.838764 -0.89341,4.601367 -1.0385,1.639819 -9.45887,2.413287 -13.177707,1.210469 z m 19.836427,0.23603 c -1.49336,-0.40935 -1.76699,-1.825483 -1.86588,-9.656374 -0.1863,-14.752778 -0.0479,-16.459337 1.59235,-19.63117 0.85656,-1.656409 2.87742,-3.694269 4.4908,-4.528579 4.25013,-2.1978305 12.81074,-1.9496495 16.80766,0.487271 5.38594,3.283807 6.89489,10.837456 2.71572,13.59456 -2.68205,1.769413 -6.67948,-0.155919 -7.48845,-3.606755 -0.64414,-2.747758 -4.4344,-3.956728 -6.36754,-2.031041 -0.66039,0.657847 -1.34365,6.231534 -1.63466,13.334665 l -0.5,12.204373 -3,0.15637 c -1.65,0.086 -3.7875,-0.0595 -4.75,-0.32332 z M 71.028776,16.970601 c -1.1,-1.1 -2,-2.830256 -2,-3.845012 0,-4.6029095 8.05294,-6.9639515 11.34502,-3.3262475 5.20517,5.7516515 -3.83064,12.6856335 -9.34502,7.1712595 z M 181.19866,5.4699995 c 0.14103,-1.65033 -0.0911,-3.56283 -0.51575,-4.25 -0.55923,-0.90485596 0.14034,-1.24101296 2.53684,-1.21898996 2.73229,0.02511 3.00401,0.20806 1.55902,1.04968996 -0.9625,0.560605 -1.75689,1.784421 -1.76531,2.719591 -0.008,0.935171 -0.47789,2.37531 -1.04326,3.20031 -0.79386,1.158418 -0.96956,0.816699 -0.77154,-1.500601 z m 4.22739,0.9077 c 0.33619,-0.876095 0.88311,-2.676095 1.21539,-4 0.73631,-2.93366796 2.0297,-3.10924596 2.89194,-0.392578 0.35166,1.107986 1.05698,1.756429 1.56739,1.440983 1.25898,-0.778093 1.16636,0.237995 -0.26072,2.860237 l -1.18871,2.184259 -0.72226,-2.5 -0.72225,-2.5 -0.70566,2.25 c -0.38811,1.2375 -1.15132,2.25 -1.69602,2.25 -0.5447,0 -0.71529,-0.716805 -0.3791,-1.592901 z m 7.45272,-0.907099 c -0.0825,-1.375 -0.195,-3.025 -0.25,-3.666667 -0.055,-0.641666 0.4625,-1.35416596 1.15,-1.58333296 0.86395,-0.287982 1.25,0.84444396 1.25,3.66666696 0,4.369174 -1.89894,5.76762 -2.15,1.583333 z"
     style="fill:#0c0c0c" />
</svg>
