<?xml version="1.0" encoding="UTF-8" standalone="no"?>
<svg
        xmlns:dc="http://purl.org/dc/elements/1.1/"
        xmlns:cc="http://creativecommons.org/ns#"
        xmlns:rdf="http://www.w3.org/1999/02/22-rdf-syntax-ns#"
        xmlns="http://www.w3.org/2000/svg"
        viewBox="0 0 250 250"
        height="250"
        width="250"
        version="1.1"
        id="svg2">
  <metadata
     id="metadata8">
    <rdf:RDF>
      <cc:Work
         rdf:about="">
        <dc:format>image/svg+xml</dc:format>
        <dc:type
           rdf:resource="http://purl.org/dc/dcmitype/StillImage" />
        <dc:title></dc:title>
      </cc:Work>
    </rdf:RDF>
  </metadata>
  <defs
     id="defs6" />
  <path
     id="path3338"
     d="m 22.201278,213.20586 c -2.85628,-1.50801 -5.65124,-4.38365 -7.1875,-7.39496 -2.43109,-4.76533 -2.51371,-7.2625 -2.51184,-75.9147 0.002,-79.131828 -0.26333,-76.590158 8.62042,-82.524886 4.15675,-2.776893 4.97531,-2.837416 38.37538,-2.837416 28.07599,0 34.3053,0.312816 35.12765,1.763996 0.54979,0.970199 2.84138,3.782699 5.09243,6.25 3.195552,3.502544 5.045292,4.486004 8.437492,4.486004 l 4.34469,0 0,-6.25 0,-6.25 16.21827,0 16.21828,0 10.30951,9.375 10.3095,9.375 29.53736,0 c 28.62744,0 29.66822,0.08741 33.78473,2.837416 8.78312,5.867514 8.61824,4.468339 8.62041,73.149886 10e-4,59.28483 -0.0931,61.79866 -2.51489,66.54567 -1.61993,3.17535 -4.27485,5.83027 -7.4502,7.4502 -4.82287,2.46045 -7.12532,2.51559 -102.79567,2.46158 -94.964942,-0.0536 -98.000672,-0.1283 -102.536022,-2.52279 z M 223.03571,201.31961 c 1.73142,-1.73141 1.96429,-9.11147 1.96429,-62.25 0,-45.22222 -0.3748,-60.660515 -1.5,-61.785712 -1.08422,-1.084227 -10.00602,-1.504733 -32.1875,-1.517072 l -30.6875,-0.01708 -10,-9.300037 -10,-9.300036 -7.8125,-0.05789 -7.8125,-0.05788 0,6.25 0,6.25 -13.6336,0 -13.633602,0 -5.2328,-6.25 -5.23279,-6.25 -29.63361,0 c -21.38169,0 -30.0513,0.417698 -31.1336,1.5 -1.13078,1.130779 -1.5,18.646825 -1.5,71.160707 0,61.66126 0.22557,69.88629 1.96429,71.625 1.75164,1.75164 12.36472,1.96429 98.035712,1.96429 85.671,0 96.28408,-0.21265 98.03571,-1.96429 z M 193.75,194.5339 l 0,-6.25 12.5,0 12.5,0 0,6.25 0,6.25 -12.5,0 -12.5,0 0,-6.25 z m 0,-16.25 0,-6.25 12.5,0 12.5,0 0,6.25 0,6.25 -12.5,0 -12.5,0 0,-6.25 z m 0,-15 0,-6.25 12.5,0 12.5,0 0,6.25 0,6.25 -12.5,0 -12.5,0 0,-6.25 z m 0,-16.25 0,-6.25 12.5,0 12.5,0 0,6.25 0,6.25 -12.5,0 -12.5,0 0,-6.25 z m 0,-15 0,-6.25 12.5,0 12.5,0 0,6.25 0,6.25 -12.5,0 -12.5,0 0,-6.25 z m 0,-16.25 0,-6.25 12.5,0 12.5,0 0,6.25 0,6.25 -12.5,0 -12.5,0 0,-6.25 z m 0,-15 0,-6.250002 12.5,0 12.5,0 0,6.250002 0,6.25 -12.5,0 -12.5,0 0,-6.25 z m 0,-16.250002 0,-6.25 12.5,0 12.5,0 0,6.25 0,6.25 -12.5,0 -12.5,0 0,-6.25 z"
     style="fill:#040404" />
</svg>
