<?xml version="1.0" encoding="UTF-8" standalone="no"?>
<svg
        xmlns:dc="http://purl.org/dc/elements/1.1/"
        xmlns:cc="http://creativecommons.org/ns#"
        xmlns:rdf="http://www.w3.org/1999/02/22-rdf-syntax-ns#"
        xmlns="http://www.w3.org/2000/svg"
        viewBox="0 0 157.53767 185.59013"
        height="185.59013"
        width="157.53767"
        version="1.1"
        id="svg2">
  <metadata
     id="metadata8">
    <rdf:RDF>
      <cc:Work
         rdf:about="">
        <dc:format>image/svg+xml</dc:format>
        <dc:type
           rdf:resource="http://purl.org/dc/dcmitype/StillImage" />
        <dc:title></dc:title>
      </cc:Work>
    </rdf:RDF>
  </metadata>
  <defs
     id="defs6" />
  <path
     id="path3338"
     d="m 20.031211,184.97128 c -7.28957,-2.26316 -14.5921695,-8.78851 -17.8406995,-15.94184 -2.39145001,-5.26603 -3.07259001,-65.49101 -0.78963,-69.817301 0.81912,-1.55224 5.12249,-6.72016 9.5630495,-11.48425 l 8.07375,-8.66199 0,-28.409869 c 0,-33.142625 0.39741,-35.258798 8.06068,-42.9220624 7.95508,-7.95508797 8.03089,-7.96418797 63.57264,-7.63112397 47.205889,0.283076 47.923759,0.317567 52.001129,2.49841497 5.59349,2.991764 10.26184,7.8427944 12.7774,13.2773994 2.05685,4.443602 2.08815,5.597996 2.08815,77.011221 0,71.413231 -0.0313,72.567621 -2.08815,77.011221 -2.51556,5.43461 -7.18391,10.28564 -12.7774,13.2774 -4.11786,2.20251 -4.36714,2.2121 -62.134449,2.39117 -31.9,0.0989 -59.12791,-0.1704 -60.50647,-0.59839 z m 36.00647,-147.581397 0,-18.5 -9.5,0 -9.5,0 0,17.833333 c 0,9.808334 0.3,18.133334 0.66667,18.5 0.36666,0.366667 4.64166,0.666667 9.5,0.666667 l 8.83333,0 0,-18.5 z m 28,0 0,-18.5 -9.5,0 -9.5,0 0,18.5 0,18.5 9.5,0 9.5,0 0,-18.5 z m 27.299039,-0.250069 0.20096,-18.25007 -9.25,7e-5 -9.249999,6.9e-5 0,18.537526 0,18.537526 9.049039,-0.287526 9.04904,-0.287526 0.20096,-18.250069 z m 27.70096,0.250069 0,-18.5 -9,0 -9,0 0,18.5 0,18.5 9,0 9,0 0,-18.5 z"
     style="fill:#545454" />
</svg>
