<?xml version="1.0" encoding="UTF-8" standalone="no"?>
<svg
        xmlns:dc="http://purl.org/dc/elements/1.1/"
        xmlns:cc="http://creativecommons.org/ns#"
        xmlns:rdf="http://www.w3.org/1999/02/22-rdf-syntax-ns#"
        xmlns="http://www.w3.org/2000/svg"
        viewBox="0 0 159 225"
        height="225"
        width="159"
        version="1.1"
        id="svg2">
  <metadata
     id="metadata8">
    <rdf:RDF>
      <cc:Work
         rdf:about="">
        <dc:format>image/svg+xml</dc:format>
        <dc:type
           rdf:resource="http://purl.org/dc/dcmitype/StillImage" />
        <dc:title></dc:title>
      </cc:Work>
    </rdf:RDF>
  </metadata>
  <defs
     id="defs6" />
  <path
     id="path3338"
     d="M 0,159.5 0,94 2.55479,94 c 2.42393,0 2.53918,-0.2433 2.25,-4.75 C 4.54469,85.196507 4.17008,84.453143 2.25,84.180449 L 0,83.860898 0,56.167514 0,28.47413 14.26251,14.237065 28.52502,0 93.762512,0 159,0 l 0,37.5 0,37.5 -2.5,0 c -3.34644,0 -3.34644,3.215369 0,5.408043 1.56247,1.02377 2.5,2.574987 2.5,4.136449 0,1.694524 -0.80438,2.864886 -2.5,3.637462 -2.31195,1.053397 -2.5,1.653531 -2.5,7.978561 C 154,102.7893 154.077,103 156.5,103 l 2.5,0 0,61 0,61 -79.499998,0 L 0,225 0,159.5 Z m 150,4.5 0,-52 -2.5,0 -2.5,0 0,-23 0,-23 2.5,0 2.5,0 0,-28.5 L 150,9 91.265022,9 32.53004,9 20.76502,20.734368 9,32.468736 9,53.734368 9,75 l 2.5,0 2.5,0 0,14 0,14 -2.5,0 -2.5,0 0,56.5 0,56.5 70.500002,0 70.499998,0 0,-52 z m -73.787638,41.01008 c -3.08519,-1.40025 -4.69775,-2.92754 -5.75,-5.44592 -2.10952,-5.0488 -1.88935,-5.56416 2.37712,-5.56416 3.13103,0 4.05091,0.46402 4.98528,2.51473 1.52123,3.33873 5.18538,4.89355 9.58656,4.06788 3.73749,-0.70115 5.98676,-3.38165 4.99856,-5.95686 -0.32062,-0.83553 -4.25651,-2.71963 -8.74641,-4.18688 -9.66727,-3.15918 -12.81368,-5.75461 -12.95344,-10.68515 -0.26131,-9.21843 10.51601,-14.44793 21.07138,-10.2245 3.76458,1.50628 7.21859,5.7529 7.21859,8.87507 0,1.19499 -1.00448,1.59571 -4,1.59571 -2.81904,0 -4,-0.42612 -4,-1.4433 0,-1.89213 -3.86625,-4.5567 -6.61172,-4.5567 -1.19169,0 -3.22906,0.87181 -4.5275,1.93735 -3.57383,2.93283 -1.53249,5.0103 7.90481,8.04474 C 98.107232,187.3073 100,188.96866 100,194.72073 c 0,5.87881 -1.347148,8.07961 -6.330678,10.34232 -5.35273,2.43034 -12.03011,2.41007 -17.45696,-0.053 z M 107,187.41395 l 0,-18.58606 11.43045,0.33606 c 12.34681,0.36299 14.49389,1.17533 18.97688,7.17981 3.13757,4.20243 3.47359,15.20505 0.64294,21.0524 C 134.80859,204.09257 130.1827,206 117.18428,206 L 107,206 l 0,-18.58605 z m 22.25,8.60159 c 2.2853,-2.53219 2.75,-3.96086 2.75,-8.45459 0,-4.35856 -0.50219,-6.00432 -2.58889,-8.48422 C 127.05788,176.28007 126.28413,176 120.91111,176 L 115,176 l 0,11.33333 c 0,6.23334 0.3375,11.6787 0.75,12.10082 0.4125,0.42212 3,0.51121 5.75,0.19799 3.89487,-0.44363 5.60782,-1.24298 7.75,-3.6166 z M 19.66667,64.333333 C 19.3,63.966667 19,56.082019 19,46.811895 l 0,-16.854773 2.49594,-1.137225 c 2.06233,-0.939661 2.84409,-0.822149 4.5,0.676427 C 27.83867,31.163977 28,32.569395 28,46.954988 28,57.789997 27.63107,62.968936 26.8,63.8 c -1.2834,1.283397 -6.02849,1.638171 -7.13333,0.533333 z M 38.55671,53.777494 C 37.32703,52.021879 37,48.602394 37,37.5 37,22.538485 37.95635,19 42,19 c 4.04365,0 5,3.538485 5,18.5 0,14.961515 -0.95635,18.5 -5,18.5 -1.03762,0 -2.58711,-1.000128 -3.44329,-2.222506 z m 19.01472,0.651077 C 56.28259,53.139736 56,50.16069 56,37.86283 56,29.439216 56.45363,22.0209 57.03519,20.934259 58.19232,18.77214 61.96288,18.36288 63.8,20.2 c 1.68216,1.682157 1.68216,32.917843 0,34.6 -1.66087,1.660873 -4.35705,1.500091 -6.22857,-0.371429 z M 76.200002,54.8 c -1.68216,-1.682157 -1.68216,-32.917843 0,-34.6 1.5425,-1.542501 5.0575,-1.542501 6.6,0 0.83395,0.833954 1.2,6.111111 1.2,17.3 0,16.892847 -0.39093,18.5 -4.5,18.5 -1.155,0 -2.64,-0.54 -3.3,-1.2 z m 19,0 c -0.83395,-0.833954 -1.2,-6.111111 -1.2,-17.3 0,-11.188889 0.36605,-16.466046 1.2,-17.3 1.83712,-1.83712 5.607688,-1.42786 6.764818,0.734259 C 102.54637,22.0209 103,29.439216 103,37.86283 c 0,12.29786 -0.28259,15.276906 -1.57143,16.565741 -1.871518,1.87152 -4.567698,2.032302 -6.228568,0.371429 z M 113.5567,53.777494 C 112.32702,52.021879 112,48.602394 112,37.5 112,22.538485 112.95635,19 117,19 c 4.04365,0 5,3.538485 5,18.5 0,14.961515 -0.95635,18.5 -5,18.5 -1.03763,0 -2.58711,-1.000128 -3.4433,-2.222506 z m 19.01473,0.651077 C 131.28259,53.139736 131,50.16069 131,37.86283 131,29.439216 131.45363,22.0209 132.03518,20.934259 133.19231,18.77214 136.96288,18.36288 138.8,20.2 c 0.83395,0.833954 1.2,6.111111 1.2,17.3 0,16.572675 -0.43011,18.5 -4.12857,18.5 -0.95072,0 -2.43572,-0.707143 -3.3,-1.571429 z"
     style="fill:#020202" />
</svg>
