<?xml version="1.0" encoding="UTF-8" standalone="no"?>
<svg
        xmlns:dc="http://purl.org/dc/elements/1.1/"
        xmlns:cc="http://creativecommons.org/ns#"
        xmlns:rdf="http://www.w3.org/1999/02/22-rdf-syntax-ns#"
        xmlns="http://www.w3.org/2000/svg"
        viewBox="0 0 52.14423 60.056778"
        height="60.056778"
        width="52.14423"
        version="1.1"
        id="svg2">
  <metadata
     id="metadata8">
    <rdf:RDF>
      <cc:Work
         rdf:about="">
        <dc:format>image/svg+xml</dc:format>
        <dc:type
           rdf:resource="http://purl.org/dc/dcmitype/StillImage" />
        <dc:title></dc:title>
      </cc:Work>
    </rdf:RDF>
  </metadata>
  <defs
     id="defs6" />
  <path
     id="path3338"
     d="M 1.594976,58.558716 C 0.70822598,57.671965 0.09497598,53.407323 0.09497598,48.127451 c 0,-7.343776 0.44437,-9.333409 2.50000002,-11.193735 1.375,-1.244358 2.5,-2.672184 2.5,-3.172945 0,-0.500763 -1.125,-1.204671 -2.5,-1.564241 -3.94762,-1.032328 -3.28103002,-7.17181 1.25,-11.512814 3.2945502,-3.156373 3.7500002,-4.444875 3.7500002,-10.608863 0,-3.8588748 0.675,-7.6911361 1.5,-8.5161361 2.0782898,-2.07828921 32.4217098,-2.07828921 34.4999998,0 0.97374,0.9737416 1.5,6.0463116 1.5,14.4584021 0,12.016658 0.2353,13.266891 3.23767,17.203205 6.53842,8.572306 4.42177,20.198186 -4.48767,24.64895 -3.56279,1.779813 -7.75147,2.185917 -22.5625,2.1875 -12.4814998,0.0013 -18.65809,-0.468655 -19.6875,-1.498058 z m 41.04092,-2.896159 c 3.95019,-2.042722 7.45908,-7.618995 7.45908,-11.853841 0,-6.625179 -7.12482,-13.75 -13.75,-13.75 -4.23484,0 -9.81112,3.508895 -11.85384,7.459084 -2.39545,4.632291 -2.39689,7.946765 -0.005,12.571302 3.48379,6.736907 11.27424,9.129153 18.1502,5.573455 z m -7.54092,-8.103841 c 0,-1.666666 -0.83333,-2.5 -2.5,-2.5 -1.375,0 -2.5,-0.5625 -2.5,-1.25 0,-0.6875 1.125,-1.25 2.5,-1.25 1.66667,0 2.5,-0.833334 2.5,-2.5 0,-1.375 0.5625,-2.5 1.25,-2.5 0.6875,0 1.25,1.125 1.25,2.5 0,1.666666 0.83334,2.5 2.5,2.5 1.375,0 2.5,0.5625 2.5,1.25 0,0.6875 -1.125,1.25 -2.5,1.25 -1.66666,0 -2.5,0.833334 -2.5,2.5 0,1.375 -0.5625,2.5 -1.25,2.5 -0.6875,0 -1.25,-1.125 -1.25,-2.5 z m -13.5679,1.915746 c -1.79631,-4.995324 -1.81293,-6.136881 -0.15759,-10.824263 2.24377,-6.35365 6.57883,-9.791447 13.52121,-10.722615 l 5.20428,-0.698041 0,-11.085413 0,-11.0854131 -13.75,0 -13.75,0 0,6.6411361 c 0,5.747322 -0.5047,7.12467 -3.7499998,10.233863 -4.4162302,4.231016 -4.5999802,5.111146 -1.25,5.987186 1.78453,0.466665 2.4999998,1.70502 2.4999998,4.327055 0,2.0858 -1.0804298,4.651064 -2.4999998,5.935759 -1.9568,1.770885 -2.5000002,3.849959 -2.5000002,9.568735 l 0,7.306265 9.22009,0 9.22009,0 -2.00808,-5.584254 z m -6.4321,-35.665746 c 0,-2.062499 0.5625,-3.749999 1.25,-3.749999 0.6875,0 1.25,1.6875 1.25,3.749999 0,2.0625 -0.5625,3.75 -1.25,3.75 -0.6875,0 -1.25,-1.6875 -1.25,-3.75 z m 5,-1.25 c 0,-2.749999 0.5625,-4.9999991 1.25,-4.9999991 0.6875,0 1.25,2.2500001 1.25,4.9999991 0,2.75 -0.5625,5 -1.25,5 -0.6875,0 -1.25,-2.25 -1.25,-5 z m 5,1.25 c 0,-2.062499 0.5625,-3.749999 1.25,-3.749999 0.6875,0 1.25,1.6875 1.25,3.749999 0,2.0625 -0.5625,3.75 -1.25,3.75 -0.6875,0 -1.25,-1.6875 -1.25,-3.75 z m 5,-1.25 c 0,-2.749999 0.5625,-4.9999991 1.25,-4.9999991 0.6875,0 1.25,2.2500001 1.25,4.9999991 0,2.75 -0.5625,5 -1.25,5 -0.6875,0 -1.25,-2.25 -1.25,-5 z m 5,1.25 c 0,-2.062499 0.5625,-3.749999 1.25,-3.749999 0.6875,0 1.25,1.6875 1.25,3.749999 0,2.0625 -0.5625,3.75 -1.25,3.75 -0.6875,0 -1.25,-1.6875 -1.25,-3.75 z"
     style="fill:#464646" />
</svg>
