<?xml version="1.0" encoding="UTF-8" standalone="no"?>
<svg
        xmlns:dc="http://purl.org/dc/elements/1.1/"
        xmlns:cc="http://creativecommons.org/ns#"
        xmlns:rdf="http://www.w3.org/1999/02/22-rdf-syntax-ns#"
        xmlns="http://www.w3.org/2000/svg"
        viewBox="0 0 44.157829 59.244904"
        height="59.244904"
        width="44.157829"
        version="1.1"
        id="svg2">
  <metadata
     id="metadata8">
    <rdf:RDF>
      <cc:Work
         rdf:about="">
        <dc:format>image/svg+xml</dc:format>
        <dc:type
           rdf:resource="http://purl.org/dc/dcmitype/StillImage" />
        <dc:title></dc:title>
      </cc:Work>
    </rdf:RDF>
  </metadata>
  <defs
     id="defs6" />
  <path
     id="path3338"
     d="m 10.087049,57.657533 c -0.3350205,-0.873054 0.80764,-5.752828 2.53924,-10.84394 1.73159,-5.091114 3.14836,-9.439296 3.14836,-9.662629 0,-0.223334 -3.34181,-0.40606 -7.4262305,-0.40606 -4.084427,0 -7.78873425,-0.586545 -8.23179525,-1.303433 -0.947132,-1.532491 3.71504795,-7.241847 19.86064575,-24.321567 15.89759,-16.8173576 17.50943,-15.1363476 8.62972,9.000005 -0.38358,1.04261 1.83362,1.614351 7.27119,1.875 4.30268,0.206248 8.02582,0.989997 8.27365,1.741669 0.49989,1.516177 -30.39598,35.508326 -32.27394,35.508326 -0.64994,0 -1.45581,-0.714318 -1.79084,-1.587371 z m 19.31122,-30.667714 c -3.50744,-0.213164 -6.51526,-1.061039 -6.84896,-1.930649 -0.32726,-0.852811 0.25346,-4.056774 1.29048,-7.119916 l 1.88548,-5.56935 -8.6641,9.375 -8.6640905,9.375 6.2539505,0.380085 c 3.50743,0.213164 6.51526,1.061039 6.84896,1.930649 0.32725,0.852811 -0.25346,4.056774 -1.29048,7.119916 l -1.88548,5.56935 8.66409,-9.375 8.6641,-9.375 -6.25395,-0.380085 z"
     style="fill:#484848" />
</svg>
