<?xml version="1.0" encoding="UTF-8" standalone="no"?>
<svg
        xmlns:dc="http://purl.org/dc/elements/1.1/"
        xmlns:cc="http://creativecommons.org/ns#"
        xmlns:rdf="http://www.w3.org/1999/02/22-rdf-syntax-ns#"
        xmlns="http://www.w3.org/2000/svg"
        viewBox="0 0 640 640"
        height="640"
        width="640"
        version="1.1"
        id="svg2">
  <metadata
     id="metadata8">
    <rdf:RDF>
      <cc:Work
         rdf:about="">
        <dc:format>image/svg+xml</dc:format>
        <dc:type
           rdf:resource="http://purl.org/dc/dcmitype/StillImage" />
        <dc:title></dc:title>
      </cc:Work>
    </rdf:RDF>
  </metadata>
  <defs
     id="defs6" />
  <path
     id="path3338"
     d="m 245.02788,581.52756 -18.5208,-14.28885 5.3958,-1.35314 c 9.7872,-2.45436 22.0427,-7.64045 29.4001,-12.44107 9.1244,-5.95353 21.2106,-18.64126 26.2886,-27.59704 4.4943,-7.92625 9.7459,-22.97509 10.9879,-31.48613 0.8198,-5.6183 0.6659,-6.02735 -3.7141,-9.87306 -6.9235,-6.07889 -8.1917,-9.51191 -8.1917,-22.17569 0,-7.44727 -0.5197,-11.56227 -1.5625,-12.37138 -0.8593,-0.6668 -13.2761,-5.93822 -27.5927,-11.71425 -14.8145,-5.97691 -27.9448,-12.08005 -30.4737,-14.16462 -2.444,-2.01448 -5.7717,-6.51507 -7.3951,-10.00129 l -2.9515,-6.33858 -0.01,-106.875 c -0.011,-119.1975 -0.5114,-112.32029 8.6082,-118.41259 l 4.2474,-2.83741 95.1276,0.005 c 92.7177,0.005 95.2309,0.0676 99.2016,2.48857 2.2406,1.36615 5.1916,4.31717 6.5578,6.55783 2.4272,3.98097 2.484,6.5089 2.4886,110.8039 0,80.90794 -0.3677,107.97266 -1.5343,111.86637 -0.9063,3.02517 -3.8606,7.48915 -7.1875,10.86036 -5.1184,5.18668 -8.5231,6.87719 -36.2736,18.01068 -16.8437,6.75771 -31.3281,12.83282 -32.1875,13.50024 -1.0013,0.77769 -1.5625,4.55484 -1.5625,10.51761 0,5.11726 -0.6312,10.53276 -1.4027,12.03444 -2.0506,3.99132 -7.4901,9.57652 -11.2305,11.53134 -2.7009,1.41153 -3.3943,2.85985 -4.0533,8.46656 -1.884,16.03012 -11.5302,41.59461 -20.963,55.55669 -10.8214,16.01731 -24.4765,28.55675 -41.927,38.50135 -5.3559,3.05216 -10.0328,5.5424 -10.3932,5.53386 -0.3604,-0.009 -8.9896,-6.44551 -19.1761,-14.30437 z m 88.9665,-185.09601 c 7.8868,-6.63634 7.9137,-18.5347 0.056,-24.68453 l -3.8135,-2.98453 0.011,-15.52002 c 0.01,-13.3205 0.3142,-15.69716 2.1504,-16.77001 4.4762,-2.61531 16.5038,-12.68104 20.1709,-16.8808 4.6348,-5.30794 9.1745,-13.77955 10.2655,-19.15669 0.7325,-3.6104 1.2721,-3.99666 6.0717,-4.34688 l 5.2675,-0.38438 0,-13.67812 0,-13.67813 -13.75,0 -13.75,0 0,13.75 0,13.75 3.125,0 c 3.8938,0 4.1304,3.15188 0.7309,9.7373 -3.3552,6.49944 -15.686,17.76261 -19.4466,17.76275 -0.8503,3e-5 -1.1967,-10.03129 -1.025,-29.6875 l 0.2593,-29.68755 5.0532,-0.38438 c 2.7792,-0.2114 5.0532,-0.66867 5.0532,-1.01616 0,-0.34748 -3.4654,-9.08382 -7.7007,-19.41409 -4.769,-11.63173 -8.048,-18.1452 -8.6129,-17.10883 -1.2035,2.20798 -14.9364,35.84203 -14.9364,36.58157 0,0.31523 2.3906,0.74611 5.3125,0.95751 l 5.3125,0.38438 0.33,39.6875 c 0.23,27.65079 -0.077,39.6875 -1.0123,39.6875 -0.7383,0 -4.3052,-2.80215 -7.9265,-6.22701 -6.9158,-6.54067 -12.5787,-16.27552 -13.9403,-23.96432 -0.6999,-3.95205 -0.4451,-4.68172 1.8939,-5.42411 1.4865,-0.47177 3.7867,-2.63567 5.1117,-4.80867 5.2814,-8.66148 1.2182,-19.88061 -8.4159,-23.23778 -4.4654,-1.55605 -5.7494,-1.55031 -9.9394,0.0444 -5.8857,2.24012 -10.4763,8.63422 -10.4763,14.59229 0,5.25706 3.8201,11.83628 7.9704,13.72729 2.1823,0.99431 3.2661,2.76867 3.8683,6.33267 2.0661,12.22942 13.9561,29.83285 26.7298,39.57419 5.7066,4.35191 6.4315,5.42789 6.4315,9.54595 0,3.9251 -0.6523,5.04435 -4.2279,7.25419 -6.6921,4.13596 -9.4978,14.37936 -5.8205,21.25046 4.0676,7.60022 16.9721,10.01761 23.6191,4.42452 z m -87.728,-232.65812 c -0.4635,-0.46345 -0.8427,-22.68638 -0.8427,-49.3843 l 0,-48.541673 79.3896,0 79.3895,0 -0.327,49.062503 -0.3271,49.0625 -78.2198,0.32181 c -43.0209,0.177 -78.5991,-0.0574 -79.0625,-0.52083 z m 140.4073,-49.17597 0,-32.500003 -61.875,0 -61.875,0 0,32.500003 0,32.5 61.875,0 61.875,0 0,-32.5 z m -106.25,-11.875 0,-8.125003 15.625,0 15.625,0 0,8.125003 0,8.125 -15.625,0 -15.625,0 0,-8.125 z m 55.2529,0.3125 0.3721,-7.812503 15.3125,-0.35097 15.3125,-0.35098 0,8.163483 0,8.16347 -15.6846,0 -15.6846,0 0.3721,-7.8125 z"
     style="fill:#404040" />
</svg>
