<?xml version="1.0" encoding="UTF-8" standalone="no"?>
<svg
        xmlns:dc="http://purl.org/dc/elements/1.1/"
        xmlns:cc="http://creativecommons.org/ns#"
        xmlns:rdf="http://www.w3.org/1999/02/22-rdf-syntax-ns#"
        xmlns="http://www.w3.org/2000/svg"
        viewBox="0 0 512 512"
        height="512"
        width="512"
        version="1.1"
        id="svg2">
  <metadata
     id="metadata8">
    <rdf:RDF>
      <cc:Work
         rdf:about="">
        <dc:format>image/svg+xml</dc:format>
        <dc:type
           rdf:resource="http://purl.org/dc/dcmitype/StillImage" />
        <dc:title></dc:title>
      </cc:Work>
    </rdf:RDF>
  </metadata>
  <defs
     id="defs6" />
  <path
     id="path3338"
     d="m 239.33899,499.9053 c -16.38093,-1.96134 -21.67696,-2.74636 -29.63796,-4.3932 -45.49225,-9.41067 -87.25376,-31.95032 -120.416474,-64.99153 -20.21575,-20.14169 -34.10035,-39.41787 -46.46795,-64.5121 -16.76627,-34.01927 -24.53774,-67.52937 -24.58291,-106 -0.0306,-26.05588 2.86644,-46.69636 9.73552,-69.36266 19.52537,-64.42896 63.60792,-116.750881 123.477094,-146.555912 23.51834,-11.708277 47.59025,-19.289087 73.89268,-23.270537 16.18052,-2.449276 51.03448,-2.407697 67.5,0.08052 91.2298,13.786375 165.7268,76.007143 194.4381,162.397009 8.8122,26.51505 12.1738,47.55982 12.1738,76.21158 0,38.82037 -7.7295,72.29537 -24.5914,106.5 -35.0546,71.10896 -101.7905,119.9132 -180.5205,132.01529 -10.02125,1.54043 -47.22045,2.81301 -55,1.88154 z m 114.4915,-86.8317 c 6.7407,-2.58974 14.6403,-10.56896 16.8322,-17.00176 1.4532,-4.2648 1.6763,-9.99936 1.6763,-43.08179 l 0,-38.16214 -3.0597,-6.12296 c -3.0469,-6.09744 -7.1201,-10.13234 -13.9403,-13.80947 -3.3585,-1.81073 -7.2593,-1.88701 -96.5,-1.88701 l -93,0 -5.5,3.09878 c -6.44989,3.63397 -12.24658,10.71589 -14.16237,17.30242 -1.00988,3.47198 -1.33763,13.66475 -1.33763,41.5988 0,35.51137 0.0847,37.18309 2.10566,41.55081 4.33713,9.37354 12.95025,16.35462 22.11697,17.92621 2.62755,0.45048 44.15237,0.74858 92.27737,0.66244 83.6384,-0.1497 87.7203,-0.24124 92.4915,-2.07433 z m -189.1345,-12.55671 c -5.36474,-2.16494 -5.357,-2.09668 -5.357,-47.27638 l 0,-41.82295 2.45455,-2.45454 2.45454,-2.45455 94.45656,0 94.45655,0 2.5889,3.07673 2.5889,3.07672 0,40.37622 c 0,29.1741 -0.3315,41.10369 -1.1947,42.99827 -2.5911,5.68687 1.2215,5.47753 -98.50564,5.40867 -50.48981,-0.0349 -92.76401,-0.45255 -93.94266,-0.92819 z m 73.4429,-27.25842 0.29991,-5.75 -17.04991,0 -17.0499,0 0,6.02418 0,6.02418 16.75,-0.27418 16.75,-0.27418 0.2999,-5.75 z m 75.2001,0.25 0,-6 -17,0 -17,0 0,6 0,6 17,0 17,0 0,-6 z m 24.841,-31.34937 c -0.2261,-6.86294 -0.8033,-10.90542 -1.7134,-12 -1.2537,-1.50777 -7.9781,-1.65063 -77.69334,-1.65063 l -76.32085,0 -1.55671,2.22251 c -1.15125,1.64365 -1.5567,4.76907 -1.5567,12 l 0,9.77749 79.59102,0 79.59098,0 -0.341,-10.34937 z m 15.6505,-117.14726 c 6.7238,-2.50006 14.6196,-10.44645 16.8322,-16.94 1.4532,-4.2648 1.6763,-9.99936 1.6763,-43.08179 l 0,-38.16214 -3.0597,-6.12296 c -3.0469,-6.09744 -7.1201,-10.13234 -13.9403,-13.80947 -3.3585,-1.81073 -7.2593,-1.88701 -96.5,-1.88701 l -93,0 -5.5,3.09878 c -6.44989,3.63397 -12.24658,10.71589 -14.16237,17.30242 -1.00988,3.47198 -1.33763,13.66475 -1.33763,41.5988 0,35.68398 0.076,37.16441 2.13733,41.6224 4.47808,9.68477 12.93489,16.19652 23.09417,17.78254 2.62268,0.40944 43.9185,0.67917 91.7685,0.59941 82.0855,-0.13683 87.282,-0.24986 91.9915,-2.00098 z m -189.1345,-12.49495 c -5.35385,-2.16055 -5.357,-2.18778 -5.357,-46.28059 0,-42.92356 0.24437,-45.45642 4.5448,-47.10665 0.89033,-0.34165 43.76947,-0.60687 95.28699,-0.58938 99.09731,0.0336 95.45271,-0.13936 98.00491,4.65246 1.5311,2.87478 1.6558,82.52695 0.1337,85.37113 -2.7207,5.08351 -0.01,4.94935 -98.67074,4.88122 -50.48981,-0.0349 -92.76401,-0.45255 -93.94266,-0.92819 z m 73.4429,-27.25842 0.29991,-5.75 -17.04991,0 -17.0499,0 0,6.02418 0,6.02418 16.75,-0.27418 16.75,-0.27418 0.2999,-5.75 z m 75.2001,0.25 0,-6 -17,0 -17,0 0,5.33333 c 0,2.93334 0.3,5.63334 0.66667,6 0.36666,0.36667 8.01666,0.66667 17,0.66667 l 16.33333,0 0,-6 z m 25,-30.77749 c 0,-7.23093 -0.4055,-10.35635 -1.5567,-12 l -1.5567,-2.22251 -76.32086,0 c -69.71524,0 -76.43964,0.14286 -77.6933,1.65063 -0.9101,1.09458 -1.48732,5.13706 -1.71346,12 l -0.34103,10.34937 79.59103,0 79.59102,0 0,-9.77749 z"
     style="fill:#020202" />
</svg>
