<?xml version="1.0" encoding="UTF-8" standalone="no"?>
<svg
        xmlns:dc="http://purl.org/dc/elements/1.1/"
        xmlns:cc="http://creativecommons.org/ns#"
        xmlns:rdf="http://www.w3.org/1999/02/22-rdf-syntax-ns#"
        xmlns="http://www.w3.org/2000/svg"
        viewBox="0 0 249.64655 245.78497"
        height="245.78497"
        width="249.64655"
        version="1.1"
        id="svg2">
  <metadata
     id="metadata8">
    <rdf:RDF>
      <cc:Work
         rdf:about="">
        <dc:format>image/svg+xml</dc:format>
        <dc:type
           rdf:resource="http://purl.org/dc/dcmitype/StillImage" />
        <dc:title></dc:title>
      </cc:Work>
    </rdf:RDF>
  </metadata>
  <defs
     id="defs6" />
  <g
     transform="translate(-0.2320027,-9)"
     id="g3338">
    <path
       id="path3344"
       d="M 84.75,254.25279 72,253.94025 72,250.47012 72,247 l 11.25,0.0356 c 6.449892,0.0204 13.810058,0.66812 17.25,1.51799 10.20214,2.52056 31.33681,2.93398 43.5,0.85092 5.775,-0.98902 16.0125,-1.96036 22.75,-2.15853 l 12.25,-0.36031 0,3.39904 0,3.39905 -18.75,0.65528 c -17.87537,0.62472 -47.89508,0.59042 -75.5,-0.0863 z M 76,240.61752 c -12.202929,-5.09847 -25.065624,-13.09434 -32.564203,-20.24298 -2.235312,-2.131 -3.022812,-3.0086 -1.75,-1.95023 L 44,220.34863 l 0,-15.26438 0,-15.26437 6.819548,6.84006 c 3.750751,3.76203 9.600751,8.7813 13,11.15393 L 70,212.12774 l 0,-3.54618 c 0,-3.14178 -1.059134,-4.60305 -9.287487,-12.81387 C 51.47651,186.55137 45.98397,179.14026 42.727189,171.5 c -0.937784,-2.2 -1.147541,-3.15203 -0.466126,-2.11562 0.681416,1.03641 3.311943,5.11403 5.845617,9.06138 9.499725,14.80015 31.719617,32.51873 47.982603,38.26227 7.661307,2.70572 7.905597,2.8916 7.908117,6.01697 0.002,3.09716 -0.12623,3.20084 -3.2474,2.61557 -1.7875,-0.33519 -6.5125,-1.62614 -10.5,-2.86879 l -7.25,-2.25936 0,11.39379 c 0,6.26658 -0.3375,11.37477 -0.75,11.35152 -0.4125,-0.0232 -3.225,-1.07634 -6.25,-2.34021 z m 92,-8.94392 0,-11.46118 -7.25,2.25936 c -3.9875,1.24265 -8.7125,2.5336 -10.5,2.86879 -3.12427,0.58585 -3.24902,0.48466 -3.22468,-2.61557 0.0245,-3.11727 0.311,-3.33602 8.57761,-6.5486 16.57378,-6.44092 36.263,-21.9738 46.09654,-36.36569 2.55506,-3.73946 4.85452,-6.59005 5.10992,-6.33466 1.18318,1.18319 -9.13621,14.88129 -17.03484,22.61228 -7.37162,7.21517 -8.77455,9.09384 -8.77455,11.75 0,1.73892 0.41553,3.16167 0.9234,3.16167 1.63803,0 10.38074,-7.03368 17.85278,-14.3629 l 7.27617,-7.1371 -0.27617,15.9972 -0.27618,15.9972 -7,5.27818 c -6.31405,4.76095 -23.53592,14.00214 -29.25,15.69544 -2.24124,0.66416 -2.25,0.62214 -2.25,-10.79442 z M 214,213.5 c 2.98742,-3.025 5.65668,-5.5 5.93168,-5.5 0.275,0 -1.94426,2.475 -4.93168,5.5 -2.98742,3.025 -5.65668,5.5 -5.93168,5.5 -0.275,0 1.94426,-2.475 4.93168,-5.5 z M 31.437091,208.75 28.5,205.5 l 3.25,2.93709 c 1.7875,1.6154 3.25,3.0779 3.25,3.25 0,0.77256 -0.825128,0.0924 -3.562909,-2.93709 z M 222,204.62244 c 0,-0.20765 0.7875,-0.99515 1.75,-1.75 1.58606,-1.24387 1.62143,-1.2085 0.37756,0.37756 C 222.82119,204.91575 222,205.44548 222,204.62244 Z M 71.652253,176.25 c -0.256179,-0.4125 5.904763,-0.63369 13.690983,-0.49153 25.768914,0.47048 28.425474,0.84156 7.465781,1.04283 -11.380041,0.10929 -20.900584,-0.1388 -21.156764,-0.5513 z M 147.75,176.254 c 5.6375,-0.17825 14.8625,-0.17825 20.5,0 5.6375,0.17825 1.025,0.32409 -10.25,0.32409 -11.275,0 -15.8875,-0.14584 -10.25,-0.32409 z m 31.24755,-17.95651 c -0.27365,-10.01131 -0.14908,-17.85285 0.27682,-17.42563 0.4259,0.42722 0.6498,8.61829 0.49754,18.20239 L 179.49509,176.5 178.99755,158.29761 Z m -75.17958,9.95321 c 12.27489,-0.1592 32.07489,-0.15901 44,4.1e-4 11.92512,0.15943 1.88203,0.28968 -22.31797,0.28945 -24.2,-2.3e-4 -33.956913,-0.13067 -21.68203,-0.28986 z M 132.232,154 c 0,-1.925 0.2058,-2.7125 0.45733,-1.75 0.25152,0.9625 0.25152,2.5375 0,3.5 -0.25153,0.9625 -0.45733,0.175 -0.45733,-1.75 z m 22,0 c 0,-1.925 0.2058,-2.7125 0.45733,-1.75 0.25152,0.9625 0.25152,2.5375 0,3.5 -0.25153,0.9625 -0.45733,0.175 -0.45733,-1.75 z m 7,0 c 0,-1.925 0.2058,-2.7125 0.45733,-1.75 0.25152,0.9625 0.25152,2.5375 0,3.5 -0.25153,0.9625 -0.45733,0.175 -0.45733,-1.75 z M 1.0789474,144.41667 c 0.047984,-1.16495 0.2849403,-1.4019 0.6041666,-0.60417 0.2888706,0.72187 0.2533443,1.58437 -0.078947,1.91667 -0.3322917,0.33229 -0.5686404,-0.25834 -0.5252193,-1.3125 z m 31.9999996,0 c 0.04798,-1.16495 0.284941,-1.4019 0.604167,-0.60417 0.288871,0.72187 0.253344,1.58437 -0.07895,1.91667 -0.332292,0.33229 -0.568641,-0.25834 -0.52522,-1.3125 z m 184.000003,-2 c 0.048,-1.16495 0.28494,-1.4019 0.60416,-0.60417 0.28887,0.72187 0.25335,1.58437 -0.0789,1.91667 -0.3323,0.33229 -0.56864,-0.25834 -0.52522,-1.3125 z m 32,0 c 0.048,-1.16495 0.28494,-1.4019 0.60416,-0.60417 0.28887,0.72187 0.25335,1.58437 -0.0789,1.91667 -0.3323,0.33229 -0.56864,-0.25834 -0.52522,-1.3125 z M 32.157895,138 c 0,-1.375 0.226973,-1.9375 0.504386,-1.25 0.277412,0.6875 0.277412,1.8125 0,2.5 -0.277413,0.6875 -0.504386,0.125 -0.504386,-1.25 z M 0.2320027,135 c 0,-1.925 0.20579527,-2.7125 0.45732281,-1.75 0.25152755,0.9625 0.25152755,2.5375 0,3.5 C 0.43779797,137.7125 0.2320027,136.925 0.2320027,135 Z m 217.9629473,0.5 c 0.0204,-1.65 0.2445,-2.20394 0.49804,-1.23097 0.25354,0.97297 0.23687,2.32297 -0.0371,3 -0.27393,0.67703 -0.48137,-0.11903 -0.46099,-1.76903 z M 31.272364,126 c 0,-2.475 0.195016,-3.4875 0.433369,-2.25 0.238353,1.2375 0.238353,3.2625 0,4.5 -0.238353,1.2375 -0.433369,0.225 -0.433369,-2.25 z M 0.2521834,116.5 c 0.0110994,-2.2 0.21588425,-2.98225 0.45507747,-1.73834 0.23919321,1.24391 0.2301119,3.04391 -0.0201807,4 C 0.43678756,119.71775 0.24108402,118.7 0.2521834,116.5 Z m 217.9427666,0 c 0.0204,-1.65 0.2445,-2.20394 0.49804,-1.23097 0.25354,0.97297 0.23687,2.32297 -0.0371,3 -0.27393,0.67703 -0.48137,-0.11903 -0.46099,-1.76903 z M 32.078947,113.41667 c 0.04798,-1.16495 0.284941,-1.4019 0.604167,-0.60417 0.288871,0.72187 0.253344,1.58437 -0.07895,1.91667 -0.332292,0.33229 -0.568641,-0.25834 -0.52522,-1.3125 z M 71.651338,111.25 c -0.256683,-0.4125 3.879259,-0.63076 9.190983,-0.48501 17.11325,0.46955 18.998996,0.87002 4.966696,1.05476 -7.530041,0.0991 -13.900996,-0.15725 -14.157679,-0.56975 z m 49.161162,0.0669 c 0.72187,-0.28887 1.58437,-0.25335 1.91667,0.0789 0.33229,0.3323 -0.25834,0.56864 -1.3125,0.52522 -1.16495,-0.048 -1.4019,-0.28494 -0.60417,-0.60416 z m 37.4375,-0.0584 c 3.7125,-0.19241 9.7875,-0.19241 13.5,0 3.7125,0.19241 0.675,0.34983 -6.75,0.34983 -7.425,0 -10.4625,-0.15742 -6.75,-0.34983 z m 20.74755,-17.960838 c -0.27365,-10.011314 -0.14908,-17.852848 0.27682,-17.425632 0.4259,0.427215 0.6498,8.61829 0.49754,18.202388 L 179.49509,111.5 178.99755,93.297612 Z m 70.0814,16.119058 c 0.048,-1.16495 0.28494,-1.4019 0.60416,-0.60417 0.28887,0.72187 0.25335,1.58437 -0.0789,1.91667 -0.3323,0.33229 -0.56864,-0.25834 -0.52522,-1.3125 z m -248.0000026,-2 c 0.047984,-1.16495 0.2849403,-1.4019 0.6041666,-0.60417 0.2888706,0.72187 0.2533443,1.58437 -0.078947,1.91667 -0.3322917,0.33229 -0.5686404,-0.25834 -0.5252193,-1.3125 z m 31.9999996,0 c 0.04798,-1.16495 0.284941,-1.4019 0.604167,-0.60417 0.288871,0.72187 0.253344,1.58437 -0.07895,1.91667 -0.332292,0.33229 -0.568641,-0.25834 -0.52522,-1.3125 z m 70.739023,-4.16585 c 12.27489,-0.1592 32.07489,-0.15901 44,4.1e-4 11.92512,0.15943 1.88203,0.28968 -22.31797,0.28945 -24.2,-2.3e-4 -33.956913,-0.13067 -21.68203,-0.28986 z M 132.232,89 c 0,-1.925 0.2058,-2.7125 0.45733,-1.75 0.25152,0.9625 0.25152,2.5375 0,3.5 C 132.4378,91.7125 132.232,90.925 132.232,89 Z m 22,0 c 0,-1.925 0.2058,-2.7125 0.45733,-1.75 0.25152,0.9625 0.25152,2.5375 0,3.5 C 154.4378,91.7125 154.232,90.925 154.232,89 Z m 7,0 c 0,-1.925 0.2058,-2.7125 0.45733,-1.75 0.25152,0.9625 0.25152,2.5375 0,3.5 C 161.4378,91.7125 161.232,90.925 161.232,89 Z M 43.118373,79.5 c 3.038326,-7.030815 8.720834,-14.593241 17.556001,-23.363973 8.53816,-8.47589 9.403976,-9.676479 9.129197,-12.659049 L 69.5,40.181903 64.371983,43.613087 c -2.820409,1.887151 -8.557909,6.71942 -12.75,10.738376 L 44,61.658654 44,46.706882 C 44,32.663668 43.89366,31.830096 42.25,32.989119 41.2875,33.667824 42.3,32.550678 44.5,30.506572 50.628984,24.811894 59.12576,19.327817 69.279796,14.51294 84.225071,7.4261354 83,6.9133117 83,20.256318 l 0,11.391093 6.75,-2.212923 c 3.7125,-1.217108 8.4375,-2.508167 10.5,-2.869019 3.70776,-0.648705 3.74997,-0.618977 3.7474,2.639218 -0.003,3.215414 -0.19582,3.363554 -7.971684,6.109794 -10.056771,3.551798 -26.7127,14.500952 -36.015997,23.675934 -3.820374,3.767682 -9.242899,10.368621 -12.050056,14.668753 -5.959062,9.128368 -6.59194,9.891911 -4.84129,5.840832 z M 202.11697,72.562542 C 192.85669,58.579187 170.19241,40.68889 154.89278,35.285613 c -7.68953,-2.715668 -7.88765,-2.868356 -7.89018,-6.080926 -0.003,-3.265452 0.0314,-3.288997 3.7474,-2.598348 2.0625,0.38333 6.7875,1.726913 10.5,2.985739 l 6.75,2.288776 0,-11.440427 C 168,11.393994 168.28804,9 169.37651,9 171.73901,9 193.22448,20.345902 199,24.643376 c 3.025,2.250855 7.32655,5.839399 9.559,7.974543 2.23245,2.135145 2.79495,2.78539 1.25,1.44499 L 207,31.625818 l 0,15.413631 0,15.413631 -7.75,-7.610947 C 191.76399,47.490445 183.60528,41 181.84996,41 c -0.46748,0 -0.84971,1.4625 -0.8494,3.25 4.6e-4,2.740404 1.03069,4.171214 6.57039,9.125133 8.16275,7.299617 20.66841,23.71884 19.1908,25.196448 -0.22016,0.220158 -2.31031,-2.483909 -4.64478,-6.009039 z M 223.87244,49.25 C 222.62857,47.663944 222.66394,47.628574 224.25,48.872445 225.91575,50.178814 226.44548,51 225.62244,51 c -0.20765,0 -0.99515,-0.7875 -1.75,-1.75 z M 29.5,45 c 0.995486,-1.1 2.034975,-2 2.309975,-2 0.275,0 -0.314489,0.9 -1.309975,2 -0.995486,1.1 -2.034975,2 -2.309975,2 -0.275,0 0.314489,-0.9 1.309975,-2 z M 217.45295,41.75 213.5,37.5 l 4.25,3.952948 C 221.70246,45.12915 222.45953,46 221.70295,46 c -0.16338,0 -2.07588,-1.9125 -4.25,-4.25 z M 35,38.622445 c 0,-0.207656 0.7875,-0.995156 1.75,-1.75 C 38.336056,35.628574 38.371426,35.663944 37.127555,37.25 35.821186,38.915748 35,39.445479 35,38.622445 Z"
       style="fill:#9e9e9e" />
    <path
       id="path3342"
       d="m 35.659404,212.46672 c -4.312327,-4.3817 -10.732144,-12.2955 -14.26626,-17.58623 l -6.425664,-9.61951 0,-59.27047 0,-59.270467 4.502002,-7.223167 C 24.494919,51.433892 37.275825,36.359742 41.350297,33.690046 L 44,31.953894 l 0,14.85238 0,14.85238 7.621983,-7.307191 c 4.192091,-4.018956 9.929591,-8.851225 12.75,-10.738376 L 69.5,40.181903 l 0.303571,3.295075 c 0.274779,2.98257 -0.591037,4.183159 -9.129197,12.659049 C 50.005827,66.726768 46.127372,72.397974 40.250839,86 c -11.842758,27.41166 -11.744424,52.31232 0.318626,80.68404 5.24904,12.34549 9.455205,18.41859 20.143048,29.08365 C 68.940866,203.97851 70,205.43978 70,208.58156 l 0,3.54618 -6.180452,-4.31387 c -3.399249,-2.37263 -9.237374,-7.37995 -12.973612,-11.12739 L 44.052777,189.87297 43.776388,205.1532 43.5,220.43344 35.659404,212.46672 Z m 0.896072,-51.02249 C 27.869912,138.25852 27.858929,113.63889 36.523828,90.504343 39.034286,83.801634 40,79.60248 40,75.389123 40,70.100974 39.868871,69.7422 38.598826,71.555444 35.201469,76.40585 28.879543,90.339099 26.350093,98.551113 23.763347,106.94915 23.593674,108.63878 23.593674,126 c 0,17.28673 0.17772,19.07636 2.709889,27.28832 2.519698,8.17152 7.787203,19.84944 11.577323,25.66662 1.611931,2.47404 1.620461,2.46174 1.922671,-2.77236 0.23584,-4.08459 -0.488742,-7.37242 -3.248081,-14.73835 z M 207,204.99614 l 0,-15.44608 -7.25,7.11207 C 192.30107,203.96935 183.55971,211 181.9234,211 181.41553,211 181,209.55953 181,207.79895 c 0,-2.70266 1.29929,-4.45424 8.345,-11.25 9.79312,-9.4457 14.8142,-16.61777 20.48895,-29.26623 7.05026,-15.71432 8.66216,-23.39641 8.66216,-41.28272 0,-18.11868 -1.58592,-25.4859 -9.09957,-42.271284 -5.37829,-12.015017 -12.69068,-22.184608 -21.82559,-30.353583 -5.5397,-4.953919 -6.56993,-6.384729 -6.57039,-9.125133 -3.1e-4,-1.7875 0.39994,-3.25 0.88943,-3.25 1.67845,0 12.61083,8.762323 18.61001,14.915952 l 6,6.154471 0.5,-15.121243 0.5,-15.121242 7.23651,7.336031 c 8.02185,8.132175 14.90805,16.938142 18.72365,23.943533 l 2.50955,4.607502 0.0463,58.251456 0.0463,58.25145 -2.6937,4.64104 c -4.37955,7.54566 -12.76861,18.18552 -19.79983,25.11216 L 207,220.44222 l 0,-15.44608 z m 13.06122,-39.82071 c 6.84959,-16.40222 9.45762,-36.22149 7.00769,-53.25372 C 225.14816,98.568333 218.39637,80.185303 212.77361,73 l -1.95634,-2.5 0.43862,7 c 0.27063,4.318977 1.47588,9.661218 3.14683,13.94829 4.48795,11.51447 5.91272,19.79603 5.94431,34.55171 0.0314,14.66056 -1.84557,24.88362 -6.81326,37.10916 -1.75304,4.31427 -2.53245,8.10834 -2.52949,12.31325 l 0.004,6.07759 2.99696,-4.5 c 1.64832,-2.475 4.37339,-7.79606 6.0557,-11.82457 z M 119.29159,176.2575 c 3.73537,-0.19293 9.58537,-0.19149 13,0.003 3.41462,0.19468 0.35841,0.35253 -6.79159,0.35078 -7.15,-0.002 -9.94379,-0.16103 -6.20841,-0.35396 z M 81.309869,162.5 c 0.0056,-3.3 0.192301,-4.52944 0.414862,-2.73209 0.222562,1.79735 0.217969,4.49735 -0.0102,6 -0.228174,1.50265 -0.41027,0.0321 -0.404657,-3.26791 z m 14.826313,-8.18963 c -0.124637,-2.91924 -0.45409,-3.22289 -3.886182,-3.5819 l -3.75,-0.39226 3.781385,-0.16811 c 4.102114,-0.18236 5.189547,1.04617 4.433878,5.00917 -0.343596,1.80195 -0.473432,1.60758 -0.579081,-0.8669 z M 110.25,153.75 c 0.22925,-2.98031 0.54044,-3.25742 3.75,-3.33942 3.36197,-0.0859 3.37416,-0.0738 0.30912,0.30684 -2.60985,0.32411 -3.29269,0.93218 -3.75,3.33942 -0.53317,2.80655 -0.54752,2.79231 -0.30912,-0.30684 z m 24.51166,-3.45726 c 1.24391,-0.23919 3.04391,-0.23011 4,0.0202 0.95609,0.25029 -0.0617,0.446 -2.26166,0.4349 -2.2,-0.0111 -2.98225,-0.21589 -1.73834,-0.45508 z m 22,0 c 1.24391,-0.23919 3.04391,-0.23011 4,0.0202 0.95609,0.25029 -0.0617,0.446 -2.26166,0.4349 -2.2,-0.0111 -2.98225,-0.21589 -1.73834,-0.45508 z m -84.903141,-9.55168 c 0.417646,-0.41741 24.582835,-0.64226 53.700421,-0.49966 l 52.94106,0.25927 -53.70042,0.49966 c -29.53523,0.27482 -53.358708,0.15815 -52.941061,-0.25927 z m 177.220431,-1.32439 c 0.048,-1.16495 0.28494,-1.4019 0.60416,-0.60417 0.28887,0.72187 0.25335,1.58437 -0.0789,1.91667 -0.3323,0.33229 -0.56864,-0.25834 -0.52522,-1.3125 z M 0.32007415,126 c 0,-3.575 0.18149463,-5.0375 0.40332141,-3.25 0.22182677,1.7875 0.22182677,4.7125 0,6.5 -0.22182678,1.7875 -0.40332141,0.325 -0.40332141,-3.25 z M 104.28651,111.25992 c 3.18258,-0.19905 8.13258,-0.1972 11,0.004 2.86742,0.20131 0.26349,0.36417 -5.78651,0.36191 -6.05,-0.002 -8.39607,-0.16696 -5.21349,-0.36601 z m 30.96349,0.001 c 3.1625,-0.19845 8.3375,-0.19845 11.5,0 3.1625,0.19845 0.575,0.36082 -5.75,0.36082 -6.325,0 -8.9125,-0.16237 -5.75,-0.36082 z M 81.309869,97.5 c 0.0056,-3.3 0.192301,-4.529441 0.414862,-2.732091 0.222562,1.79735 0.217969,4.49735 -0.0102,6.000001 C 81.486352,102.27056 81.304256,100.8 81.309869,97.5 Z M 96.136182,89.310365 C 96.011545,86.391133 95.682092,86.087476 92.25,85.728468 l -3.75,-0.392262 3.781385,-0.168103 c 4.102114,-0.182361 5.189547,1.046165 4.433878,5.009171 -0.343596,1.801947 -0.473432,1.607577 -0.579081,-0.866909 z M 110.25,88.75 c 0.22925,-2.980308 0.54044,-3.257421 3.75,-3.339425 3.36197,-0.0859 3.37416,-0.0738 0.30912,0.306841 -2.60985,0.32411 -3.29269,0.932185 -3.75,3.339425 -0.53317,2.806552 -0.54752,2.79231 -0.30912,-0.306841 z m 24.51166,-3.457261 c 1.24391,-0.239193 3.04391,-0.230112 4,0.02018 0.95609,0.250292 -0.0617,0.445996 -2.26166,0.434897 -2.2,-0.0111 -2.98225,-0.215885 -1.73834,-0.455078 z m 22,0 c 1.24391,-0.239193 3.04391,-0.230112 4,0.02018 0.95609,0.250292 -0.0617,0.445996 -2.26166,0.434897 -2.2,-0.0111 -2.98225,-0.215885 -1.73834,-0.455078 z M 71.858519,75.741062 c 0.417646,-0.417416 24.582835,-0.642265 53.700421,-0.499665 L 178.5,75.50067 124.79958,76.000335 C 95.26435,76.275151 71.440872,76.158478 71.858519,75.741062 Z"
       style="fill:#5a5a5a" />
    <path
       id="path3340"
       d="M 10.525443,174.35956 C 4.1084388,159.42224 1.8478012,148.69833 1.2797009,130.5 0.89894161,118.30289 1.1714974,112.25133 2.4264313,105.0391 4.2614465,94.493095 8.6767884,80.46828 12.434579,73.249396 L 14.906877,68.5 l 0.04656,57.25 c 0.02561,31.4875 -0.125038,57.25 -0.33477,57.25 -0.209732,0 -2.051684,-3.8882 -4.093226,-8.64044 z M 236.11867,125.5 l 0.0478,-57 2.36933,5 c 13.65198,28.80981 15.04044,66.67201 3.52278,96.06377 -6.35611,16.22008 -5.99271,18.91586 -5.9399,-44.06377 z M 37.880886,178.95494 C 34.090766,173.13776 28.823261,161.45984 26.303563,153.28832 23.771394,145.07636 23.593674,143.28673 23.593674,126 c 0,-17.36122 0.169673,-19.05085 2.756419,-27.448887 C 28.879543,90.339099 35.201469,76.40585 38.598826,71.555444 39.868871,69.7422 40,70.100974 40,75.389123 c 0,4.213357 -0.965714,8.412511 -3.476172,15.11522 -8.664899,23.134547 -8.653916,47.754177 0.03165,70.939887 2.759339,7.36593 3.483921,10.65376 3.248081,14.73835 -0.30221,5.2341 -0.31074,5.2464 -1.922671,2.77236 z m 173.123394,-3.53253 c -0.003,-4.20491 0.77645,-7.99898 2.52949,-12.31325 4.96769,-12.22554 6.84464,-22.4486 6.81326,-37.10916 -0.0316,-14.75568 -1.45636,-23.03724 -5.94431,-34.55171 -1.67095,-4.287072 -2.8762,-9.629313 -3.14683,-13.94829 l -0.43862,-7 1.95634,2.5 c 5.62276,7.185303 12.37455,25.568333 14.2953,38.92171 3.10494,21.58599 -2.41633,49.09146 -13.06339,65.07829 l -2.99696,4.5 -0.004,-6.07759 z M 71.442157,174.70986 c -0.272291,-0.70958 -0.370668,-8.47208 -0.218616,-17.25 L 71.5,141.5 l 53.75,-0.25869 53.75,-0.25868 0,17.50868 0,17.50869 -53.53138,0 C 82.677691,176 71.8379,175.74115 71.442157,174.70986 Z M 169,163 l 0,-6 -3.5,0 c -3.34464,0 -3.5,-0.15804 -3.5,-3.56037 0,-3.5027 -0.0607,-3.55533 -3.75,-3.25 -3.42358,0.28335 -3.77728,0.59327 -4.06336,3.56037 l -0.31336,3.25 -6.93664,0 -6.93664,0 0,-3.56037 c 0,-3.5027 -0.0607,-3.55533 -3.75,-3.25 -3.42358,0.28335 -3.77728,0.59327 -4.06336,3.56037 l -0.31336,3.25 -6.93664,0 -6.93664,0 0,-3.56037 c 0,-3.5027 -0.0607,-3.55533 -3.75,-3.25 -3.42358,0.28335 -3.77728,0.59327 -4.06336,3.56037 l -0.31336,3.25 -6.37328,0 -6.373283,0 -0.313359,-3.25 C 96.527276,150.7829 96.173579,150.47298 92.75,150.18963 89.060727,149.8843 89,149.93693 89,153.43963 89,156.92673 88.91768,157 85,157 l -4,0 0,5.33333 c 0,2.93334 0.3,5.63334 0.666667,6 C 82.033333,168.7 101.83333,169 125.66667,169 L 169,169 l 0,-6 z M 71.442157,109.70986 c -0.272291,-0.70958 -0.370668,-8.47208 -0.218616,-17.250001 L 71.5,76.5 125.25,76.241313 179,75.982626 179,93.491313 179,111 125.46862,111 C 82.677691,111 71.8379,110.74115 71.442157,109.70986 Z M 169,98 l 0,-6 -3.5,0 c -3.34464,0 -3.5,-0.158043 -3.5,-3.560365 0,-3.502709 -0.0607,-3.55534 -3.75,-3.25 -3.42358,0.283349 -3.77728,0.593263 -4.06336,3.560365 L 153.87328,92 146.93664,92 140,92 l 0,-3.560365 c 0,-3.502709 -0.0607,-3.55534 -3.75,-3.25 -3.42358,0.283349 -3.77728,0.593263 -4.06336,3.560365 L 131.87328,92 124.93664,92 118,92 l 0,-3.560365 c 0,-3.502709 -0.0607,-3.55534 -3.75,-3.25 -3.42358,0.283349 -3.77728,0.593263 -4.06336,3.560365 L 109.87328,92 103.5,92 97.126717,92 96.813358,88.75 C 96.527276,85.782898 96.173579,85.472984 92.75,85.189635 89.060727,84.884295 89,84.936926 89,88.439635 89,91.926728 88.91768,92 85,92 l -4,0 0,5.333333 c 0,2.933337 0.3,5.633337 0.666667,5.999997 C 82.033333,103.7 101.83333,104 125.66667,104 L 169,104 l 0,-6 z"
       style="fill:#252525" />
  </g>
</svg>
