<?xml version="1.0" encoding="UTF-8" standalone="no"?>
<svg
        xmlns:dc="http://purl.org/dc/elements/1.1/"
        xmlns:cc="http://creativecommons.org/ns#"
        xmlns:rdf="http://www.w3.org/1999/02/22-rdf-syntax-ns#"
        xmlns="http://www.w3.org/2000/svg"
        viewBox="0 0 59.189262 59.061131"
        height="59.061131"
        width="59.189262"
        version="1.1"
        id="svg2">
  <metadata
     id="metadata8">
    <rdf:RDF>
      <cc:Work
         rdf:about="">
        <dc:format>image/svg+xml</dc:format>
        <dc:type
           rdf:resource="http://purl.org/dc/dcmitype/StillImage" />
        <dc:title></dc:title>
      </cc:Work>
    </rdf:RDF>
  </metadata>
  <defs
     id="defs6" />
  <path
     id="path3338"
     d="m 10.087057,57.657534 c -0.33503,-0.873054 0.80763,-5.752828 2.53923,-10.84394 1.7316,-5.091114 3.14836,-9.439296 3.14836,-9.662629 0,-0.223334 -3.3418,-0.40606 -7.42623,-0.40606 -4.084425,0 -7.78873296,-0.586545 -8.23179396,-1.303433 -0.947131,-1.532491 3.71504796,-7.241847 19.86064396,-24.321567 15.89759,-16.8173588 17.50944,-15.1363488 8.62972,9.000005 -0.38414,1.044136 1.85581,1.613969 7.37041,1.875 6.042,0.285995 7.92225,0.820003 7.92225,2.249995 0,1.03125 2.19203,2.71875 4.87117,3.75 6.00291,2.310625 9.49929,6.808888 10.28583,13.233219 2.19316,17.913357 -23.44332,24.805588 -30.51879,8.204813 l -1.94482,-4.563032 -6.84947,7.1875 c -7.07069,7.419639 -8.6147,8.315057 -9.65651,5.600129 z m 39.47851,-2.808788 c 3.95018,-2.042722 7.45908,-7.618995 7.45908,-11.853841 0,-6.625179 -7.12482,-13.75 -13.75,-13.75 -4.23485,0 -9.81112,3.508895 -11.85384,7.459084 -2.39545,4.632291 -2.39689,7.946765 -0.005,12.571302 3.48379,6.736907 11.27424,9.129153 18.1502,5.573455 z M 37.024647,50.73762 c 0,-2.430941 5.32878,-16.492715 6.25,-16.492715 0.92122,0 6.25,14.061774 6.25,16.492715 0,2.049863 -2.35814,0.923455 -3.125,-1.492715 -0.43641,-1.375 -1.84266,-2.5 -3.125,-2.5 -1.28234,0 -2.68859,1.125 -3.125,2.5 -0.76686,2.41617 -3.125,3.542578 -3.125,1.492715 z m 7.5,-7.742715 c 0,-0.6875 -0.5625,-1.25 -1.25,-1.25 -0.6875,0 -1.25,0.5625 -1.25,1.25 0,0.6875 0.5625,1.25 1.25,1.25 0.6875,0 1.25,-0.5625 1.25,-1.25 z M 29.348767,26.98982 c -3.46776,-0.212434 -6.4669,-1.064016 -6.79946,-1.930649 -0.32725,-0.852811 0.25346,-4.056774 1.29048,-7.119916 l 1.88548,-5.56935 -8.66409,9.375 -8.6641,9.375 6.25395,0.380085 c 3.50743,0.213164 6.51526,1.061039 6.84896,1.930649 0.32725,0.852811 -0.25904,4.056774 -1.30287,7.119916 l -1.89787,5.56935 8.62699,-9.375 8.62699,-9.375 -6.20446,-0.380085 z"
     style="fill:#4a4a4a" />
</svg>
