<?xml version="1.0" encoding="utf-8"?><!DOCTYPE svg PUBLIC "-//W3C//DTD SVG 1.1//EN" "http://www.w3.org/Graphics/SVG/1.1/DTD/svg11.dtd">
<svg version="1.1" xmlns="http://www.w3.org/2000/svg"
     width="24" height="32" viewBox="0 0 24 32" data-tags="microphone"><g fill="#444" transform="scale(0.03125 0.03125)"><path d="M384 512c70.752 0 128-57.312 128-128v-256c0-70.688-57.248-128-128-128s-128 57.312-128 128v256c0 70.688 57.248 128 128 128zM512 896h-64v-134.496c181.248-30.624 320-187.68 320-377.504v-62.016c0-35.36-28.64-64-64-64s-64 28.64-64 64v62.016c0 141.184-114.752 256-256 256s-256-114.816-256-256v-62.016c0-35.36-28.64-64-64-64s-64 28.64-64 64v62.016c0 189.824 138.752 346.88 320 377.504v134.496h-64c-70.752 0-128 57.248-128 128h512c0-70.752-57.248-128-128-128z" /></g></svg>