<?xml version="1.0" encoding="utf-8"?><!DOCTYPE svg PUBLIC "-//W3C//DTD SVG 1.1//EN" "http://www.w3.org/Graphics/SVG/1.1/DTD/svg11.dtd">
<svg version="1.1" xmlns="http://www.w3.org/2000/svg"
     width="32" height="32" viewBox="0 0 32 32" data-tags="microphone,voice,record"><g fill="#444" transform="scale(0.03125 0.03125)"><path d="M584.032 412.992c19.744-67.168 11.392-140.8-25.024-202.464 0.8 1.12-348.128 352.864-350.624 350.656 60.64 35.808 134.272 45.888 200.544 27.392-0.48-1.696 173.696-175.84 175.104-175.584zM521.792 154.432c-47.008-46.336-114.272-77.76-185.408-77.76-143.776 0-260.352 116.864-260.352 260.992 0 70.336 32 138.432 77.12 185.376 0.096 0 366.432-365.6 368.64-368.608zM889.984 846.912c0 0 8.512-73.536-12.704-94.752-1.408-1.408-244.672-298.4-244.672-298.4l-181.024 181.024 296.992 246.048c19.808 22.624 96.16 11.328 96.16 11.328l60.8 55.168 42.432-42.432-57.984-57.984z" /></g></svg>