<?xml version="1.0" encoding="utf-8"?><!DOCTYPE svg PUBLIC "-//W3C//DTD SVG 1.1//EN" "http://www.w3.org/Graphics/SVG/1.1/DTD/svg11.dtd">
<svg version="1.1" xmlns="http://www.w3.org/2000/svg"
     width="32" height="32" viewBox="0 0 32 32" data-tags="microphone,record,voice"><g fill="#444" transform="scale(0.03125 0.03125)"><path d="M524.8 829.952v95.776c95.744 5.152 169.76 36.832 169.76 66.4 0 0.736-392.576 0.736-392.576 0 0-28.448 68.544-59.168 159.136-65.984v-96.576c-115.648-16.576-204.864-115.104-204.864-235.328v-49.76h31.84v49.76c0 114.24 92.608 206.88 206.848 206.912h0.128c114.24-0.032 206.848-92.672 206.848-206.912v-49.76h33.856v49.76c-0.032 121.632-93.344 220.896-210.976 235.712zM496 766.56c-97.12 0-175.808-78.688-175.808-175.808v-79.264h143.84v-31.968h-143.84v-31.968h143.84v-31.936h-143.84v-31.968h143.84l-0-31.968h-143.84v-31.968h143.84l-0-31.968h-143.84v-50.624c0-97.088 78.688-173.824 175.808-173.824 97.088 0 175.808 76.704 175.808 173.824v50.624h-143.872v31.968h143.872v31.968h-143.872v31.968h143.872v31.968h-143.872v31.936h143.872v31.968h-143.872v31.968h143.872v79.264c0 97.12-78.72 175.808-175.808 175.808z" /></g></svg>