<?xml version="1.0" encoding="utf-8"?><!DOCTYPE svg PUBLIC "-//W3C//DTD SVG 1.1//EN" "http://www.w3.org/Graphics/SVG/1.1/DTD/svg11.dtd">
<svg version="1.1" xmlns="http://www.w3.org/2000/svg"
     width="32" height="32" viewBox="0 0 32 32" data-tags="microphone,record,voice"><g fill="#444" transform="scale(0.03125 0.03125)"><path d="M524.832 829.152v95.84c95.84 5.184 169.984 36.928 169.984 66.496 0 0.736-393.024 0.736-393.024 0 0-28.512 68.608-59.232 159.328-66.048v-96.672c-115.808-16.608-205.12-115.2-205.12-235.616v-47.776h31.872v47.776c0 114.368 92.704 207.104 207.072 207.136h0.128c114.368-0.032 209.056-92.736 209.056-207.136v-47.776h31.872v47.776c0 121.792-93.408 221.152-211.168 236zM494.976 766.432c-96.768 0-175.296-78.496-175.296-175.296v-45.792h352.576v45.792c-0 96.8-80.512 175.296-177.28 175.296zM319.68 239.2c0-96.8 78.496-175.264 175.296-175.264s177.28 78.464 177.28 175.264v274.304h-352.576v-274.304z" /></g></svg>