<?xml version="1.0" encoding="utf-8"?><!DOCTYPE svg PUBLIC "-//W3C//DTD SVG 1.1//EN" "http://www.w3.org/Graphics/SVG/1.1/DTD/svg11.dtd">
<svg version="1.1" xmlns="http://www.w3.org/2000/svg"
     width="32" height="32" viewBox="0 0 32 32" data-tags="microphone,record,voice"><g fill="#444" transform="scale(0.03125 0.03125)"><path d="M736 593.152v-47.776h-31.872v47.776c0 114.368-94.688 207.104-209.056 207.136h-0.128c-114.368-0.032-207.072-92.736-207.072-207.136v-47.776h-31.872v47.776c0 120.416 89.312 219.008 205.12 235.584v96.672c-90.752 6.848-159.328 37.568-159.328 66.048 0 0.736 393.024 0.736 393.024 0 0-29.568-74.112-61.312-169.952-66.496v-95.84c117.728-14.816 211.136-114.176 211.136-235.968zM494.976 766.432c96.8 0 177.28-78.496 177.28-175.296v-45.792l-352.576 0v45.792c0 96.8 78.496 175.296 175.296 175.296zM672.256 239.2c0-96.8-80.48-175.264-177.28-175.264-96.768 0-175.296 78.464-175.296 175.264v274.304h352.576l-0-274.304zM560 128.384c8.8 0 16 7.168 16 16s-7.2 16-16 16c-8.832 0-16-7.168-16-16s7.168-16 16-16zM496 128.384c8.8 0 16 7.168 16 16s-7.2 16-16 16c-8.832 0-16-7.168-16-16s7.168-16 16-16zM432 128.384c8.8 0 16 7.168 16 16s-7.2 16-16 16c-8.832 0-16-7.168-16-16s7.168-16 16-16zM368 480.384c-8.832 0-16-7.168-16-16s7.168-16 16-16c8.8 0 16 7.168 16 16s-7.2 16-16 16zM368 416.384c-8.832 0-16-7.168-16-16s7.168-16 16-16c8.8 0 16 7.168 16 16s-7.2 16-16 16zM368 352.384c-8.832 0-16-7.168-16-16s7.168-16 16-16c8.8 0 16 7.168 16 16 0 8.832-7.2 16-16 16zM368 288.384c-8.832 0-16-7.168-16-16s7.168-16 16-16c8.8 0 16 7.168 16 16s-7.2 16-16 16zM400 224.384c-8.832 0-16-7.168-16-16s7.168-16 16-16c8.8 0 16 7.168 16 16s-7.2 16-16 16zM432 480.384c-8.832 0-16-7.168-16-16s7.168-16 16-16c8.8 0 16 7.168 16 16s-7.2 16-16 16zM432 416.384c-8.832 0-16-7.168-16-16s7.168-16 16-16c8.8 0 16 7.168 16 16s-7.2 16-16 16zM432 352.384c-8.832 0-16-7.168-16-16s7.168-16 16-16c8.8 0 16 7.168 16 16 0 8.832-7.2 16-16 16zM432 288.384c-8.832 0-16-7.168-16-16s7.168-16 16-16c8.8 0 16 7.168 16 16s-7.2 16-16 16zM464 224.384c-8.832 0-16-7.168-16-16s7.168-16 16-16c8.8 0 16 7.168 16 16s-7.2 16-16 16zM496 480.384c-8.832 0-16-7.168-16-16s7.168-16 16-16c8.8 0 16 7.168 16 16s-7.2 16-16 16zM496 416.384c-8.832 0-16-7.168-16-16s7.168-16 16-16c8.8 0 16 7.168 16 16s-7.2 16-16 16zM496 352.384c-8.832 0-16-7.168-16-16s7.168-16 16-16c8.8 0 16 7.168 16 16 0 8.832-7.2 16-16 16zM496 288.384c-8.832 0-16-7.168-16-16s7.168-16 16-16c8.8 0 16 7.168 16 16s-7.2 16-16 16zM528 224.384c-8.832 0-16-7.168-16-16s7.168-16 16-16c8.8 0 16 7.168 16 16s-7.2 16-16 16zM560 480.384c-8.832 0-16-7.168-16-16s7.168-16 16-16c8.8 0 16 7.168 16 16s-7.2 16-16 16zM560 416.384c-8.832 0-16-7.168-16-16s7.168-16 16-16c8.8 0 16 7.168 16 16s-7.2 16-16 16zM560 352.384c-8.832 0-16-7.168-16-16s7.168-16 16-16c8.8 0 16 7.168 16 16 0 8.832-7.2 16-16 16zM560 288.384c-8.832 0-16-7.168-16-16s7.168-16 16-16c8.8 0 16 7.168 16 16s-7.2 16-16 16zM592 224.384c-8.832 0-16-7.168-16-16s7.168-16 16-16c8.8 0 16 7.168 16 16s-7.2 16-16 16zM624 480.384c-8.832 0-16-7.168-16-16s7.168-16 16-16c8.8 0 16 7.168 16 16s-7.2 16-16 16zM624 416.384c-8.832 0-16-7.168-16-16s7.168-16 16-16c8.8 0 16 7.168 16 16s-7.2 16-16 16zM624 352.384c-8.832 0-16-7.168-16-16s7.168-16 16-16c8.8 0 16 7.168 16 16 0 8.832-7.2 16-16 16zM624 288.384c-8.832 0-16-7.168-16-16s7.168-16 16-16c8.8 0 16 7.168 16 16s-7.2 16-16 16z" /></g></svg>