<?xml version="1.0" encoding="utf-8"?><!DOCTYPE svg PUBLIC "-//W3C//DTD SVG 1.1//EN" "http://www.w3.org/Graphics/SVG/1.1/DTD/svg11.dtd">
<svg version="1.1" xmlns="http://www.w3.org/2000/svg"
     width="24" height="24" viewBox="0 0 24 24" data-tags="music"><g fill="#444" transform="scale(0.0234375 0.0234375)"><path d="M921.6 93.867c-8.533-8.533-21.333-8.533-34.133-8.533l-512 85.333c-17.067 4.267-34.133 21.333-34.133 42.667v469.333h-128c-72.533 0-128 55.467-128 128s55.467 128 128 128h85.333c72.533 0 128-55.467 128-128v-563.2l426.667-72.533v422.4h-128c-72.533 0-128 55.467-128 128s55.467 128 128 128h85.333c72.533 0 128-55.467 128-128v-597.333c0-12.8-4.267-25.6-17.067-34.133zM341.333 810.667c0 25.6-17.067 42.667-42.667 42.667h-85.333c-25.6 0-42.667-17.067-42.667-42.667s17.067-42.667 42.667-42.667h128v42.667zM853.333 725.333c0 25.6-17.067 42.667-42.667 42.667h-85.333c-25.6 0-42.667-17.067-42.667-42.667s17.067-42.667 42.667-42.667h128v42.667z" /></g></svg>