<?xml version="1.0" encoding="utf-8"?><!DOCTYPE svg PUBLIC "-//W3C//DTD SVG 1.1//EN" "http://www.w3.org/Graphics/SVG/1.1/DTD/svg11.dtd">
<svg version="1.1" xmlns="http://www.w3.org/2000/svg"
     width="32" height="32" viewBox="0 0 32 32" data-tags="phone,cellular phone,mobile"><g fill="#444" transform="scale(0.03125 0.03125)"><path d="M703.968 128h-384c-35.328 0-63.968 28.672-63.968 64v640c0 35.328 28.64 64 63.968 64h384c35.36 0 64.032-28.672 64.032-64v-640c0-35.328-28.672-64-64.032-64zM416 160h160l1.984 32h-161.984v-32zM511.328 848c-17.664 0-32-14.304-32-32s14.336-32 32-32c17.696 0 32 14.304 32 32s-14.336 32-32 32zM703.968 736h-384l0.672-512h383.328v512z" /></g></svg>