<?xml version="1.0" encoding="utf-8"?><!DOCTYPE svg PUBLIC "-//W3C//DTD SVG 1.1//EN" "http://www.w3.org/Graphics/SVG/1.1/DTD/svg11.dtd">
<svg version="1.1" xmlns="http://www.w3.org/2000/svg"
     width="24" height="32" viewBox="0 0 24 32" data-tags="iphone,touch,phone,mobile"><g fill="#444" transform="scale(0.03125 0.03125)"><path d="M512 0h-256c-141.376 0-256 114.624-256 256v512c0 141.376 114.624 256 256 256h256c141.376 0 256-114.624 256-256v-512c0-141.376-114.624-256-256-256zM384 961.984c-36.448 0-65.984-29.504-65.984-65.984s29.568-65.984 65.984-65.984 65.984 29.504 65.984 65.984-29.536 65.984-65.984 65.984zM640 768h-512v-512c0-70.496 57.44-128 128-128h256c70.496 0 128 57.504 128 128v512z" /></g></svg>