<?xml version="1.0" encoding="utf-8"?><!DOCTYPE svg PUBLIC "-//W3C//DTD SVG 1.1//EN" "http://www.w3.org/Graphics/SVG/1.1/DTD/svg11.dtd">
<svg version="1.1" xmlns="http://www.w3.org/2000/svg"
     width="24" height="28" viewBox="0 0 24 28" data-code="61469" data-tags="play-circle-o"><g fill="#444" transform="scale(0.02734375 0.02734375)"><path d="M676.571 512c0 13.143-6.857 25.143-18.286 31.429l-310.857 182.857c-5.714 3.429-12 5.143-18.286 5.143s-12.571-1.714-18.286-4.571c-11.429-6.857-18.286-18.857-18.286-32v-365.714c0-13.143 6.857-25.143 18.286-32 11.429-6.286 25.714-6.286 36.571 0.571l310.857 182.857c11.429 6.286 18.286 18.286 18.286 31.429zM749.714 512c0-171.429-139.429-310.857-310.857-310.857s-310.857 139.429-310.857 310.857 139.429 310.857 310.857 310.857 310.857-139.429 310.857-310.857zM877.714 512c0 242.286-196.571 438.857-438.857 438.857s-438.857-196.571-438.857-438.857 196.571-438.857 438.857-438.857 438.857 196.571 438.857 438.857z" /></g></svg>