<?xml version="1.0" encoding="utf-8"?><!DOCTYPE svg PUBLIC "-//W3C//DTD SVG 1.1//EN" "http://www.w3.org/Graphics/SVG/1.1/DTD/svg11.dtd">
<svg version="1.1" xmlns="http://www.w3.org/2000/svg"
     width="24" height="24" viewBox="0 0 24 24" data-tags="media-play-outline"><g fill="#444" transform="scale(0.0234375 0.0234375)"><path d="M383.915 298.752c1.152 1.109 2.389 2.261 3.627 3.328l215.509 209.92-217.429 211.797c-0.555 0.512-1.067 1.024-1.621 1.536l-0.085-426.581M384 213.333c-47.104 0-85.333 38.229-85.333 85.333v426.667c0 47.104 38.229 85.333 85.333 85.333 23.168 0 44.075-9.301 59.435-24.235 112.811-109.781 281.899-274.432 281.899-274.432s-169.088-164.651-281.771-274.475c-15.488-14.891-36.395-24.192-59.563-24.192z" /></g></svg>