<?xml version="1.0" encoding="utf-8"?><!DOCTYPE svg PUBLIC "-//W3C//DTD SVG 1.1//EN" "http://www.w3.org/Graphics/SVG/1.1/DTD/svg11.dtd">
<svg version="1.1" xmlns="http://www.w3.org/2000/svg"
     width="33" height="32" viewBox="0 0 33 32" data-tags="radio"><g fill="#444" transform="scale(0.03125 0.03125)"><path d="M992 928.128h-928c-35.328 0-64-28.608-64-63.84v-542.848c0-35.296 28.672-63.872 64-63.872h678.016l-264.512-143.776c-5.76 10.592-16.576 18.048-29.504 18.048-18.784 0-33.984-15.2-33.984-33.92 0-18.72 15.2-33.92 33.984-33.92s33.984 15.2 33.984 33.952c0 4.48-0.96 8.672-2.56 12.608l380.576 147.040 132 0c35.328 0 64 28.608 64 63.872v542.848c0 35.2-28.672 63.808-64 63.808zM896 832.992c35.328 0 64-28.608 64-63.872s-28.672-63.84-64-63.84c-35.36 0-64 28.608-64 63.84 0 35.296 28.64 63.872 64 63.872zM704 832.352c35.328 0 64-28.608 64-63.872s-28.672-63.84-64-63.84-64 28.608-64 63.84c0 35.264 28.672 63.872 64 63.872zM336 353.376c-132.544 0-240 107.232-240 239.456 0 132.288 107.456 239.488 240 239.488 132.576 0 240-107.232 240-239.488 0-132.224-107.424-239.456-240-239.456zM960 353.376h-320v95.776h176l32-63.84 32 63.84 80-0v-95.776zM512 640.736h25.888c-2.624 11.040-6.176 21.664-10.496 31.936h-15.392v-31.936zM512 576.896h30.368c0.448 5.344 1.632 10.464 1.632 15.936s-1.184 10.624-1.632 15.968h-30.368v-31.904zM512 513.024h15.744c4.32 10.176 7.328 20.992 9.984 31.936h-25.728v-31.936zM448 481.088v-31.936h32v31.936h-32zM384 768.48h32v15.328c-10.272 4.256-20.96 7.712-32 10.4v-25.728zM384 704.64h32v31.936h-32v-31.936zM384 640.736h32v31.936h-32v-31.936zM384 576.896h32v31.904h-32v-31.904zM384 513.024h32v31.936h-32v-31.936zM384 449.152h32v31.936h-32v-31.936zM384 391.552c11.008 2.688 21.728 6.144 32 10.4v15.296h-32v-25.696zM320 798.72v-30.24h32v30.784c-5.312 0.416-10.56 1.152-16 1.152-5.504 0-10.624-1.248-16-1.696zM320 704.64h32v31.936h-32v-31.936zM320 640.736h32v31.936h-32v-31.936zM320 576.896h32v31.904h-32v-31.904zM320 513.024h32v31.936h-32v-31.936zM320 449.152h32v31.936h-32v-31.936zM320 387.008c5.376-0.448 10.496-1.696 16-1.696 5.44 0 10.688 0.736 16 1.152v30.784h-32v-30.24zM256 768.48h32v25.472c-10.944-2.72-21.792-5.824-32-10.144v-15.328zM256 704.64h32v31.936h-32v-31.936zM256 640.736h32v31.936h-32v-31.936zM256 576.896h32v31.904h-32v-31.904zM256 513.024h32v31.936h-32v-31.936zM256 449.152h32v31.936l-32 0v-31.936zM256 402.016c10.208-4.384 21.056-7.456 32-10.208v25.44h-32v-15.232zM192 704.64h32v31.936h-32v-31.936zM192 640.736h32v31.936h-32v-31.936zM192 576.896h32v31.904h-32v-31.904zM192 513.024h32v31.936h-32v-31.936zM192 449.152h32v31.936l-32 0v-31.936zM480 544.96h-32v-31.936h32v31.936zM480 608.8h-32v-31.904h32v31.904zM480 672.672h-32v-31.936h32v31.936zM480 736.576h-32v-31.936h32v31.936zM134.112 640.736h25.888v31.936h-15.36c-4.32-10.272-7.904-20.896-10.528-31.936zM128 592.832c0-5.472 1.216-10.592 1.632-15.936h30.368v31.904h-30.368c-0.448-5.344-1.632-10.496-1.632-15.968zM144.256 513.024h15.744v31.936h-25.728c2.656-10.944 5.664-21.728 9.984-31.936zM256 960.064c0 17.632-14.304 31.936-32 31.936h-64c-17.664 0-32-14.304-32-31.936s0-31.936 0-31.936h128c0 0 0 14.304 0 31.936zM928 960.064c0 17.632-14.304 31.936-32 31.936h-64c-17.696 0-32-14.304-32-31.936s0-31.936 0-31.936h128c0 0 0 14.304 0 31.936z" /></g></svg>