<?xml version="1.0" encoding="UTF-8" standalone="no"?>
<svg
        xmlns:dc="http://purl.org/dc/elements/1.1/"
        xmlns:cc="http://creativecommons.org/ns#"
        xmlns:rdf="http://www.w3.org/1999/02/22-rdf-syntax-ns#"
        xmlns="http://www.w3.org/2000/svg"
        viewBox="0 0 59.958569 60"
        height="60"
        width="59.958569"
        version="1.1"
        id="svg2">
  <metadata
     id="metadata8">
    <rdf:RDF>
      <cc:Work
         rdf:about="">
        <dc:format>image/svg+xml</dc:format>
        <dc:type
           rdf:resource="http://purl.org/dc/dcmitype/StillImage" />
        <dc:title></dc:title>
      </cc:Work>
    </rdf:RDF>
  </metadata>
  <defs
     id="defs6" />
  <path
     id="path3338"
     d="M 7.5,58.75 C 7.5,58.0625 6.4875,57.5 5.25,57.5 1.5846909,57.5 0,54.858849 0,48.75 0,41.48777 1.5302777,40 9,40 l 6,0 0,-8.141961 C 15,27.37996 14.348726,22.673222 13.552724,21.398621 11.634052,18.326339 13.036238,15 16.25,15 c 3.213762,0 4.615947,3.326339 2.697276,6.398621 C 18.151274,22.673222 17.5,27.37996 17.5,31.858039 L 17.5,40 37.25,40 c 13.694445,0 20.209915,0.459915 21.25,1.5 1.94476,1.94476 1.94476,12.55524 0,14.5 -0.825,0.825 -2.5125,1.5 -3.75,1.5 -1.2375,0 -2.25,0.5625 -2.25,1.25 C 52.5,59.4375 51.375,60 50,60 48.625,60 47.5,59.4375 47.5,58.75 47.5,57.97619 40.833334,57.5 30,57.5 19.166666,57.5 12.5,57.97619 12.5,58.75 12.5,59.4375 11.375,60 10,60 8.625,60 7.5,59.4375 7.5,58.75 Z M 55,48.75 55,45 30,45 5,45 l 0,3.75 0,3.75 25,0 25,0 0,-3.75 z m -47.5,0 c 0,-0.6875 1.125,-1.25 2.5,-1.25 1.375,0 2.5,0.5625 2.5,1.25 C 12.5,49.4375 11.375,50 10,50 8.625,50 7.5,49.4375 7.5,48.75 Z m 25,0 c 0,-0.6875 1.125,-1.25 2.5,-1.25 1.375,0 2.5,0.5625 2.5,1.25 0,0.6875 -1.125,1.25 -2.5,1.25 -1.375,0 -2.5,-0.5625 -2.5,-1.25 z m 7.5,0 c 0,-0.6875 1.125,-1.25 2.5,-1.25 1.375,0 2.5,0.5625 2.5,1.25 C 45,49.4375 43.875,50 42.5,50 41.125,50 40,49.4375 40,48.75 Z m 7.5,0 c 0,-0.6875 1.125,-1.25 2.5,-1.25 1.375,0 2.5,0.5625 2.5,1.25 0,0.6875 -1.125,1.25 -2.5,1.25 -1.375,0 -2.5,-0.5625 -2.5,-1.25 z m -30,-30 c 0,-0.6875 -0.5625,-1.25 -1.25,-1.25 -0.6875,0 -1.25,0.5625 -1.25,1.25 0,0.6875 0.5625,1.25 1.25,1.25 0.6875,0 1.25,-0.5625 1.25,-1.25 z M 9.82598,9.9584134 C 11.449019,8.606286 14.339828,7.5 16.25,7.5 c 3.877835,0 11.030506,4.884256 7.261271,4.958413 C 22.34872,12.481286 21.049899,11.9375 20.625,11.25 20.200101,10.5625 18.231351,10 16.25,10 c -1.981351,0 -3.950102,0.5625 -4.375,1.25 -0.424898,0.6875 -1.72372,1.231286 -2.8862712,1.208413 C 7.2755591,12.424707 7.4342211,11.950949 9.82598,9.9584134 Z M 2.5,6.2754049 C 2.5,4.339217 12.007631,0 16.25,0 20.492369,0 30,4.339217 30,6.2754049 30,7.883182 30.054377,7.8955115 24.375,5 18.188934,1.8461642 14.311066,1.8461642 8.125,5 2.4456225,7.8955115 2.5,7.883182 2.5,6.2754049 Z"
     style="fill:#454545" />
</svg>
