<?xml version="1.0" encoding="UTF-8" standalone="no"?>
<svg
        xmlns:dc="http://purl.org/dc/elements/1.1/"
        xmlns:cc="http://creativecommons.org/ns#"
        xmlns:rdf="http://www.w3.org/1999/02/22-rdf-syntax-ns#"
        xmlns="http://www.w3.org/2000/svg"
        viewBox="0 0 300 300"
        height="300"
        width="300"
        version="1.1"
        id="svg2">
  <metadata
     id="metadata8">
    <rdf:RDF>
      <cc:Work
         rdf:about="">
        <dc:format>image/svg+xml</dc:format>
        <dc:type
           rdf:resource="http://purl.org/dc/dcmitype/StillImage" />
        <dc:title></dc:title>
      </cc:Work>
    </rdf:RDF>
  </metadata>
  <defs
     id="defs6" />
  <path
     id="path3350"
     d="m 157.85382,266.6245 c -0.30125,-0.78506 -0.4202,-6.80118 -0.26433,-13.36916 l 0.28339,-11.94178 6.23124,0.009 c 5.13672,0.007 6.62974,0.40753 8.5,2.27778 2.00012,2.00013 2.26876,3.26865 2.26876,10.71321 0,7.37992 -0.27874,8.72319 -2.21116,10.6556 -2.77758,2.77759 -13.90013,4.02095 -14.8079,1.65534 z m 10.94763,-5.38237 c 1.81622,-1.81622 2.15974,-10.46078 0.53625,-13.49431 -0.59362,-1.10919 -2.08657,-1.93426 -3.5,-1.93426 -2.42644,0 -2.46482,0.13236 -2.46482,8.5 0,7.7284 0.17507,8.5 1.92857,8.5 1.06072,0 2.63572,-0.70714 3.5,-1.57143 z m 23.07143,5.4167 c -3.78764,-2.07168 -4.5,-4.02099 -4.5,-12.31389 0,-9.45426 1.33559,-12.12851 6.54541,-13.10588 4.42574,-0.83027 8.85707,0.96766 10.32487,4.18914 0.62135,1.36371 1.12972,5.64291 1.12972,9.50934 0,6.43652 -0.24672,7.27658 -2.92308,9.95294 -3.09975,3.09975 -6.96211,3.7455 -10.57692,1.76835 z m 7.46482,-5.77953 c 1.33605,-2.49643 1.33605,-10.63505 0,-13.13148 -1.16668,-2.17996 -3.96296,-2.53612 -5.76482,-0.73426 -0.67104,0.67104 -1.2,3.88889 -1.2,7.3 0,3.41111 0.52896,6.62896 1.2,7.3 1.80186,1.80186 4.59814,1.4457 5.76482,-0.73426 z m 9.78518,6.24493 c -1.03742,-0.2711 -1.75,-1.40956 -1.75,-2.7959 0,-2.14594 0.39128,-2.32524 4.75,-2.17667 4.40099,0.15 4.75,-0.0157 4.75,-2.25477 0,-1.80433 -0.76013,-2.66087 -3,-3.38048 -4.61853,-1.48382 -6.5,-3.63262 -6.5,-7.42358 0,-4.72215 1.46359,-7.00254 4.99168,-7.77744 4.90953,-1.07832 9.00832,0.26612 9.00832,2.95479 0,2.13168 -0.32515,2.26106 -4.5,1.79049 -4.29049,-0.4836 -4.5,-0.38838 -4.5,2.04529 0,2.06815 0.71157,2.78169 3.75,3.76037 4.89294,1.57602 5.92505,2.46701 6.53128,5.63831 1.42362,7.4472 -4.8305,11.89335 -13.53128,9.61959 z m -145.75,-12.81067 0,-12.5 7.56955,0 c 7.27792,0 7.55724,0.0867 7.25,2.25 -0.27269,1.92008 -1.01606,2.29469 -5.06955,2.55479 -4.28852,0.27518 -4.75,0.54235 -4.75,2.75 0,2.12786 0.45425,2.44521 3.5,2.44521 3.06667,0 3.5,0.30952 3.5,2.5 0,2.19048 -0.43333,2.5 -3.5,2.5 l -3.5,0 0,5 c 0,4.66667 -0.16667,5 -2.5,5 l -2.5,0 0,-12.5 z m 18,0.0733 c 0,-11.02536 0.19734,-12.46897 1.75,-12.80177 3.90517,-0.83704 5.0417,0.37225 6.83004,7.2673 0.97824,3.77164 2.07634,6.67352 2.44023,6.44862 0.36389,-0.2249 1.44668,-3.30916 2.40621,-6.85392 1.75008,-6.46532 2.9666,-7.6887 6.82352,-6.862 1.55266,0.3328 1.75,1.77641 1.75,12.80177 l 0,12.4267 -2.5,0 c -2.38758,0 -2.50523,-0.28104 -2.6164,-6.25 l -0.1164,-6.25 -1.52827,5.25 c -1.35275,4.64705 -1.83603,5.25 -4.20803,5.25 -2.3085,0 -2.89866,-0.65809 -4.25972,-4.75 l -1.57995,-4.75 -0.0956,5.75 c -0.0905,5.44117 -0.22989,5.75 -2.59562,5.75 l -2.5,0 0,-12.42668 z m 37,-0.69351 0,-13.12019 5.96253,0.43129 c 7.41108,0.53607 10.03747,2.5879 10.03747,7.84163 0,2.089 -0.65824,4.26886 -1.5,4.96746 -2.03131,1.68584 -1.89374,2.83259 0.89191,7.43467 l 2.38165,3.93466 3.64763,-11.68466 c 3.51763,-11.26824 3.74757,-11.68465 6.45216,-11.68465 2.71112,0 2.9144,0.37477 6.10215,11.25 1.81368,6.1875 3.5093,11.8125 3.76804,12.5 0.30203,0.80252 -0.47168,1.25 -2.1613,1.25 -1.88706,0 -2.9007,-0.70741 -3.58224,-2.5 -0.76439,-2.0105 -1.63692,-2.5 -4.4562,-2.5 -2.90542,0 -3.61314,0.42807 -4.13316,2.5 -0.56756,2.26134 -1.11829,2.4999 -5.76905,2.49898 -5.12834,-0.001 -5.14883,-0.0139 -7.94928,-5 -1.54422,-2.74944 -3.23172,-4.99898 -3.75,-4.99898 -0.51827,0 -0.94231,2.25 -0.94231,5 0,4.66667 -0.16667,5 -2.5,5 l -2.5,0 0,-13.12019 z m 28.93019,-0.12321 c -0.5116,-1.78387 -0.96182,-3.47137 -1.00048,-3.75 -0.14735,-1.06208 -1.7925,3.57709 -1.85942,5.2434 -0.0436,1.08651 0.66152,1.75 1.8599,1.75 1.70138,0 1.81993,-0.38449 1,-3.2434 z m -18.43019,-4.75658 c 0,-1.9839 -0.56771,-2.56532 -2.75,-2.81642 -2.48214,-0.2856 -2.75,-0.0113 -2.75,2.81642 0,2.82769 0.26786,3.10202 2.75,2.81642 2.18229,-0.2511 2.75,-0.83252 2.75,-2.81642 z m 49.5,5.5 0,-12.5 3,0 3,0 0,12.5 0,12.5 -3,0 -3,0 0,-12.5 z m -132.643,-51.48408 c -5.4534,-2.21981 -5.357,-1.19082 -5.357,-57.18266 l 0,-51.72173 2.41113,-2.80577 c 2.35857,-2.74461 2.67461,-2.81303 14.5,-3.13951 l 12.08887,-0.33375 0,-21.33521 c 0,-18.00789 -0.25761,-21.78407 -1.65182,-24.21334 -1.44987,-2.52625 -1.48043,-3.23012 -0.25,-5.7572 1.99365,-4.09457 6.33411,-5.33847 9.75545,-2.79573 3.16331,2.35096 3.8889,6.4868 1.71903,9.79843 -1.3042,1.99047 -1.57266,5.98812 -1.57266,23.4188 l 0,21.01862 85.08681,0.26656 85.0868,0.26657 2.4132,2.80576 2.41319,2.80577 0,51.88847 0,51.88847 -2.41325,2.80577 -2.41325,2.80576 -99.83675,0.19412 c -55.03204,0.107 -100.79848,-0.19736 -101.97975,-0.6782 z m 198.643,-57.01592 0,-49 -98,0 -98,0 0,49 0,49 98,0 98,0 0,-49 z M 88.62356,185.33197 c -17.24437,-4.85228 -29.49801,-19.15259 -30.91724,-36.08119 -1.10748,-13.20994 2.69655,-23.56517 12.11758,-32.9862 12.06447,-12.06448 27.94049,-15.50329 43.80107,-9.48749 15.9352,6.04411 26.01576,20.74134 26.08852,38.03647 0.0587,13.96397 -5.64698,25.65016 -16.36494,33.51786 -9.6045,7.05035 -24.13645,9.97999 -34.72499,7.00055 z m 12.01835,-7.17435 c -0.67703,-0.27392 -2.02703,-0.29059 -3,-0.0371 -0.97297,0.25354 -0.41903,0.47766 1.23097,0.49804 1.65,0.0204 2.44606,-0.18706 1.76903,-0.46099 z m -10.18766,-1.93253 c -2.98025,-0.80127 -6.87426,-2.35648 -8.65337,-3.45603 -6.67207,-4.12357 -14.19713,-14.75035 -14.48498,-20.4555 -0.0555,-1.1 -0.32658,-1.44142 -0.60239,-0.75872 -1.47317,3.64643 5.69242,15.36655 12.41972,20.31387 4.59587,3.37983 10.53299,5.80168 14.23965,5.80858 1.375,0.003 0.0616,-0.65093 -2.91863,-1.4522 z m 22.41863,-1.29369 c 11.60578,-5.57192 18.65583,-16.48248 18.73414,-28.99274 0.0593,-9.47944 -2.36258,-16.0103 -8.37825,-22.5924 -7.2406,-7.92237 -14.12158,-11.03005 -24.35589,-10.99992 -13.58013,0.04 -23.81347,6.26469 -29.5903,17.99908 -2.36385,4.80166 -3.21372,8.02841 -3.46729,13.16444 l -0.33592,6.8037 0.87269,-6.83847 c 1.15053,-9.01569 4.93554,-16.50043 11.18617,-22.12029 20.47595,-18.40964 52.83465,-3.75245 52.83465,23.93197 0,15.17815 -10.076,27.98524 -24.73447,31.43874 -2.84028,0.66916 -3.15124,0.91164 -1.26553,0.98681 1.375,0.0548 5.2,-1.1966 8.5,-2.78092 z m -3.99142,-7.98282 c 4.54588,-2.06515 10.07723,-7.89947 12.11652,-12.78017 1.76644,-4.22769 1.76644,-13.48201 0,-17.7097 -5.48636,-13.13068 -21.29788,-18.7538 -33.72893,-11.99515 -16.49794,8.96978 -16.85772,32.02314 -0.64488,41.32112 4.36992,2.50613 6.337,3.00801 11.74871,2.99753 4.12901,-0.008 7.9622,-0.67684 10.50858,-1.83363 z m 88.50748,-1.84174 c -5.05622,-6.42794 2.84928,-14.33344 9.27722,-9.27722 1.84102,1.44814 2.70672,3.06539 2.70672,5.05652 0,6.53546 -7.95838,9.33837 -11.98394,4.2207 z m 20,0 c -5.05622,-6.42794 2.84928,-14.33344 9.27722,-9.27722 1.84102,1.44814 2.70672,3.06539 2.70672,5.05652 0,6.53546 -7.95838,9.33837 -11.98394,4.2207 z M 152.13866,144.8972 c -3.21408,-2.8702 -3.27113,-3.07315 -3.6039,-12.82122 -0.4177,-12.2358 1.04271,-16.6143 6.27001,-18.79841 5.15419,-2.15356 70.98203,-2.15356 76.13622,0 5.2273,2.18411 6.68771,6.56261 6.27001,18.79841 -0.33277,9.74807 -0.38982,9.95102 -3.6039,12.82122 l -3.26577,2.91636 -37.46845,0 -37.46845,0 -3.26577,-2.91636 z m 76.02043,-14.83364 -0.28621,-9.75 -35,0 -35,0 -0.28621,9.75 -0.28621,9.75 35.57242,0 35.57242,0 -0.28621,-9.75 z"
     style="fill:#0e0e0e" />
</svg>
