<?xml version="1.0" encoding="utf-8"?><!DOCTYPE svg PUBLIC "-//W3C//DTD SVG 1.1//EN" "http://www.w3.org/Graphics/SVG/1.1/DTD/svg11.dtd">
<svg version="1.1" xmlns="http://www.w3.org/2000/svg"
     width="20" height="20" viewBox="0 0 20 20" data-tags="radio"><g fill="#444" transform="scale(0.01953125 0.01953125)"><path d="M870.4 409.6h-613.325l459.469-269.568-50.944-88.832-576.717 336.435c-23.347 13.619-37.683 38.554-37.683 65.587v417.178c0 56.576 45.824 102.4 102.4 102.4h716.8c56.576 0 102.4-45.824 102.4-102.4v-358.4c0-56.576-45.824-102.4-102.4-102.4zM793.6 870.4c-42.394 0-76.8-34.406-76.8-76.8s34.406-76.8 76.8-76.8 76.8 34.406 76.8 76.8c0 42.394-34.406 76.8-76.8 76.8zM870.4 614.4h-716.8v-102.4h716.8v102.4z" /></g></svg>