<?xml version="1.0" encoding="utf-8"?><!DOCTYPE svg PUBLIC "-//W3C//DTD SVG 1.1//EN" "http://www.w3.org/Graphics/SVG/1.1/DTD/svg11.dtd">
<svg version="1.1" xmlns="http://www.w3.org/2000/svg"
     width="32" height="32" viewBox="0 0 32 32" data-tags="megaphone,advertise,notify,announce"><g fill="#444" transform="scale(0.03125 0.03125)"><path d="M912 864c-26.496 0-48-21.504-48-48v-576c0-26.496 21.504-48 48-48s48 21.504 48 48v576c0 26.496-21.504 48-48 48zM672 800c0 35.328-28.672 64-64 64h-288c-35.328 0-64-28.672-64-64v-126.688l-127.712-28.416v-231.328l704.768-155.296v543.488l-161.056-35.808v34.048zM640 758.816l-352-78.368v119.552c0 17.664 14.336 32 32 32h288c17.696 0 32-14.336 32-32v-41.184zM64 672c-17.664 0-32-14.336-32-32v-224c0-17.696 14.336-32 32-32s32 14.304 32 32v224c0 17.664-14.336 32-32 32z" /></g></svg>