<?xml version="1.0" encoding="utf-8"?><!DOCTYPE svg PUBLIC "-//W3C//DTD SVG 1.1//EN" "http://www.w3.org/Graphics/SVG/1.1/DTD/svg11.dtd">
<svg version="1.1" xmlns="http://www.w3.org/2000/svg"
     width="36" height="28" viewBox="0 0 36 28" data-code="62087" data-tags="usb"><g fill="#444" transform="scale(0.02734375 0.02734375)"><path d="M1307.429 460c5.714 2.857 9.143 9.143 9.143 15.429s-3.429 12.571-9.143 15.429l-182.857 109.714c-2.857 1.714-5.714 2.857-9.143 2.857-2.857 0-6.286-0.571-9.143-2.286-5.714-3.429-9.143-9.143-9.143-16v-73.143h-490.286c18.286 28.571 33.714 62.286 47.429 94.286 27.429 61.714 55.429 125.143 95.429 125.143h54.857v-54.857c0-10.286 8-18.286 18.286-18.286h182.857c10.286 0 18.286 8 18.286 18.286v182.857c0 10.286-8 18.286-18.286 18.286h-182.857c-10.286 0-18.286-8-18.286-18.286v-54.857h-54.857c-87.429 0-126.857-89.714-162.286-168.571-26.857-61.143-54.857-124-93.714-124h-205.714c-16.571 62.857-73.714 109.714-141.714 109.714-80.571 0-146.286-65.714-146.286-146.286s65.714-146.286 146.286-146.286c68 0 125.143 46.857 141.714 109.714h59.429c38.857 0 66.857-62.857 93.714-124 35.429-78.857 74.857-168.571 162.286-168.571h61.143c15.429-42.857 55.429-73.143 103.429-73.143 60.571 0 109.714 49.143 109.714 109.714s-49.143 109.714-109.714 109.714c-48 0-88-30.286-103.429-73.143h-61.143c-40 0-68 63.429-95.429 125.143-13.714 32-29.143 65.714-47.429 94.286h636.571v-73.143c0-6.857 3.429-12.571 9.143-16s13.143-2.857 18.286 0.571z" /></g></svg>