<?xml version="1.0" encoding="utf-8"?><!DOCTYPE svg PUBLIC "-//W3C//DTD SVG 1.1//EN" "http://www.w3.org/Graphics/SVG/1.1/DTD/svg11.dtd">
<svg version="1.1" xmlns="http://www.w3.org/2000/svg"
     width="48" height="48" viewBox="0 0 48 48" data-tags="usb"><g fill="#444" transform="scale(0.046875 0.046875)"><path d="M735.574 24.746c-32.874-33.066-86.208-33.066-119.274 0l-253.44 252.8-53.952-53.974-192.64 193.494c-20.908 20.908-30.934 47.98-30.934 75.948v253.652l0.426 0.426-61.014 61.25c-33.066 33.046-33.066 86.378 0 119.254l71.68 71.658c32.874 33.088 86.208 33.088 119.254 0l61.248-60.992 0.406 0.404h254.080c27.286 0.426 55.040-10.048 75.946-30.954l192.64-193.046-53.546-53.546 252.8-253.44c33.066-33.066 33.066-86.4 0-119.254l-263.68-263.68zM820.032 332.8l20.502 20.48c17.066 17.066 17.066 44.374 0 61.44l-20.502 20.48c-17.066 17.066-44.374 17.066-61.418 0l-20.502-20.48c-17.066-17.066-17.066-44.374 0-61.44l20.502-20.48c17.044-17.088 44.372-17.088 61.418 0zM670.698 183.466l20.502 20.48c17.066 17.066 17.066 44.374 0 61.44l-20.502 20.48c-17.066 17.066-44.374 17.066-61.418 0l-20.502-20.48c-17.066-17.066-17.066-44.374 0-61.44l20.502-20.48c17.046-17.088 44.374-17.088 61.418 0z" /></g></svg>