<?xml version="1.0" encoding="UTF-8" standalone="no"?>
<svg
        xmlns:dc="http://purl.org/dc/elements/1.1/"
        xmlns:cc="http://creativecommons.org/ns#"
        xmlns:rdf="http://www.w3.org/1999/02/22-rdf-syntax-ns#"
        xmlns="http://www.w3.org/2000/svg"
        viewBox="0 0 59.722435 59.722431"
        height="59.722431"
        width="59.722435"
        version="1.1"
        id="svg2">
  <metadata
     id="metadata8">
    <rdf:RDF>
      <cc:Work
         rdf:about="">
        <dc:format>image/svg+xml</dc:format>
        <dc:type
           rdf:resource="http://purl.org/dc/dcmitype/StillImage" />
        <dc:title></dc:title>
      </cc:Work>
    </rdf:RDF>
  </metadata>
  <defs
     id="defs6" />
  <path
     id="path3338"
     d="m 0.66362459,59.05881 c -1.14334,-1.143334 -0.85915,-2.146033 1.24219001,-4.382805 2.10232,-2.237811 2.38585,-3.239156 1.24125,-4.38375 -2.42649005,-2.426489 -1.71233,-5.296431 2.26656,-9.108445 2.58061,-2.472383 3.75,-4.795783 3.75,-7.450689 0,-3.154918 1.7902704,-5.637736 9.8241504,-13.6245 7.08895,-7.047366 10.55227,-9.649361 12.43933,-9.345674 1.7599,0.283223 4.48101,-1.4079296 8.32035,-5.1710417 L 45.452635,0 l 7.1349,7.1348977 7.1349,7.1348973 -5.59191,5.705181 c -3.76311,3.839342 -5.45426,6.560454 -5.17104,8.320352 0.30369,1.887061 -2.29831,5.350382 -9.34567,12.439326 -7.98677,8.033882 -10.46959,9.824156 -13.6245,9.824156 -2.65491,0 -4.97831,1.169389 -7.45069,3.75 -3.81202,3.978885 -6.68196,4.693044 -9.1084504,2.266555 -1.14459,-1.144594 -2.14594,-0.861065 -4.38375,1.24125 -2.23677,2.101339 -3.23947,2.385529 -4.38280001,1.242195 z m 24.22062041,-13.5 c 2.91388,0 5.42312,-1.711736 11.50574,-7.848907 l 7.77914,-7.848907 -7.22643,-7.151025 -7.22643,-7.151025 -7.77632,7.846064 c -6.10463,6.159374 -7.77632,8.661886 -7.77632,11.641068 0,2.586102 -1.1962,4.941031 -3.75512,7.392632 l -3.7551104,3.597627 3.3731904,3.520849 3.37318,3.520849 3.87894,-3.759613 c 2.54981,-2.471369 5.15587,-3.759612 7.60554,-3.759612 z m 25.84395,-36.5236596 -5.27366,-5.2736608 -5.02622,4.9079738 -5.02622,4.9079716 5.28279,5.382775 5.2828,5.382775 5.01708,-5.017088 5.01709,-5.017087 -5.27366,-5.2736596 z m -4.06457,7.9267156 c 0,-1.598442 3.67547,-4.394251 4.58333,-3.48639 0.90786,0.907863 -1.88795,4.583334 -3.48639,4.583334 -0.60332,0 -1.09694,-0.493625 -1.09694,-1.096944 z m -5,-5 c 0,-1.598442 3.67547,-4.3942506 4.58333,-3.4863887 0.90786,0.9078621 -1.88795,4.5833327 -3.48639,4.5833327 -0.60332,0 -1.09694,-0.493625 -1.09694,-1.096944 z"
     style="fill:#4a4a4a" />
</svg>
