<?xml version="1.0" encoding="UTF-8" standalone="no"?>
<svg
        xmlns:dc="http://purl.org/dc/elements/1.1/"
        xmlns:cc="http://creativecommons.org/ns#"
        xmlns:rdf="http://www.w3.org/1999/02/22-rdf-syntax-ns#"
        xmlns="http://www.w3.org/2000/svg"
        viewBox="0 0 59.01342 59.880363"
        height="59.880363"
        width="59.01342"
        version="1.1"
        id="svg2">
  <metadata
     id="metadata8">
    <rdf:RDF>
      <cc:Work
         rdf:about="">
        <dc:format>image/svg+xml</dc:format>
        <dc:type
           rdf:resource="http://purl.org/dc/dcmitype/StillImage" />
        <dc:title></dc:title>
      </cc:Work>
    </rdf:RDF>
  </metadata>
  <defs
     id="defs6" />
  <path
     id="path3338"
     d="m 0.28610942,58.656618 c -0.41242,-0.66731 0.12632002,-2.907616 1.19718998,-4.978459 3.0929,-5.981002 3.59729,-13.723229 1.30675,-20.058251 -3.27326998,-9.05303 -3.72433998,-19.835798 -1.04582,-24.9999998 4.41627,-8.51456489 16.3403206,-11.1698711 26.6632306,-5.9375 7.43801,3.7700976 10.24296,8.9561008 10.89299,20.1397858 0.66123,11.376258 -2.87709,19.463233 -9.34953,21.36871 -2.23437,0.657798 -4.0625,1.75908 -4.0625,2.447296 0,0.688215 2.03333,3.333618 4.51851,5.878672 2.48518,2.545053 4.13948,5.240645 3.67623,5.990202 -1.07109,1.733055 -32.7318006,1.873145 -33.79705058,0.149544 z M 24.22212,53.307408 c -1.67394,-2.234375 -3.4566,-5.46875 -3.96146,-7.1875 -0.50487,-1.71875 -1.79436,-4.122666 -2.86555,-5.342036 -1.46652,-1.669387 -1.59292,-2.571733 -0.5117,-3.652947 1.08121,-1.081213 2.48483,-0.871026 5.68226,0.850901 5.28989,2.848792 7.92328,1.905475 10.2542,-3.673197 3.50426,-8.386896 1.66216,-20.545235 -3.90525,-25.7755422 -2.67681,-2.514737 -4.50877,-3.0321786 -10.73513,-3.0321786 -6.67606,0 -7.84163,0.3884248 -10.5243006,3.5072046 -3.76836,4.3809902 -3.91737,10.2720292 -0.53289,21.0689272 2.9862406,9.526477 3.1229406,14.014648 0.64112,21.048868 -1.03125,2.922874 -1.875,5.524845 -1.875,5.782159 0,0.257312 4.8098806,0.467841 10.6886206,0.467841 l 10.68861,0 -3.04353,-4.0625 z m 20.4163,-6.80088 c 0,-0.623919 1.97415,-1.848258 4.38698,-2.720751 4.54805,-1.644597 8.11302,-6.660884 8.11302,-11.415869 0,-4.754985 -3.56497,-9.771273 -8.11302,-11.415869 -2.41283,-0.872494 -4.38698,-2.096832 -4.38698,-2.720751 0,-2.183795 6.90931,0.57067 10.625,4.235764 3.16578,3.122665 3.75,4.665149 3.75,9.900856 0,5.235708 -0.58422,6.778191 -3.75,9.900856 -3.71569,3.665094 -10.625,6.419559 -10.625,4.235764 z m 0,-7.585936 c 0,-0.522124 1.125,-1.651891 2.5,-2.510593 1.375,-0.858701 2.5,-2.676742 2.5,-4.040091 0,-1.363349 -1.125,-3.18139 -2.5,-4.040091 -2.66505,-1.664352 -3.31375,-3.459909 -1.25,-3.459909 2.17026,0 6.25,4.89569 6.25,7.5 0,1.375 -1.125,3.625 -2.5,5 -2.52739,2.527394 -5,3.29424 -5,1.550684 z"
     style="fill:#4a4a4a" />
</svg>
