<!-- Generated by IcoMoon.io -->
<svg version="1.1" xmlns="http://www.w3.org/2000/svg" width="29" height="32" viewBox="0 0 29 32">
<title>aux5</title>
<path d="M10.466 31.796c-1.086-0.242-2.426-1.509-2.718-2.57-0.144-0.524-0.213-4.802-0.214-13.313-0.002-12.090-0.015-12.564-0.378-13.158-0.532-0.872-1.628-1.189-2.571-0.741-0.949 0.45-1.297 1.272-1.297 3.062 0 1.283 0.045 1.468 0.385 1.575 0.476 0.151 0.707 0.964 0.384 1.353-0.335 0.404-2.941 0.404-3.276 0-0.323-0.389-0.092-1.202 0.384-1.353 0.349-0.111 0.385-0.293 0.385-1.912 0-1.501 0.072-1.927 0.449-2.64 1.474-2.793 5.459-2.773 6.891 0.034 0.363 0.712 0.377 1.215 0.379 13.241 0.001 8.179 0.072 12.755 0.205 13.235 0.231 0.831 1.098 1.483 1.974 1.485 0.676 0.001 1.579-0.455 1.8-0.909 0.092-0.19 0.211-6.206 0.265-13.369 0.106-14.303 0.037-13.517 1.285-14.702 1.95-1.853 4.946-1.327 6.145 1.078l0.481 0.965v12.709c0 8.98 0.063 12.833 0.216 13.131 0.629 1.23 2.232 1.49 3.3 0.536 0.594-0.53 0.632-0.645 0.698-2.103 0.065-1.428 0.040-1.552-0.335-1.671-0.493-0.156-0.732-0.963-0.404-1.359 0.171-0.206 0.634-0.287 1.638-0.287s1.467 0.081 1.638 0.287c0.323 0.389 0.092 1.202-0.384 1.353-0.344 0.109-0.385 0.292-0.385 1.688 0 1.207-0.095 1.762-0.414 2.421-0.463 0.957-1.72 1.881-2.845 2.092-1.419 0.266-3.329-0.643-4.026-1.918-0.309-0.565-0.346-1.716-0.434-13.675-0.095-12.867-0.102-13.066-0.5-13.603-0.626-0.845-1.333-1.117-2.217-0.852-0.405 0.121-0.914 0.447-1.132 0.724-0.39 0.496-0.396 0.687-0.397 13.067-0.001 7.821-0.074 12.827-0.195 13.262-0.589 2.121-2.613 3.321-4.783 2.837zM1.89 29.885c-0.687-0.4-0.295-1.528 0.531-1.528 0.848 0 1.218 1.15 0.495 1.537-0.456 0.244-0.594 0.243-1.026-0.009zM1.784 27.354c-0.69-0.69 0.141-1.749 1.047-1.336 0.813 0.37 0.499 1.568-0.41 1.568-0.223 0-0.509-0.104-0.637-0.232zM1.89 25.062c-0.27-0.157-0.338-0.464-0.338-1.538 0-1.34-0-1.341-0.54-1.341-0.297 0-0.644-0.104-0.772-0.232-0.3-0.3-0.33-9.644-0.032-10.2 0.177-0.33 0.419-0.373 2.109-0.373 1.478 0 1.977 0.068 2.212 0.303 0.26 0.26 0.303 1.003 0.303 5.171 0 5.236-0.018 5.331-1.003 5.331-0.54 0-0.54 0.001-0.54 1.344 0 1.131-0.059 1.375-0.373 1.544-0.456 0.244-0.594 0.243-1.026-0.009zM24.359 23.109c-0.32-0.32-0.289-0.841 0.072-1.202 0.232-0.232 0.725-0.303 2.109-0.303 1.892 0 2.412 0.203 2.412 0.94 0 0.661-0.412 0.797-2.412 0.797-1.258 0-2.031-0.082-2.18-0.232zM24.431 20.722c-0.26-0.26-0.303-1.003-0.303-5.171 0-5.236 0.018-5.331 1.003-5.331h0.54v-1.355c0-1.239 0.039-1.373 0.458-1.563 0.332-0.151 0.57-0.148 0.868 0.011 0.358 0.192 0.41 0.39 0.41 1.563 0 1.343 0 1.344 0.54 1.344 0.985 0 1.003 0.095 1.003 5.331 0 4.168-0.044 4.911-0.303 5.171-0.232 0.232-0.725 0.303-2.109 0.303s-1.876-0.071-2.109-0.303zM0.312 10.496c-0.428-0.428-0.376-0.974 0.126-1.326 0.302-0.211 0.889-0.3 1.983-0.3 1.673 0 2.412 0.295 2.412 0.962 0 0.766-0.502 0.968-2.412 0.968-1.384 0-1.876-0.071-2.109-0.303zM26.009 6.346c-0.687-0.4-0.295-1.528 0.531-1.528 0.848 0 1.218 1.15 0.495 1.537-0.456 0.244-0.594 0.243-1.026-0.009zM25.873 3.767c-0.603-0.726 0.171-1.701 1.037-1.307 0.857 0.39 0.566 1.586-0.386 1.586-0.231 0-0.524-0.125-0.652-0.279z"></path>
</svg>
