<!-- Generated by IcoMoon.io -->
<svg version="1.1" xmlns="http://www.w3.org/2000/svg" width="24" height="32" viewBox="0 0 24 32">
<title>card1</title>
<path d="M0.849 31.162c-0.472-0.472-0.798-2.741-0.798-5.551 0-3.908 0.236-4.967 1.33-5.957 0.732-0.662 1.33-1.422 1.33-1.688s-0.599-0.641-1.33-0.832c-2.101-0.549-1.746-3.816 0.665-6.127 1.753-1.68 1.996-2.365 1.996-5.646 0-2.054 0.359-4.093 0.798-4.532 1.106-1.106 17.253-1.106 18.359 0 1.131 1.131 1.131 29.202 0 30.332-1.117 1.117-21.233 1.117-22.35 0zM21.336 15.996v-13.304h-14.634v3.534c0 3.058-0.269 3.791-1.996 5.446-2.35 2.252-2.448 2.72-0.665 3.186 0.95 0.248 1.33 0.907 1.33 2.303 0 1.11-0.575 2.475-1.33 3.159-1.041 0.942-1.33 2.049-1.33 5.092v3.888h18.625v-13.304zM8.033 7.348c0-1.098 0.299-1.996 0.665-1.996s0.665 0.898 0.665 1.996c0 1.098-0.299 1.996-0.665 1.996s-0.665-0.898-0.665-1.996zM10.694 6.683c0-1.463 0.299-2.661 0.665-2.661s0.665 1.197 0.665 2.661c0 1.463-0.299 2.661-0.665 2.661s-0.665-1.197-0.665-2.661zM13.354 7.348c0-1.098 0.299-1.996 0.665-1.996s0.665 0.898 0.665 1.996c0 1.098-0.299 1.996-0.665 1.996s-0.665-0.898-0.665-1.996zM16.015 6.683c0-1.463 0.299-2.661 0.665-2.661s0.665 1.197 0.665 2.661c0 1.463-0.299 2.661-0.665 2.661s-0.665-1.197-0.665-2.661zM18.676 7.348c0-1.098 0.299-1.996 0.665-1.996s0.665 0.898 0.665 1.996c0 1.098-0.299 1.996-0.665 1.996s-0.665-0.898-0.665-1.996z"></path>
</svg>
