<!-- Generated by IcoMoon.io -->
<svg version="1.1" xmlns="http://www.w3.org/2000/svg" width="32" height="32" viewBox="0 0 32 32">
<title>voice1</title>
<path fill="#4a4a4a" d="M0.153 31.346c-0.22-0.357 0.068-1.554 0.64-2.66 1.653-3.196 1.922-7.334 0.698-10.719-1.749-4.838-1.99-10.6-0.559-13.36 2.36-4.55 8.732-5.969 14.249-3.173 3.975 2.015 5.474 4.786 5.821 10.763 0.353 6.079-1.538 10.401-4.996 11.419-1.194 0.352-2.171 0.94-2.171 1.308s1.087 1.781 2.415 3.142c1.328 1.36 2.212 2.801 1.965 3.201-0.572 0.926-17.492 1.001-18.061 0.080zM12.944 28.487c-0.895-1.194-1.847-2.922-2.117-3.841s-0.959-2.203-1.531-2.855c-0.784-0.892-0.851-1.374-0.273-1.952s1.328-0.465 3.037 0.455c2.827 1.522 4.234 1.018 5.48-1.963 1.873-4.482 0.888-10.979-2.087-13.774-1.43-1.344-2.409-1.62-5.737-1.62-3.568 0-4.191 0.208-5.624 1.874-2.014 2.341-2.093 5.489-0.285 11.259 1.596 5.091 1.669 7.489 0.343 11.248-0.551 1.562-1.002 2.952-1.002 3.090s2.57 0.25 5.712 0.25h5.712l-1.626-2.171zM23.855 24.853c0-0.333 1.055-0.988 2.344-1.454 2.43-0.879 4.336-3.56 4.336-6.101s-1.905-5.222-4.336-6.101c-1.289-0.466-2.344-1.121-2.344-1.454 0-1.167 3.692 0.305 5.678 2.264 1.692 1.669 2.004 2.493 2.004 5.291s-0.312 3.622-2.004 5.291c-1.986 1.959-5.678 3.431-5.678 2.264zM23.855 20.799c0-0.279 0.601-0.883 1.336-1.342s1.336-1.43 1.336-2.159c0-0.729-0.601-1.7-1.336-2.159-1.424-0.889-1.771-1.849-0.668-1.849 1.16 0 3.34 2.616 3.34 4.008 0 0.735-0.601 1.937-1.336 2.672-1.351 1.351-2.672 1.76-2.672 0.829z"></path>
</svg>
