<?xml version="1.0" encoding="UTF-8" standalone="no"?>
<svg
   xmlns:dc="http://purl.org/dc/elements/1.1/"
   xmlns:cc="http://creativecommons.org/ns#"
   xmlns:rdf="http://www.w3.org/1999/02/22-rdf-syntax-ns#"
   xmlns:svg="http://www.w3.org/2000/svg"
   xmlns="http://www.w3.org/2000/svg"
   viewBox="0 0 1306.1081 1305.0819"
   height="1305.0819"
   width="1306.1082"
   id="svg2"
   version="1.1">
  <metadata
     id="metadata8">
    <rdf:RDF>
      <cc:Work
         rdf:about="">
        <dc:format>image/svg+xml</dc:format>
        <dc:type
           rdf:resource="http://purl.org/dc/dcmitype/StillImage" />
        <dc:title></dc:title>
      </cc:Work>
    </rdf:RDF>
  </metadata>
  <defs
     id="defs6" />
  <path
     id="path4520"
     d="m 614.82402,1304.4398 c -31.7155,-1.1873 -51.5402,-3.5575 -84,-10.0429 -146.4866,-29.2677 -273.2224,-101.7947 -370.3206,-211.9231 C 81.420914,992.77864 27.579114,877.82034 6.7337139,754.15794 c -8.9737,-53.2351 -8.9792,-150.6877 -0.011,-203.03108 C 23.167814,455.13923 55.212514,371.77558 105.05121,295.32713 151.55182,223.99915 217.80732,157.14476 289.49112,109.21993 375.64462,51.621312 467.46222,17.576392 576.15782,2.9272725 c 35.4794,-4.78164 128.8037,-3.49598996 169.3333,2.3327696 65.2636,9.3858499 140.7993,32.9220299 198.8865,61.9709999 47.3497,23.6792 92.16878,53.497118 133.78018,89.003238 18.7955,16.03774 57.5469,55.18499 74.1489,74.90619 85.4631,101.52017 136.3656,221.93072 151.3414,358.00001 3.2495,29.52466 3.2868,96.88096 0.07,125.99996 -9.4811,85.8211 -30.7055,157.6471 -68.9495,233.3334 -40.6991,80.54496 -95.7915,149.26896 -167.2774,208.66716 -89.42148,74.3009 -196.46538,122.1243 -317.56148,141.8751 -31.0052,5.057 -85.9651,7.2633 -135.1053,5.4237 z m -8.5593,-43.0984 c 0.3797,-0.9894 -2.9814,-8.3394 -7.4691,-16.3333 -17.2524,-30.7312 -53.0178,-105.8145 -66.9427,-140.5343 -17.0428,-42.494 -36.7567,-103.1307 -45.8359,-140.98356 l -5.193,-21.6503 h -110 c -69.1926,0 -110.7419,0.4863 -112,1.3041 -1.6963,1.1027 -1.107,2.9719 3.882,12.3129 10.1569,19.0167 30.6837,52.89846 44.5205,73.48586 53.2941,79.2951 132.2749,158.0265 212.1371,211.4673 23.0047,15.3939 22.9112,15.3639 66.1271,21.2223 13.5321,1.8345 19.9921,1.7427 20.774,-0.295 z m 122.0709,-0.8757 c 34.7022,-4.5304 35.4129,-4.7905 61.1551,-22.3807 90.4223,-61.7874 174.6187,-150.2291 230.01368,-241.61117 7.5831,-12.50949 28.653,-52.05469 28.653,-53.77769 0,-0.489 -50.31318,-0.889 -111.80708,-0.889 h -111.8072 l -2.3582,11 c -8.366,39.0241 -36.3494,123.22726 -57.6628,173.50946 -10.78,25.4322 -44.3549,94.1076 -57.8277,118.2833 -4.4738,8.0279 -7.7937,15.4837 -7.3775,16.5684 0.9921,2.5854 4.4794,2.501 29.0187,-0.7026 z m -66.4144,-19.0401 c 32.3882,-55.2936 64.004,-123.0103 86.6623,-185.6185 15.0999,-41.7235 35.6586,-110.35906 33.6563,-112.36256 -0.5335,-0.5339 -59.3521,-1.1556 -130.7079,-1.3816 l -129.7378,-0.4108 2.5762,11.0775 c 10.5614,45.41329 45.774,143.00586 70.8674,196.41076 12.6897,27.0069 47.6286,92.595 54.5214,102.349 1.4312,2.0253 3.1341,3.3537 3.7841,2.9519 0.6501,-0.4017 4.4202,-6.2588 8.378,-13.0157 z m -250.5032,-31.9518 c -5.1366,-5.3167 -23.154,-23.7667 -40.0387,-41 -68.1046,-69.5111 -104.9617,-119.6375 -146.4719,-199.20436 l -14.3271,-27.4623 -45.5448,0.1329 c -25.0496,0.073 -46.9106,0.5231 -48.5799,1 -2.9845,0.8527 -2.921,1.0673 3.8125,12.8671 8.8169,15.4511 24.1612,38.92909 37.035,56.66666 47.0955,64.8881 120.0626,130.7841 186.8543,168.7464 17.6785,10.048 72.4425,37.8476 74.6333,37.8859 1.0816,0.019 -2.2361,-4.3156 -7.3727,-9.6323 z m 507.636,-6.0784 c 59.8769,-30.3107 107.72718,-62.5245 142.85288,-96.1717 52.7527,-50.532 80.9071,-84.0008 112.0534,-133.20406 15.4621,-24.4262 17.9203,-29.3141 15.5305,-30.8803 -1.2383,-0.8115 -19.7,-1.1878 -48.472,-0.9881 l -46.4719,0.3226 -14.6374,28 c -42.1534,80.63536 -77.6082,128.47556 -149.72338,202.02606 -42.2504,43.0914 -45.579,46.6405 -43.743,46.6405 0.8291,0 15.504,-7.0852 32.6109,-15.745 z m 47.4096,-304.25446 246.97298,-5e-4 2.819,-5.5258 c 12.5011,-24.5042 31.6795,-89.6428 40.5181,-137.6181 6.2204,-33.7639 6.6831,-40.9946 6.6675,-104.1894 -0.012,-50 -0.4058,-62.77778 -2.3605,-76.66667 -7.109,-50.5115 -27.4867,-125.77057 -42.8176,-158.13448 l -6.0842,-12.84385 -547.01078,0.8742 c -300.8559,0.4808 -553.0107,1.30093 -560.34411,1.82249 l -13.333296,0.94831 -4.2735,8.66666 c -6.1828,12.53896 -24.6047,69.00843 -30.8828,94.66667 -12.2167,49.92872 -14.1807,69.71515 -14.1612,142.66667 0.02,74.6099 2.315,95.2815 16.6533,150 9.3015,35.4967 27.8717,88.4922 32.9386,94 1.1962,1.3003 245.145906,2.3295 435.058906,1.8355 105.9667,-0.2756 303.8045,-0.5014 439.6396,-0.5017 z m -781.2845,-206.9776 c -13.0047,-41.2626 -29.135,-92.2926 -35.845,-113.40008 -6.7101,-21.10748 -11.7708,-38.80748 -11.2461,-39.33333 0.5247,-0.52587 13.6253,-0.95612 29.1125,-0.95612 h 28.1585 l 19.4297,67.33333 c 19.5135,67.6238 22.1635,76 24.0441,76 0.5602,0 2.303,-4.65 3.8728,-10.3333 4.7021,-17.0228 34.7851,-131.87733 34.7851,-132.80649 0,-0.47312 13.4195,-0.86021 29.8212,-0.86021 h 29.8212 l 16.1375,64.3333 c 18.7889,74.9029 19.8505,78.6788 21.9264,77.9868 2.0233,-0.6744 8.3767,-20.4375 24.9636,-77.6534 7.4408,-25.6667 14.7094,-50.7167 16.1525,-55.6667 l 2.6239,-9 h 29.9435 c 16.469,0 29.9435,0.15661 29.9435,0.34804 0,0.19141 -16.397,51.34142 -36.4378,113.66666 l -36.4379,113.3186 -5.8955,0.9012 c -3.2425,0.4956 -16.5287,0.9456 -29.5249,1 l -23.6294,0.099 -1.9678,-7 c -1.0822,-3.85 -9.5644,-35.2 -18.8492,-69.6667 -20.1273,-74.716 -18.7105,-69.88 -19.7276,-67.3333 -0.9507,2.3802 -15.8636,58.5636 -28.6667,108 l -9.1506,35.3333 -29.8563,0.3563 -29.8563,0.3562 z m 340.624,-14.0229 c -42.6252,-134.53711 -43.5459,-137.54402 -42.4497,-138.64331 0.5612,-0.56283 13.5142,-1.20652 28.7844,-1.43042 l 27.7641,-0.4071 1.4122,4.4071 c 0.7767,2.4239 8.6577,29.52334 17.5133,60.22093 17.8534,61.888 23.8822,81.4117 24.8429,80.451 1.068,-1.068 11.819,-40.0613 25.2548,-91.59816 6.9782,-26.76667 13.0006,-49.71667 13.3831,-51.00001 0.6354,-2.13162 3.2523,-2.33238 30.2724,-2.32241 l 29.5768,0.0107 17.8312,70.32238 c 9.8072,38.6774 18.3146,71.2217 18.9053,72.3207 2.0845,3.8784 4.9705,-4.9798 32.3625,-99.33158 l 12.3869,-42.66666 29.5904,-0.35884 c 24.029,-0.29116 29.5904,-0.0226 29.5904,1.42893 0,1.6512 -23.9686,77.29615 -57.7514,182.26345 l -13.9465,43.3334 -7.1042,1.0302 c -3.9073,0.5667 -17.3137,0.8667 -29.7921,0.6667 l -22.6879,-0.3636 -3.7175,-14 c -12.9178,-48.6479 -33.4702,-123.627 -34.3161,-125.1914 -1.0743,-1.987 -4.8086,8.4475 -11.8784,33.1914 -4.3589,15.2557 -28.1393,104.7971 -28.1393,105.954 0,0.392 -13.3852,0.7127 -29.7449,0.7127 h -29.745 z m 366.5426,68 c -21.691,-68.5504 -58.3205,-184.1017 -61.5848,-194.27479 -2.1074,-6.56783 -3.5546,-12.21852 -3.216,-12.55711 1.41,-1.41007 16.5823,-1.76757 36.9279,-0.87012 l 21.7004,0.95721 13.1622,46.20576 c 17.7639,62.35995 27.5845,95.31775 28.7921,96.62575 1.1295,1.2234 12.5814,-38.9532 26.7233,-93.75333 5.2043,-20.16667 10.3474,-39.8281 11.4291,-43.69206 l 1.9667,-7.02538 29.54,0.35872 29.53988,0.35872 3.7986,15.33333 c 10.7054,43.2128 31.8348,124.4795 32.8248,126.2484 0.8246,1.4735 2.1184,-0.6374 4.7684,-7.7798 3.9259,-10.5811 19.7793,-62.7539 32.1922,-105.94267 l 7.7047,-26.80741 15.9804,-0.85925 c 8.7893,-0.4726 22.234,-0.85927 29.8771,-0.85927 h 13.8966 l -0.8089,3.68305 c -1.2768,5.81326 -71.2825,223.30755 -72.1589,224.18395 -0.4322,0.4323 -13.8258,1.0032 -29.7635,1.2687 l -28.9776,0.4828 -7.0854,-27.1426 c -9.7876,-37.4941 -28.9745,-107.7652 -30.52868,-111.8092 l -1.2809,-3.3334 -1.568,4 c -2.4884,6.3485 -13.4298,45.5865 -26.1186,93.6667 l -11.7,44.3333 h -29.6941 -29.6941 z m -667.5216,-407.3333 c 15.1896,-29.69341 29.5666,-54.35647 46.2349,-79.31383 32.9536,-49.34115 78.2847,-102.89602 120.4933,-142.35285 31.9239,-29.842618 36.2242,-34.172338 32.6051,-32.828688 -1.8334,0.68065 -10.2332,4.36529 -18.6664,8.18808 -73.2762,33.216428 -129.7985,72.251038 -186.1209,128.536028 -30.4007,30.38051 -54.9594,60.00661 -77.4559,93.43792 -9.9276,14.75312 -28.4775,46.39039 -27.6745,47.19948 1.2016,1.2107 28.1091,2.27168 64.6862,2.55063 l 32.7685,0.24989 z m 545.6666,23.44693 c 2.9219,-0.50147 4.3334,-1.49101 4.3334,-3.03804 0,-3.1064 -12.8804,-48.20059 -22.8044,-79.83856 -15.3719,-49.00556 -33.9831,-98.07295 -55.4674,-146.23701 -12.5668,-28.17232 -37.9393,-79.006578 -41.7578,-83.662218 -2.4518,-2.98928 -2.4748,-2.99099 -4.5542,-0.33779 -3.2802,4.18521 -24.8876,47.259463 -34.7798,69.333348 -25.8698,57.72694 -44.0397,104.77523 -59.762,154.74503 -18.8544,59.9244 -26.522,87.6614 -24.5411,88.77584 3.464,1.94892 228.0707,2.19235 239.3333,0.2594 z m 277.66668,1.7332 c 0,-1.07965 -23.5603,-43.7307 -31.0337,-56.18014 C 971.47522,231.76491 902.80222,155.18657 828.53302,97.506875 c -19.8371,-15.406103 -44.5015,-32.857843 -55.9994,-39.623293 -12.5994,-7.41366 -21.5203,-10.06264 -44.9787,-13.35606 -23.2606,-3.26566 -24.5924,-3.29925 -25.6106,-0.64588 -0.454,1.18297 3.6692,11.35408 9.594,23.66667 37.421,77.766328 69.0919,161.735738 92.6305,245.592158 4.5286,16.13333 9.5509,33.83333 11.1605,39.33333 l 2.9266,10 94.6174,0.6801 c 52.0396,0.37405 103.76748,0.82405 114.95078,1 11.1833,0.17594 20.3333,0.10093 20.3333,-0.16663 z m 142.6687,-1.51468 c 1.5754,-0.97369 -0.7402,-5.17971 -19.0849,-34.66545 -24.2778,-39.02219 -51.961,-73.1929 -90.1959,-111.33334 -37.499,-37.40626 -67.0622,-60.13122 -118.72118,-91.25981 -27.9057,-16.81532 -81.3334,-42.781208 -81.3334,-39.528018 0,0.64531 10.7317,11.136373 23.8481,23.313478 75.2045,69.81857 136.95008,150.95959 177.06378,232.68294 l 11.3919,23.20859 47.8427,-0.7932 c 26.3135,-0.43627 48.4485,-1.1676 49.1889,-1.62519 z M 488.87802,356.4738 c 19.2378,-69.25956 29.467,-102.41907 44.2159,-143.33333 18.9894,-52.67753 38.2329,-98.63832 60.712,-145.003478 6.6673,-13.75191 11.71,-25.41583 11.206,-25.91984 -1.5599,-1.55986 -46.7699,4.64261 -55.7213,7.64453 -9.6276,3.22872 -34.4735,19.1022 -60.4666,38.63078 -72.7938,54.690038 -138.3165,124.087628 -186.3989,197.422388 -18.954,28.90831 -42.2677,70.38398 -42.2677,75.19509 0,1.8251 12.2323,2.00878 113.527,1.70469 l 113.527,-0.34083 z"
     style="fill:#000000;stroke-width:1.33333337" />
</svg>
